<?xml version="1.0" standalone="no"?>
<!DOCTYPE svg PUBLIC "-//W3C//DTD SVG 1.1//EN" "http://www.w3.org/Graphics/SVG/1.1/DTD/svg11.dtd" >
<svg>
<metadata>
Created by FontForge 20110222 at Thu Jul 24 07:21:46 2014
 By Orthosie Webhosting
Copyright (c) 2007 Linotype GmbH, www.linotype.com. All rights reserved. This font software may not be reproduced, modified, disclosed or transferred without the express written approval of Linotype GmbH. Frutiger Next is a trademark of Linotype GmbH and may be registered in certain jurisdictions. This typeface is original artwork of Adrian Frutiger and Linotype Design Studio. The design may be protected in certain jurisdictions. 
</metadata>
<defs>
<font id="FrutigerNextPro-MediumIta" horiz-adv-x="562" >
  <font-face 
    font-family="Frutiger Next Pro"
    font-weight="500"
    font-style="italic"
    font-stretch="normal"
    units-per-em="1000"
    panose-1="2 11 6 3 4 2 4 9 2 3"
    ascent="721"
    descent="-279"
    x-height="500"
    cap-height="667"
    bbox="-157 -240 1258 905"
    underline-thickness="50"
    underline-position="-50"
    slope="-12"
    stemh="74"
    stemv="67"
    unicode-range="U+000D-FB02"
  />
<missing-glyph horiz-adv-x="512" 
d="M269 117h-59v64h59v-64zM263 241h-47v9c0 123 112 131 112 236c0 44 -31 77 -82 77c-33 0 -66 -8 -98 -21l-4 47c33 13 63 20 102 20c79 0 134 -44 134 -124c0 -114 -117 -129 -117 -233v-11zM512 0h-512v718h512v-718zM50 667v-617h412v617h-412z" />
    <glyph glyph-name="napostrophe" unicode="&#x22;n" horiz-adv-x="605" 
d="M159 0h-101l81 385c8 39 15 76 19 115h94l-15 -89c48 65 96 99 179 99c81 0 135 -45 135 -126c0 -19 -3 -38 -7 -59l-68 -325h-101l63 302c4 19 8 38 8 57c0 43 -21 77 -78 77c-89 0 -133 -77 -149 -154zM91 491h-75l107 230h101z" />
    <glyph glyph-name="IJ" unicode="IJ" horiz-adv-x="597" 
d="M119 0h-108l142 667h108zM193 3l20 83c19 -9 37 -11 57 -11c77 0 104 64 117 124l100 468h108l-103 -486c-25 -119 -94 -192 -215 -192c-36 0 -57 3 -84 14z" />
    <glyph glyph-name="fi" unicode="fi" horiz-adv-x="557" 
d="M-120 -220l19 73c13 -3 26 -4 37 -4c66 0 88 71 102 136l93 442h-94l16 73h93l13 59c19 92 68 172 187 172c25 0 50 -3 69 -10l-21 -70c-15 5 -30 8 -46 8c-60 0 -79 -60 -89 -107l-11 -52h109l-16 -73h-108l-95 -449c-19 -92 -59 -205 -193 -205c-25 0 -46 2 -65 7z
M549 603h-103l20 97h103zM422 0h-101l105 500h101z" />
    <glyph glyph-name="fl" unicode="fl" horiz-adv-x="564" 
d="M-120 -220l19 73c13 -3 26 -4 37 -4c66 0 88 71 102 136l93 442h-94l16 73h93l13 59c19 92 68 172 187 172c25 0 50 -3 69 -10l-21 -70c-15 5 -30 8 -46 8c-60 0 -79 -60 -89 -107l-11 -52h109l-16 -73h-108l-95 -449c-19 -92 -59 -205 -193 -205c-25 0 -46 2 -65 7z
M422 0h-101l153 721h101z" />
    <glyph glyph-name="ij" unicode="ij" horiz-adv-x="481" 
d="M235 603h-103l20 97h103zM108 0h-101l105 500h101zM471 603h-103l19 97h103zM96 -219l21 74c10 -4 21 -6 34 -6c49 0 70 46 78 88l119 563h101l-119 -572c-19 -86 -62 -155 -159 -155c-25 0 -51 1 -75 8z" />
    <glyph glyph-name=".notdef" horiz-adv-x="512" 
d="M269 117h-59v64h59v-64zM263 241h-47v9c0 123 112 131 112 236c0 44 -31 77 -82 77c-33 0 -66 -8 -98 -21l-4 47c33 13 63 20 102 20c79 0 134 -44 134 -124c0 -114 -117 -129 -117 -233v-11zM512 0h-512v718h512v-718zM50 667v-617h412v617h-412z" />
    <glyph glyph-name=".null" horiz-adv-x="1000" 
 />
    <glyph glyph-name=".null" horiz-adv-x="1000" 
 />
    <glyph glyph-name="CR" unicode="&#xd;" horiz-adv-x="0" 
 />
    <glyph glyph-name="space" unicode=" " horiz-adv-x="281" 
 />
    <glyph glyph-name="exclam" unicode="!" horiz-adv-x="279" 
d="M149 179h-83l87 488h116zM122 0h-106l22 103h105z" />
    <glyph glyph-name="quotedbl" unicode="&#x22;" horiz-adv-x="432" 
d="M350 459h-77l44 208h78zM200 459h-78l44 208h78z" />
    <glyph glyph-name="numbersign" unicode="#" 
d="M122 0h-67l48 203h-83l14 64h83l33 134h-83l14 64h83l49 202h68l-49 -202h160l48 202h68l-48 -202h83l-14 -64h-84l-33 -134h84l-14 -64h-84l-48 -203h-67l48 203h-160zM218 401l-33 -134h160l33 134h-160z" />
    <glyph glyph-name="dollar" unicode="$" 
d="M224 -108h-67l21 97c-53 1 -105 9 -152 29l26 88c35 -20 91 -38 147 -38c85 0 161 46 161 127c0 114 -243 119 -243 278c0 117 94 184 214 200l22 101h66l-21 -97c45 0 92 -7 133 -22l-24 -85c-36 16 -84 28 -127 28c-64 0 -157 -33 -157 -112c0 -101 244 -106 244 -276
c0 -116 -89 -205 -222 -218z" />
    <glyph glyph-name="percent" unicode="%" horiz-adv-x="951" 
d="M616 -1c-46 20 -67 65 -67 120c0 115 65 282 214 282c84 0 122 -52 122 -124c0 -121 -56 -288 -214 -288c-21 0 -40 3 -55 10zM298 -24h-68l423 715h69zM134 275c-46 20 -66 65 -66 120c0 115 65 282 213 282c84 0 122 -52 122 -124c0 -121 -56 -288 -214 -288
c-21 0 -40 3 -55 10zM635 61c8 -15 24 -22 47 -22c92 0 128 176 128 241c0 36 -12 72 -57 72c-91 0 -129 -176 -129 -241c0 -18 4 -35 11 -50zM154 337c8 -13 22 -22 46 -22c92 0 128 176 128 241c0 36 -12 72 -57 72c-92 0 -128 -176 -128 -241c0 -19 3 -35 11 -50z" />
    <glyph glyph-name="ampersand" unicode="&#x26;" horiz-adv-x="672" 
d="M547 310l-62 -291c-68 -18 -161 -30 -225 -30c-128 0 -234 41 -234 149c0 119 90 192 201 208c-67 7 -116 52 -116 111c0 152 157 220 294 220c55 0 108 -9 160 -27l-22 -80c-48 25 -98 33 -154 33c-88 0 -177 -48 -177 -140c0 -73 75 -81 132 -81h120l16 72h98l-15 -72
h101l-16 -72h-101zM449 310h-120c-99 0 -197 -46 -197 -154c0 -70 65 -93 145 -93c44 0 81 6 124 18z" />
    <glyph glyph-name="quotesingle" unicode="'" horiz-adv-x="281" 
d="M200 459h-78l44 208h78z" />
    <glyph glyph-name="parenleft" unicode="(" horiz-adv-x="281" 
d="M191 -128h-74c-41 99 -72 206 -72 310c0 218 114 386 242 539h75c-115 -157 -230 -330 -230 -541c0 -111 27 -208 59 -308z" />
    <glyph glyph-name="parenright" unicode=")" horiz-adv-x="281" 
d="M-16 -128h-76c115 157 237 327 237 537c0 108 -31 209 -63 312h75c41 -101 74 -211 74 -312c0 -218 -119 -385 -247 -537z" />
    <glyph glyph-name="asterisk" unicode="*" horiz-adv-x="419" 
d="M178 335l-64 40l79 108l-120 35l23 73l114 -52l-10 128h76l-11 -128l114 52l23 -73l-119 -35l77 -108l-64 -40l-59 115z" />
    <glyph glyph-name="plus" unicode="+" 
d="M225 211h-214v78h214v211h82v-211h215v-78h-215v-211h-82v211z" />
    <glyph glyph-name="comma" unicode="," horiz-adv-x="281" 
d="M28 -128h-75l107 231h101z" />
    <glyph glyph-name="hyphen" unicode="-" horiz-adv-x="326" 
d="M273 269h-243l17 82h243z" />
    <glyph glyph-name="period" unicode="." horiz-adv-x="281" 
d="M127 0h-106l22 103h106z" />
    <glyph glyph-name="slash" unicode="/" horiz-adv-x="303" 
d="M28 0h-84l331 667h85z" />
    <glyph glyph-name="zero" unicode="0" 
d="M129 6c-68 36 -97 110 -97 199c0 187 95 472 321 472c125 0 180 -89 180 -205c0 -196 -82 -483 -321 -483c-33 0 -60 6 -83 17zM151 105c15 -24 37 -40 76 -40c147 0 205 297 205 410c0 63 -18 126 -93 126c-145 0 -206 -295 -206 -408c0 -32 5 -64 18 -88z" />
    <glyph glyph-name="one" unicode="1" 
d="M297 0h-105l118 557l-140 -99l-41 74l217 135h90z" />
    <glyph glyph-name="two" unicode="2" 
d="M423 0h-441l19 81l243 197c120 96 162 154 162 226c0 52 -40 92 -107 92c-72 0 -121 -22 -174 -47l10 86c49 27 114 42 183 42c124 0 200 -63 200 -158c0 -105 -71 -186 -226 -309l-162 -130h311z" />
    <glyph glyph-name="three" unicode="3" 
d="M-30 16l25 84c48 -24 105 -32 160 -32c87 0 191 34 191 149c0 73 -71 96 -151 96h-78l16 75h77c86 0 190 32 190 127c0 64 -67 85 -131 85c-57 0 -107 -13 -159 -34l11 82c35 11 96 29 175 29c104 0 212 -40 212 -149c0 -99 -80 -163 -170 -179c75 -19 115 -61 115 -130
c0 -163 -157 -230 -301 -230c-59 0 -127 6 -182 27z" />
    <glyph glyph-name="four" unicode="4" 
d="M312 147h-316l20 90l386 430h115l-92 -440h94l-17 -80h-95l-31 -147h-96zM406 581l-308 -355h232z" />
    <glyph glyph-name="five" unicode="5" 
d="M11 15l17 85c44 -20 102 -32 149 -32c109 0 200 53 200 161c0 90 -70 113 -139 113c-67 0 -116 -14 -157 -26l81 351h378l-18 -79h-281l-46 -190c27 7 59 12 99 12c96 0 192 -50 192 -168c0 -179 -146 -253 -308 -253c-53 0 -120 7 -167 26z" />
    <glyph glyph-name="six" unicode="6" 
d="M164 105c19 -24 46 -40 87 -40c103 0 153 85 153 179c0 59 -37 106 -109 106c-91 0 -156 -70 -156 -160c0 -31 8 -61 25 -85zM555 647l-26 -77c-35 19 -88 31 -131 31c-147 0 -209 -131 -236 -254c39 49 103 76 168 76c111 0 176 -75 176 -169
c0 -163 -111 -265 -260 -265c-151 0 -206 101 -206 210c0 214 98 478 362 478c52 0 112 -11 153 -30z" />
    <glyph glyph-name="seven" unicode="7" 
d="M161 0h-120l398 582h-358l18 85h461l-18 -84z" />
    <glyph glyph-name="eight" unicode="8" 
d="M322 297c-13 8 -27 15 -41 21c-83 -24 -165 -63 -165 -156c0 -75 54 -100 119 -100c77 0 157 46 157 135c0 43 -31 78 -70 100zM227 427c16 -16 40 -31 72 -45c69 21 143 69 143 144c0 51 -45 80 -106 80c-67 0 -133 -37 -133 -110c0 -29 8 -52 24 -69zM133 325
c24 11 49 20 74 27c-57 24 -106 59 -106 135c0 136 134 190 244 190c84 0 203 -31 203 -143c0 -102 -83 -156 -171 -188c62 -27 120 -71 120 -147c0 -148 -140 -210 -275 -210c-91 0 -212 33 -212 158c0 88 54 146 123 178z" />
    <glyph glyph-name="nine" unicode="9" 
d="M188 345c19 -19 46 -29 82 -29c91 0 156 70 156 160c0 60 -30 125 -112 125c-103 0 -153 -86 -153 -179c0 -31 9 -57 27 -77zM10 19l26 77c35 -19 88 -31 131 -31c147 0 209 129 236 254c-39 -49 -103 -76 -168 -76c-111 0 -176 75 -176 169c0 163 111 265 260 265
c151 0 206 -101 206 -210c0 -214 -98 -478 -362 -478c-52 0 -112 11 -153 30z" />
    <glyph glyph-name="colon" unicode=":" horiz-adv-x="281" 
d="M210 398h-106l22 102h105zM127 0h-106l22 103h106z" />
    <glyph glyph-name="semicolon" unicode=";" horiz-adv-x="281" 
d="M210 398h-106l22 102h105zM28 -128h-75l107 231h101z" />
    <glyph glyph-name="less" unicode="&#x3c;" 
d="M536 5l-511 202v84l511 204v-85l-417 -161l417 -160v-84z" />
    <glyph glyph-name="equal" unicode="=" 
d="M536 310h-511v78h511v-78zM536 111h-511v77h511v-77z" />
    <glyph glyph-name="greater" unicode="&#x3e;" 
d="M548 207l-510 -202v84l416 160l-416 161v85l510 -204v-84z" />
    <glyph glyph-name="question" unicode="?" horiz-adv-x="427" 
d="M154 0h-106l21 103h106zM183 179h-89l5 29c28 174 214 195 214 312c0 51 -45 76 -94 76c-47 0 -99 -15 -138 -32l14 82c33 12 83 31 159 31c83 0 167 -46 167 -132c0 -176 -204 -186 -232 -334z" />
    <glyph glyph-name="at" unicode="@" horiz-adv-x="1055" 
d="M611 246l47 185c-19 5 -33 7 -56 7c-135 0 -233 -146 -233 -274c0 -65 29 -103 84 -103c75 0 132 85 158 185zM824 -94l9 -77c-99 -37 -185 -56 -305 -56c-285 0 -471 173 -471 438c0 304 223 520 514 520c231 0 413 -142 413 -399c0 -197 -118 -343 -259 -343
c-67 0 -117 36 -122 117c-45 -78 -103 -117 -175 -117c-89 0 -149 62 -149 167c0 191 141 354 336 354c44 0 95 -7 142 -22l-75 -314c-4 -16 -5 -35 -5 -48c0 -43 21 -70 62 -70c84 0 162 111 162 273c0 222 -151 329 -338 329c-235 0 -420 -186 -420 -447
c0 -224 151 -365 396 -365c103 0 187 18 285 60z" />
    <glyph glyph-name="A" unicode="A" horiz-adv-x="648" 
d="M47 0h-111l397 667h136l117 -667h-111l-26 176h-300zM386 590l-195 -335h249z" />
    <glyph glyph-name="B" unicode="B" horiz-adv-x="567" 
d="M206 0h-195l142 667h213c88 0 181 -41 181 -138c0 -96 -62 -164 -161 -183c75 -17 114 -64 114 -133c0 -169 -158 -213 -294 -213zM240 595l-44 -213h72c88 0 171 33 171 133c0 61 -61 80 -112 80h-87zM180 309l-50 -236h70c96 0 191 28 191 145c0 79 -90 91 -150 91h-61
z" />
    <glyph glyph-name="C" unicode="C" horiz-adv-x="572" 
d="M497 102l-11 -85c-51 -21 -114 -28 -166 -28c-190 0 -283 138 -283 272c0 267 186 416 413 416c76 0 131 -15 163 -27l-29 -86c-34 20 -79 30 -136 30c-181 0 -300 -137 -300 -317c0 -116 65 -205 199 -205c51 0 101 9 150 30z" />
    <glyph glyph-name="D" unicode="D" horiz-adv-x="666" 
d="M243 588l-107 -509h54c217 0 327 122 327 322c0 129 -70 187 -197 187h-77zM216 0h-205l142 667h195c165 0 280 -88 280 -255c0 -248 -151 -412 -412 -412z" />
    <glyph glyph-name="E" unicode="E" horiz-adv-x="520" 
d="M399 0h-388l142 667h378l-17 -79h-271l-44 -208h258l-18 -78h-256l-48 -223h281z" />
    <glyph glyph-name="F" unicode="F" horiz-adv-x="489" 
d="M119 0h-108l142 667h370l-18 -79h-262l-45 -211h252l-17 -79h-251z" />
    <glyph glyph-name="G" unicode="G" horiz-adv-x="661" 
d="M620 369l-72 -340c-56 -24 -133 -40 -200 -40c-200 0 -311 118 -311 274c0 268 209 414 437 414c56 0 122 -11 173 -32l-26 -85c-45 25 -102 36 -147 36c-188 0 -326 -135 -326 -326c0 -108 66 -200 211 -200c37 0 72 7 103 18l44 205h-145l17 76h242z" />
    <glyph glyph-name="H" unicode="H" horiz-adv-x="672" 
d="M118 0h-107l142 667h107l-59 -280h294l59 280h108l-142 -667h-108l64 299h-294z" />
    <glyph glyph-name="I" unicode="I" horiz-adv-x="271" 
d="M119 0h-108l142 667h108z" />
    <glyph glyph-name="J" unicode="J" horiz-adv-x="336" 
d="M-68 3l20 83c19 -9 37 -11 57 -11c77 0 104 64 117 124l100 468h108l-103 -486c-25 -119 -94 -192 -215 -192c-36 0 -57 3 -84 14z" />
    <glyph glyph-name="K" unicode="K" horiz-adv-x="593" 
d="M117 0h-106l142 667h106l-63 -295l322 295h136l-366 -320l242 -347h-128l-215 329z" />
    <glyph glyph-name="L" unicode="L" horiz-adv-x="476" 
d="M403 0h-392l142 667h107l-123 -579h285z" />
    <glyph glyph-name="M" unicode="M" horiz-adv-x="890" 
d="M108 0h-97l142 667h163l83 -548l318 548h163l-142 -667h-101l126 590l-341 -590h-99l-90 591z" />
    <glyph glyph-name="N" unicode="N" horiz-adv-x="698" 
d="M108 0h-97l142 667h152l166 -573l119 573h98l-143 -667h-152l-164 572z" />
    <glyph glyph-name="O" unicode="O" horiz-adv-x="698" 
d="M168 12c-94 48 -131 141 -131 227c0 220 132 438 375 438c181 0 249 -145 249 -257c0 -227 -122 -431 -378 -431c-45 0 -84 8 -115 23zM183 119c24 -31 60 -50 111 -50c177 0 256 190 256 350c0 88 -40 178 -151 178c-170 0 -251 -202 -251 -356c0 -47 11 -90 35 -122z
" />
    <glyph glyph-name="P" unicode="P" horiz-adv-x="551" 
d="M242 590l-52 -245h49c108 0 203 19 203 147c0 76 -69 98 -132 98h-68zM118 0h-107l142 667h179c109 0 219 -39 219 -167c0 -187 -164 -233 -288 -233h-89z" />
    <glyph glyph-name="Q" unicode="Q" horiz-adv-x="698" 
d="M591 -128h-128l-90 132c-27 -10 -58 -15 -91 -15c-177 0 -245 135 -245 250c0 223 135 438 375 438c184 0 249 -145 249 -257c0 -155 -58 -310 -191 -385zM183 119c24 -31 60 -50 111 -50c178 0 256 191 256 350c0 88 -40 178 -152 178c-171 0 -250 -202 -250 -356
c0 -47 11 -90 35 -122z" />
    <glyph glyph-name="R" unicode="R" horiz-adv-x="566" 
d="M241 591l-45 -219h66c73 0 177 14 177 130c0 65 -56 89 -139 89h-59zM118 0h-107l141 667h186c90 0 211 -25 211 -142c0 -135 -113 -181 -192 -192c51 -11 63 -43 74 -90l57 -243h-115l-42 207c-14 62 -27 88 -102 88h-49z" />
    <glyph glyph-name="S" unicode="S" horiz-adv-x="499" 
d="M-16 18l28 87c49 -23 98 -37 158 -37c67 0 146 30 146 113c0 137 -233 137 -233 298c0 139 122 198 255 198c55 0 119 -9 159 -26l-27 -82c-32 16 -93 30 -136 30c-67 0 -140 -25 -140 -102c0 -111 234 -122 234 -307c0 -140 -124 -201 -264 -201c-52 0 -121 8 -180 29z
" />
    <glyph glyph-name="T" unicode="T" horiz-adv-x="506" 
d="M236 0h-108l124 579h-201l18 88h509l-19 -88h-200z" />
    <glyph glyph-name="U" unicode="U" horiz-adv-x="662" 
d="M249 667l-91 -426c-4 -20 -7 -41 -7 -61c0 -62 38 -108 131 -108c101 0 159 72 180 170l90 425h108l-90 -424c-39 -181 -146 -254 -307 -254c-112 0 -219 51 -219 180c0 23 1 46 6 71l92 427h107z" />
    <glyph glyph-name="V" unicode="V" horiz-adv-x="597" 
d="M285 0h-126l-100 667h113l71 -562l307 562h115z" />
    <glyph glyph-name="W" unicode="W" horiz-adv-x="921" 
d="M234 0h-125l-42 667h107l25 -563l273 563h116l33 -563l266 563h100l-325 -667h-123l-33 564z" />
    <glyph glyph-name="X" unicode="X" horiz-adv-x="624" 
d="M58 0h-123l320 352l-155 315h119l115 -259l214 259h123l-291 -318l165 -349h-121l-122 291z" />
    <glyph glyph-name="Y" unicode="Y" horiz-adv-x="578" 
d="M268 0h-107l56 266l-158 401h120l112 -318l249 318h115l-330 -401z" />
    <glyph glyph-name="Z" unicode="Z" horiz-adv-x="520" 
d="M427 0h-465l18 86l443 499h-326l18 82h445l-19 -86l-438 -499h341z" />
    <glyph glyph-name="bracketleft" unicode="[" horiz-adv-x="287" 
d="M189 -128h-187l180 849h187l-14 -66h-100l-152 -716h100z" />
    <glyph glyph-name="backslash" unicode="\" horiz-adv-x="338" 
d="M306 0h-83l-191 667h83z" />
    <glyph glyph-name="bracketright" unicode="]" horiz-adv-x="287" 
d="M90 -128h-187l14 67h100l152 716h-100l14 66h187z" />
    <glyph glyph-name="asciicircum" unicode="^" 
d="M157 245h-87l172 422h77l172 -422h-87l-125 326z" />
    <glyph glyph-name="underscore" unicode="_" horiz-adv-x="500" 
d="M399 -125h-489l11 50h489z" />
    <glyph glyph-name="grave" unicode="`" horiz-adv-x="243" 
d="M223 584h-75l-73 136h107z" />
    <glyph glyph-name="a" unicode="a" horiz-adv-x="570" 
d="M394 281l31 146c-16 6 -34 9 -54 9c-137 0 -241 -137 -241 -276c0 -61 29 -97 82 -97c78 0 161 120 182 218zM447 0h-94c1 27 7 75 16 127c-48 -89 -119 -138 -199 -138c-92 0 -145 63 -145 163c0 188 145 358 361 358c56 0 104 -8 152 -20l-58 -270
c-20 -93 -33 -176 -33 -220z" />
    <glyph glyph-name="b" unicode="b" horiz-adv-x="565" 
d="M154 226l-32 -155c27 -7 49 -8 73 -8c129 0 216 126 216 274c0 61 -28 99 -75 99c-75 0 -158 -101 -182 -210zM260 721l-72 -332c43 77 106 121 186 121c92 0 142 -68 142 -164c0 -197 -128 -357 -324 -357c-60 0 -122 10 -182 26l150 706h100z" />
    <glyph glyph-name="c" unicode="c" horiz-adv-x="468" 
d="M377 85l-11 -78c-36 -11 -76 -18 -120 -18c-109 0 -217 45 -217 186c0 184 125 335 318 335c45 0 85 -7 120 -20l-21 -78c-31 17 -65 24 -101 24c-131 0 -210 -125 -210 -239c0 -104 63 -134 139 -134c32 0 71 7 103 22z" />
    <glyph glyph-name="d" unicode="d" horiz-adv-x="578" 
d="M448 0h-94c1 27 7 75 16 127c-51 -92 -120 -138 -200 -138c-92 0 -145 63 -145 163c0 188 143 358 346 358c19 0 52 -3 69 -8l46 219h101l-106 -498c-20 -93 -33 -179 -33 -223zM394 281l31 146c-17 8 -40 9 -59 9c-134 0 -236 -137 -236 -276c0 -61 29 -97 82 -97
c79 0 161 120 182 218z" />
    <glyph glyph-name="e" unicode="e" horiz-adv-x="509" 
d="M385 98l1 -72c-51 -27 -113 -37 -173 -37c-104 0 -189 50 -189 165c0 193 148 356 314 356c74 0 149 -30 149 -113c0 -161 -223 -177 -351 -177c-7 -17 -9 -41 -9 -60c0 -71 46 -103 114 -103c48 0 103 14 144 41zM175 338c-11 -19 -20 -37 -27 -55c101 0 245 12 245 107
c0 41 -31 54 -68 54c-64 0 -115 -50 -150 -106z" />
    <glyph glyph-name="f" unicode="f" horiz-adv-x="322" 
d="M-120 -220l19 73c13 -3 26 -4 37 -4c66 0 88 71 102 136l93 442h-94l16 73h93l13 59c19 92 68 172 187 172c25 0 50 -3 69 -10l-21 -70c-15 5 -30 8 -46 8c-60 0 -79 -60 -89 -107l-11 -52h109l-16 -73h-108l-95 -449c-19 -92 -59 -205 -193 -205c-25 0 -46 2 -65 7z" />
    <glyph glyph-name="g" unicode="g" horiz-adv-x="573" 
d="M397 281l31 146c-16 6 -34 9 -54 9c-137 0 -241 -137 -241 -270c0 -60 29 -95 82 -95c78 0 158 98 182 210zM-25 -200l22 80c44 -24 94 -33 139 -33c123 0 178 68 202 169l22 94c-49 -72 -107 -110 -187 -110c-92 0 -145 62 -145 158c0 185 145 352 361 352
c56 0 104 -8 152 -20l-94 -439c-40 -184 -109 -278 -314 -278c-59 0 -114 12 -158 27z" />
    <glyph glyph-name="h" unicode="h" horiz-adv-x="556" 
d="M108 0h-101l153 721h100l-66 -303c47 59 100 92 173 92c77 0 135 -43 135 -122c0 -29 -3 -38 -11 -82l-65 -306h-101l63 298c4 21 7 42 7 61c0 44 -21 77 -76 77c-93 0 -133 -78 -152 -161z" />
    <glyph glyph-name="i" unicode="i" horiz-adv-x="243" 
d="M235 603h-103l20 97h103zM108 0h-101l105 500h101z" />
    <glyph glyph-name="j" unicode="j" horiz-adv-x="249" 
d="M239 603h-103l19 97h103zM-136 -219l21 74c10 -4 21 -6 34 -6c49 0 70 46 78 88l119 563h101l-119 -572c-19 -86 -62 -155 -159 -155c-25 0 -51 1 -75 8z" />
    <glyph glyph-name="k" unicode="k" horiz-adv-x="494" 
d="M108 0h-101l151 721h101l-90 -429l228 208h125l-259 -225l171 -275h-118l-153 266z" />
    <glyph glyph-name="l" unicode="l" horiz-adv-x="252" 
d="M108 0h-101l153 721h101z" />
    <glyph glyph-name="m" unicode="m" horiz-adv-x="839" 
d="M108 0h-101l81 385c8 39 15 76 19 115h95l-15 -87c44 64 97 97 176 97c63 0 114 -39 117 -104c39 61 100 104 175 104c77 0 131 -42 131 -122c0 -19 -3 -36 -7 -55l-70 -333h-102l68 325c3 15 5 30 5 44c0 45 -23 67 -69 67c-80 0 -128 -84 -144 -154l-59 -282h-101
l68 325c3 15 5 30 5 44c0 47 -24 67 -71 67c-80 0 -129 -86 -142 -154z" />
    <glyph glyph-name="n" unicode="n" horiz-adv-x="554" 
d="M108 0h-101l81 385c8 39 15 76 19 115h94l-15 -89c48 65 96 99 179 99c81 0 135 -45 135 -126c0 -19 -3 -38 -7 -59l-68 -325h-101l63 302c4 19 8 38 8 57c0 43 -21 77 -78 77c-89 0 -133 -77 -149 -154z" />
    <glyph glyph-name="o" unicode="o" horiz-adv-x="577" 
d="M154 98c16 -21 42 -35 85 -35c115 0 186 148 186 249c0 71 -24 124 -110 124c-118 0 -181 -147 -181 -251c0 -35 5 -64 20 -87zM86 33c-35 29 -57 75 -57 136c0 183 111 341 305 341c107 0 196 -62 196 -179c0 -180 -112 -342 -303 -342c-56 0 -105 15 -141 44z" />
    <glyph glyph-name="p" unicode="p" horiz-adv-x="565" 
d="M154 226l-32 -155c27 -7 49 -8 73 -8c129 0 216 126 216 274c0 61 -28 99 -75 99c-75 0 -158 -101 -182 -210zM62 -216h-102l116 543c15 69 24 114 32 173h96l-23 -119c43 84 110 129 193 129c92 0 142 -68 142 -164c0 -197 -128 -357 -324 -357c-43 0 -66 3 -86 7z" />
    <glyph glyph-name="q" unicode="q" horiz-adv-x="570" 
d="M394 281l31 146c-16 6 -34 9 -54 9c-137 0 -241 -137 -241 -276c0 -61 29 -97 82 -97c78 0 161 120 182 218zM387 -216h-101l70 322c-51 -75 -106 -117 -186 -117c-92 0 -145 63 -145 163c0 188 145 358 361 358c56 0 104 -8 152 -20z" />
    <glyph glyph-name="r" unicode="r" horiz-adv-x="355" 
d="M108 0h-101l82 385c8 39 16 76 20 115h94l-18 -100c29 56 91 110 158 110c15 0 27 0 40 -4l-25 -96c-11 5 -24 7 -39 7c-94 0 -145 -101 -161 -182z" />
    <glyph glyph-name="s" unicode="s" horiz-adv-x="414" 
d="M-13 13l24 81c37 -21 77 -32 121 -32c50 0 111 16 111 80c0 89 -183 90 -183 220c0 112 102 148 195 148c43 0 94 -8 135 -23l-24 -71c-35 17 -71 24 -110 24c-42 0 -98 -14 -98 -67c0 -89 186 -88 186 -222c0 -119 -112 -162 -213 -162c-51 0 -97 7 -144 24z" />
    <glyph glyph-name="t" unicode="t" horiz-adv-x="322" 
d="M256 75l-10 -70c-25 -11 -54 -16 -91 -16c-59 0 -110 27 -110 99c0 21 4 48 9 73l57 266h-91l16 73h91l22 108l109 33l-30 -141h110l-15 -73h-110l-57 -265c-4 -19 -7 -39 -7 -54c0 -32 20 -46 48 -46c19 0 38 4 59 13z" />
    <glyph glyph-name="u" unicode="u" horiz-adv-x="553" 
d="M423 0h-94l14 90c-44 -63 -93 -101 -176 -101c-81 0 -136 47 -136 128c0 19 2 38 6 58l69 327h101l-63 -303c-4 -19 -8 -38 -8 -57c0 -44 21 -79 78 -79c88 0 132 80 148 156l59 283h102l-81 -386c-8 -39 -15 -77 -19 -116z" />
    <glyph glyph-name="v" unicode="v" horiz-adv-x="474" 
d="M236 0h-130l-59 500h105l33 -419l208 419h107z" />
    <glyph glyph-name="w" unicode="w" horiz-adv-x="796" 
d="M219 0h-122l-48 500h103l28 -415l196 415h118l30 -415l195 415h99l-250 -500h-122l-29 416z" />
    <glyph glyph-name="x" unicode="x" horiz-adv-x="479" 
d="M58 0h-110l228 264l-108 236h109l71 -188l138 188h111l-208 -242l116 -258h-111l-73 207z" />
    <glyph glyph-name="y" unicode="y" horiz-adv-x="475" 
d="M-72 -217l22 75c15 -5 31 -9 46 -9c48 0 81 38 94 72l33 66l-72 513h106l40 -413l201 413h105l-306 -573c-48 -91 -99 -154 -194 -154c-29 0 -47 3 -75 10z" />
    <glyph glyph-name="z" unicode="z" horiz-adv-x="452" 
d="M355 0h-383l17 79l341 348h-257l15 73h372l-17 -81l-339 -346h267z" />
    <glyph glyph-name="braceleft" unicode="{" horiz-adv-x="289" 
d="M191 -128h-72c-53 0 -82 39 -82 90c0 11 1 21 4 32l34 161c3 17 5 32 5 46c0 35 -14 66 -53 66l12 61c56 0 88 66 98 113l33 159c14 60 57 121 130 121h71l-12 -59h-41c-40 0 -57 -48 -65 -81l-33 -157c-14 -57 -56 -110 -114 -127c43 -11 63 -50 63 -93
c0 -12 0 -23 -3 -35l-34 -155c-3 -13 -5 -25 -5 -40c0 -33 12 -43 35 -43h41z" />
    <glyph glyph-name="bar" unicode="|" horiz-adv-x="215" 
d="M152 -216h-87v991h87v-991z" />
    <glyph glyph-name="braceright" unicode="}" horiz-adv-x="289" 
d="M-11 -128h-72l12 59h41c42 0 58 51 66 83l32 155c11 57 57 113 114 128c-43 11 -63 51 -63 94c0 11 1 22 4 33l33 157c3 13 4 27 4 40c0 20 -4 41 -35 41h-41l13 59h71c53 0 82 -37 82 -88c0 -11 0 -22 -3 -33l-34 -159c-3 -15 -5 -30 -5 -46c0 -35 14 -67 54 -67
l-14 -61c-56 0 -85 -65 -95 -112l-35 -161c-13 -61 -62 -122 -129 -122z" />
    <glyph glyph-name="asciitilde" unicode="~" 
d="M55 171h-56c8 72 45 154 130 154c89 0 197 -71 276 -71c45 0 66 36 74 75h54c-5 -72 -42 -153 -127 -153c-90 0 -197 70 -277 70c-43 0 -69 -35 -74 -75z" />
    <glyph glyph-name="uni00A0" unicode="&#xa0;" horiz-adv-x="281" 
 />
    <glyph glyph-name="Agrave" unicode="&#xc0;" horiz-adv-x="648" 
d="M47 0h-111l397 667h136l117 -667h-111l-26 176h-300zM386 590l-195 -335h249zM453 724h-75l-73 136h107z" />
    <glyph glyph-name="Aacute" unicode="&#xc1;" horiz-adv-x="648" 
d="M47 0h-111l397 667h136l117 -667h-111l-26 176h-300zM386 590l-195 -335h249zM438 724h-76l100 136h106z" />
    <glyph glyph-name="Acircumflex" unicode="&#xc2;" horiz-adv-x="648" 
d="M47 0h-111l397 667h136l117 -667h-111l-26 176h-300zM386 590l-195 -335h249zM337 724h-76l130 136h92l72 -136h-76l-52 92z" />
    <glyph glyph-name="Atilde" unicode="&#xc3;" horiz-adv-x="648" 
d="M47 0h-111l397 667h136l117 -667h-111l-26 176h-300zM386 590l-195 -335h249zM311 734h-55c14 52 55 108 116 108c48 0 84 -40 116 -40c24 0 41 23 48 43h54c-13 -48 -58 -107 -114 -107c-54 0 -74 39 -114 39c-23 0 -47 -23 -51 -43z" />
    <glyph glyph-name="Adieresis" unicode="&#xc4;" horiz-adv-x="648" 
d="M47 0h-111l397 667h136l117 -667h-111l-26 176h-300zM386 590l-195 -335h249zM364 743h-83l21 97h83zM533 743h-83l21 97h82z" />
    <glyph glyph-name="Amacron" unicode="&#x100;" horiz-adv-x="648" 
d="M545 763h-266l12 59h267zM47 0h-111l397 667h136l117 -667h-111l-26 176h-300zM386 590l-195 -335h249z" />
    <glyph glyph-name="Abreve" unicode="&#x102;" horiz-adv-x="648" 
d="M306 853h52c-1 -2 -1 -5 -1 -10c0 -37 27 -58 63 -58c41 0 79 28 91 68h52c-16 -73 -82 -124 -155 -124c-64 0 -105 35 -105 99c0 9 1 17 3 25zM47 0h-111l397 667h136l117 -667h-111l-26 176h-300zM386 590l-195 -335h249z" />
    <glyph glyph-name="Aring" unicode="&#xc5;" horiz-adv-x="648" 
d="M47 0h-111l397 667h136l117 -667h-111l-26 176h-300zM386 590l-195 -335h249zM360 792c0 -32 24 -56 55 -56s58 24 58 56c0 31 -24 56 -55 56s-58 -25 -58 -56zM414 696c-53 0 -94 40 -94 96c0 53 46 96 99 96s94 -40 94 -96c0 -53 -46 -96 -99 -96z" />
    <glyph glyph-name="Aogonek" unicode="&#x104;" horiz-adv-x="648" 
d="M386 590l-195 -335h249zM47 0h-111l397 667h136l117 -667h-43c-65 -43 -83 -71 -83 -102c0 -27 21 -38 44 -38c20 0 32 4 59 16l9 -40c-28 -13 -52 -21 -87 -21c-60 0 -92 31 -92 71c0 49 39 85 98 114h-16l-26 176h-300z" />
    <glyph glyph-name="AE" unicode="&#xc6;" horiz-adv-x="895" 
d="M47 0h-116l544 667h431l-17 -79h-271l-44 -208h258l-18 -78h-256l-48 -223h281l-17 -79h-378l36 174h-244zM525 600l-276 -345h200z" />
    <glyph glyph-name="Cacute" unicode="&#x106;" horiz-adv-x="572" 
d="M471 724h-76l100 136h106zM497 102l-11 -85c-51 -21 -114 -28 -166 -28c-190 0 -283 138 -283 272c0 267 186 416 413 416c76 0 131 -15 163 -27l-29 -86c-34 20 -79 30 -136 30c-181 0 -300 -137 -300 -317c0 -116 65 -205 199 -205c51 0 101 9 150 30z" />
    <glyph glyph-name="Ccircumflex" unicode="&#x108;" horiz-adv-x="572" 
d="M497 102l-11 -85c-51 -21 -114 -28 -166 -28c-190 0 -283 138 -283 272c0 267 186 416 413 416c76 0 131 -15 163 -27l-29 -86c-34 20 -79 30 -136 30c-181 0 -300 -137 -300 -317c0 -116 65 -205 199 -205c51 0 101 9 150 30zM372 724h-76l130 136h92l72 -136h-76
l-52 92z" />
    <glyph glyph-name="Ccaron" unicode="&#x10c;" horiz-adv-x="572" 
d="M495 724h-92l-73 136h77l51 -92l91 92h76zM497 102l-11 -85c-51 -21 -114 -28 -166 -28c-190 0 -283 138 -283 272c0 267 186 416 413 416c76 0 131 -15 163 -27l-29 -86c-34 20 -79 30 -136 30c-181 0 -300 -137 -300 -317c0 -116 65 -205 199 -205c51 0 101 9 150 30z
" />
    <glyph glyph-name="Cdotaccent" unicode="&#x10a;" horiz-adv-x="572" 
d="M497 102l-11 -85c-51 -21 -114 -28 -166 -28c-190 0 -283 138 -283 272c0 267 186 416 413 416c76 0 131 -15 163 -27l-29 -86c-34 20 -79 30 -136 30c-181 0 -300 -137 -300 -317c0 -116 65 -205 199 -205c51 0 101 9 150 30zM500 743h-103l20 97h103z" />
    <glyph glyph-name="Ccedilla" unicode="&#xc7;" horiz-adv-x="572" 
d="M177 -165l23 35c23 -11 43 -17 68 -17c23 0 59 12 59 40c0 16 -15 25 -30 25c-16 0 -31 -3 -44 -8l-10 20l53 60c-175 11 -259 142 -259 271c0 267 186 416 413 416c76 0 131 -15 163 -27l-29 -86c-34 20 -79 30 -136 30c-181 0 -300 -137 -300 -317
c0 -116 65 -205 199 -205c51 0 101 9 150 30l-11 -85c-43 -19 -99 -24 -146 -27l-39 -42c12 4 26 4 39 4c31 0 55 -18 55 -49c0 -62 -72 -88 -124 -88c-32 0 -65 5 -94 20z" />
    <glyph glyph-name="Dcaron" unicode="&#x10e;" horiz-adv-x="666" 
d="M417 724h-92l-73 136h77l51 -92l91 92h76zM243 588l-107 -509h54c217 0 327 122 327 322c0 129 -70 187 -197 187h-77zM216 0h-205l142 667h195c165 0 280 -88 280 -255c0 -248 -151 -412 -412 -412z" />
    <glyph glyph-name="Dcroat" unicode="&#x110;" horiz-adv-x="666" 
d="M183 304l-47 -225h54c217 0 327 122 327 322c0 129 -70 187 -197 187h-77l-45 -214h161l-15 -70h-161zM216 0h-205l64 304h-75l14 70h76l63 293h195c165 0 280 -88 280 -255c0 -248 -151 -412 -412 -412z" />
    <glyph glyph-name="Eth" unicode="&#xd0;" horiz-adv-x="666" 
d="M183 304l-47 -225h54c217 0 327 122 327 322c0 129 -70 187 -197 187h-77l-45 -214h161l-15 -70h-161zM216 0h-205l64 304h-75l14 70h76l63 293h195c165 0 280 -88 280 -255c0 -248 -151 -412 -412 -412z" />
    <glyph glyph-name="Egrave" unicode="&#xc8;" horiz-adv-x="520" 
d="M399 0h-388l142 667h378l-17 -79h-271l-44 -208h258l-18 -78h-256l-48 -223h281zM412 724h-75l-73 136h107z" />
    <glyph glyph-name="Eacute" unicode="&#xc9;" horiz-adv-x="520" 
d="M399 0h-388l142 667h378l-17 -79h-271l-44 -208h258l-18 -78h-256l-48 -223h281zM374 724h-76l100 136h106z" />
    <glyph glyph-name="Ecircumflex" unicode="&#xca;" horiz-adv-x="520" 
d="M399 0h-388l142 667h378l-17 -79h-271l-44 -208h258l-18 -78h-256l-48 -223h281zM283 724h-76l130 136h92l72 -136h-76l-52 92z" />
    <glyph glyph-name="Ecaron" unicode="&#x11a;" horiz-adv-x="520" 
d="M393 724h-92l-73 136h77l51 -92l91 92h76zM399 0h-388l142 667h378l-17 -79h-271l-44 -208h258l-18 -78h-256l-48 -223h281z" />
    <glyph glyph-name="Edieresis" unicode="&#xcb;" horiz-adv-x="520" 
d="M399 0h-388l142 667h378l-17 -79h-271l-44 -208h258l-18 -78h-256l-48 -223h281zM311 743h-83l21 97h83zM480 743h-83l21 97h82z" />
    <glyph glyph-name="Emacron" unicode="&#x112;" horiz-adv-x="520" 
d="M487 763h-266l12 59h267zM399 0h-388l142 667h378l-17 -79h-271l-44 -208h258l-18 -78h-256l-48 -223h281z" />
    <glyph glyph-name="Ebreve" unicode="&#x114;" horiz-adv-x="520" 
d="M399 0h-388l142 667h378l-17 -79h-271l-44 -208h258l-18 -78h-256l-48 -223h281zM245 853h52c-1 -2 -1 -5 -1 -10c0 -37 27 -58 63 -58c41 0 79 28 91 68h52c-16 -73 -82 -124 -155 -124c-64 0 -105 35 -105 99c0 9 1 17 3 25z" />
    <glyph glyph-name="Edotaccent" unicode="&#x116;" horiz-adv-x="520" 
d="M401 743h-103l20 97h103zM399 0h-388l142 667h378l-17 -79h-271l-44 -208h258l-18 -78h-256l-48 -223h281z" />
    <glyph glyph-name="Eogonek" unicode="&#x118;" horiz-adv-x="520" 
d="M301 0h-290l142 667h378l-17 -79h-271l-44 -208h258l-18 -78h-256l-48 -223h281l-17 -79h-46c-65 -43 -83 -71 -83 -102c0 -27 21 -38 44 -38c20 0 32 4 59 16l9 -40c-28 -13 -52 -21 -87 -21c-60 0 -92 31 -92 71c0 49 39 85 98 114z" />
    <glyph glyph-name="Gcircumflex" unicode="&#x11c;" horiz-adv-x="661" 
d="M620 369l-72 -340c-56 -24 -133 -40 -200 -40c-200 0 -311 118 -311 274c0 268 209 414 437 414c56 0 122 -11 173 -32l-26 -85c-45 25 -102 36 -147 36c-188 0 -326 -135 -326 -326c0 -108 66 -200 211 -200c37 0 72 7 103 18l44 205h-145l17 76h242zM383 724h-76
l130 136h92l72 -136h-76l-52 92z" />
    <glyph glyph-name="Gbreve" unicode="&#x11e;" horiz-adv-x="661" 
d="M356 853h52c-1 -2 -1 -5 -1 -10c0 -37 27 -58 63 -58c41 0 79 28 91 68h52c-16 -73 -82 -124 -155 -124c-64 0 -105 35 -105 99c0 9 1 17 3 25zM620 369l-72 -340c-56 -24 -133 -40 -200 -40c-200 0 -311 118 -311 274c0 268 209 414 437 414c56 0 122 -11 173 -32
l-26 -85c-45 25 -102 36 -147 36c-188 0 -326 -135 -326 -326c0 -108 66 -200 211 -200c37 0 72 7 103 18l44 205h-145l17 76h242z" />
    <glyph glyph-name="Gdotaccent" unicode="&#x120;" horiz-adv-x="661" 
d="M620 369l-72 -340c-56 -24 -133 -40 -200 -40c-200 0 -311 118 -311 274c0 268 209 414 437 414c56 0 122 -11 173 -32l-26 -85c-45 25 -102 36 -147 36c-188 0 -326 -135 -326 -326c0 -108 66 -200 211 -200c37 0 72 7 103 18l44 205h-145l17 76h242zM514 743h-103
l20 97h103z" />
    <glyph glyph-name="Gcommaaccent" unicode="&#x122;" horiz-adv-x="661" 
d="M277 -227h-63l59 159h87zM620 369l-72 -340c-56 -24 -133 -40 -200 -40c-200 0 -311 118 -311 274c0 268 209 414 437 414c56 0 122 -11 173 -32l-26 -85c-45 25 -102 36 -147 36c-188 0 -326 -135 -326 -326c0 -108 66 -200 211 -200c37 0 72 7 103 18l44 205h-145
l17 76h242z" />
    <glyph glyph-name="Hcircumflex" unicode="&#x124;" horiz-adv-x="672" 
d="M118 0h-107l142 667h107l-59 -280h294l59 280h108l-142 -667h-108l64 299h-294zM337 724h-76l130 136h92l72 -136h-76l-52 92z" />
    <glyph glyph-name="Hbar" unicode="&#x126;" horiz-adv-x="672" 
d="M217 464l-24 -111h294l24 111h-294zM118 0h-107l142 667h107l-28 -131h294l28 131h108l-142 -667h-108l57 267h-294z" />
    <glyph glyph-name="Igrave" unicode="&#xcc;" horiz-adv-x="271" 
d="M119 0h-108l142 667h108zM265 724h-75l-73 136h107z" />
    <glyph glyph-name="Iacute" unicode="&#xcd;" horiz-adv-x="271" 
d="M119 0h-108l142 667h108zM246 724h-76l100 136h106z" />
    <glyph glyph-name="Icircumflex" unicode="&#xce;" horiz-adv-x="271" 
d="M119 0h-108l142 667h108zM146 724h-76l130 136h92l72 -136h-76l-52 92z" />
    <glyph glyph-name="Itilde" unicode="&#x128;" horiz-adv-x="271" 
d="M119 0h-108l142 667h108zM118 735h-55c14 52 55 108 116 108c48 0 84 -40 116 -40c24 0 41 23 48 43h54c-13 -48 -58 -107 -114 -107c-54 0 -74 39 -114 39c-23 0 -47 -23 -51 -43z" />
    <glyph glyph-name="Idieresis" unicode="&#xcf;" horiz-adv-x="271" 
d="M119 0h-108l142 667h108zM178 743h-83l21 97h83zM347 743h-83l21 97h82z" />
    <glyph glyph-name="Imacron" unicode="&#x12a;" horiz-adv-x="271" 
d="M358 763h-266l12 59h267zM119 0h-108l142 667h108z" />
    <glyph glyph-name="Idotaccent" unicode="&#x130;" horiz-adv-x="271" 
d="M273 743h-103l20 97h103zM119 0h-108l142 667h108z" />
    <glyph glyph-name="Iogonek" unicode="&#x12e;" horiz-adv-x="271" 
d="M123 -127l9 -40c-27 -12 -47 -18 -80 -18c-60 0 -92 31 -92 71c0 49 39 85 98 114h-47l142 667h108l-142 -667h-9c-65 -43 -83 -71 -83 -102c0 -27 19 -38 42 -38c13 0 31 4 54 13z" />
    <glyph glyph-name="Jcircumflex" unicode="&#x134;" horiz-adv-x="336" 
d="M-68 3l20 83c19 -9 37 -11 57 -11c77 0 104 64 117 124l100 468h108l-103 -486c-25 -119 -94 -192 -215 -192c-36 0 -57 3 -84 14zM209 724h-76l130 136h92l72 -136h-76l-52 92z" />
    <glyph glyph-name="Kcommaaccent" unicode="&#x136;" horiz-adv-x="593" 
d="M217 -227h-63l59 159h87zM117 0h-106l142 667h106l-63 -295l322 295h136l-366 -320l242 -347h-128l-215 329z" />
    <glyph glyph-name="Lacute" unicode="&#x139;" horiz-adv-x="476" 
d="M258 724h-76l100 136h106zM403 0h-392l142 667h107l-123 -579h285z" />
    <glyph glyph-name="Lcaron" unicode="&#x13d;" horiz-adv-x="476" 
d="M391 561h-70l54 159h93zM403 0h-392l142 667h107l-123 -579h285z" />
    <glyph glyph-name="Lcommaaccent" unicode="&#x13b;" horiz-adv-x="476" 
d="M174 -227h-63l59 159h87zM403 0h-392l142 667h107l-123 -579h285z" />
    <glyph glyph-name="Lslash" unicode="&#x141;" horiz-adv-x="476" 
d="M403 0h-392l60 286l-89 -62l16 76l89 62l66 305h107l-51 -240l166 118l-17 -78l-166 -118l-55 -261h285z" />
    <glyph glyph-name="Ldot" unicode="&#x13f;" horiz-adv-x="476" 
d="M403 0h-392l142 667h107l-123 -579h285zM411 298h-103l20 97h103z" />
    <glyph glyph-name="Nacute" unicode="&#x143;" horiz-adv-x="698" 
d="M452 724h-76l100 136h106zM108 0h-97l142 667h152l166 -573l119 573h98l-143 -667h-152l-164 572z" />
    <glyph glyph-name="Ncaron" unicode="&#x147;" horiz-adv-x="698" 
d="M474 724h-92l-73 136h77l51 -92l91 92h76zM108 0h-97l142 667h152l166 -573l119 573h98l-143 -667h-152l-164 572z" />
    <glyph glyph-name="Ntilde" unicode="&#xd1;" horiz-adv-x="698" 
d="M108 0h-97l142 667h152l166 -573l119 573h98l-143 -667h-152l-164 572zM333 735h-55c14 52 55 108 116 108c48 0 84 -40 116 -40c24 0 41 23 48 43h54c-13 -48 -58 -107 -114 -107c-54 0 -74 39 -114 39c-23 0 -47 -23 -51 -43z" />
    <glyph glyph-name="Ncommaaccent" unicode="&#x145;" horiz-adv-x="698" 
d="M258 -227h-63l59 159h87zM108 0h-97l142 667h152l166 -573l119 573h98l-143 -667h-152l-164 572z" />
    <glyph glyph-name="Ograve" unicode="&#xd2;" horiz-adv-x="698" 
d="M168 12c-94 48 -131 141 -131 227c0 220 132 438 375 438c181 0 249 -145 249 -257c0 -227 -122 -431 -378 -431c-45 0 -84 8 -115 23zM183 119c24 -31 60 -50 111 -50c177 0 256 190 256 350c0 88 -40 178 -151 178c-170 0 -251 -202 -251 -356c0 -47 11 -90 35 -122z
M471 724h-75l-73 136h107z" />
    <glyph glyph-name="Oacute" unicode="&#xd3;" horiz-adv-x="698" 
d="M168 12c-94 48 -131 141 -131 227c0 220 132 438 375 438c181 0 249 -145 249 -257c0 -227 -122 -431 -378 -431c-45 0 -84 8 -115 23zM183 119c24 -31 60 -50 111 -50c177 0 256 190 256 350c0 88 -40 178 -151 178c-170 0 -251 -202 -251 -356c0 -47 11 -90 35 -122z
M456 724h-76l100 136h106z" />
    <glyph glyph-name="Ocircumflex" unicode="&#xd4;" horiz-adv-x="698" 
d="M168 12c-94 48 -131 141 -131 227c0 220 132 438 375 438c181 0 249 -145 249 -257c0 -227 -122 -431 -378 -431c-45 0 -84 8 -115 23zM183 119c24 -31 60 -50 111 -50c177 0 256 190 256 350c0 88 -40 178 -151 178c-170 0 -251 -202 -251 -356c0 -47 11 -90 35 -122z
M365 724h-76l130 136h92l72 -136h-76l-52 92z" />
    <glyph glyph-name="Otilde" unicode="&#xd5;" horiz-adv-x="698" 
d="M168 12c-94 48 -131 141 -131 227c0 220 132 438 375 438c181 0 249 -145 249 -257c0 -227 -122 -431 -378 -431c-45 0 -84 8 -115 23zM183 119c24 -31 60 -50 111 -50c177 0 256 190 256 350c0 88 -40 178 -151 178c-170 0 -251 -202 -251 -356c0 -47 11 -90 35 -122z
M332 735h-55c14 52 55 108 116 108c48 0 84 -40 116 -40c24 0 41 23 48 43h54c-13 -48 -58 -107 -114 -107c-54 0 -74 39 -114 39c-23 0 -47 -23 -51 -43z" />
    <glyph glyph-name="Odieresis" unicode="&#xd6;" horiz-adv-x="698" 
d="M168 12c-94 48 -131 141 -131 227c0 220 132 438 375 438c181 0 249 -145 249 -257c0 -227 -122 -431 -378 -431c-45 0 -84 8 -115 23zM183 119c24 -31 60 -50 111 -50c177 0 256 190 256 350c0 88 -40 178 -151 178c-170 0 -251 -202 -251 -356c0 -47 11 -90 35 -122z
M380 743h-83l21 97h83zM549 743h-83l21 97h82z" />
    <glyph glyph-name="Omacron" unicode="&#x14c;" horiz-adv-x="698" 
d="M565 763h-266l12 59h267zM168 12c-94 48 -131 141 -131 227c0 220 132 438 375 438c181 0 249 -145 249 -257c0 -227 -122 -431 -378 -431c-45 0 -84 8 -115 23zM183 119c24 -31 60 -50 111 -50c177 0 256 190 256 350c0 88 -40 178 -151 178c-170 0 -251 -202 -251 -356
c0 -47 11 -90 35 -122z" />
    <glyph glyph-name="Obreve" unicode="&#x14e;" horiz-adv-x="698" 
d="M168 12c-94 48 -131 141 -131 227c0 220 132 438 375 438c181 0 249 -145 249 -257c0 -227 -122 -431 -378 -431c-45 0 -84 8 -115 23zM183 119c24 -31 60 -50 111 -50c177 0 256 190 256 350c0 88 -40 178 -151 178c-170 0 -251 -202 -251 -356c0 -47 11 -90 35 -122z
M322 853h52c-1 -2 -1 -5 -1 -10c0 -37 27 -58 63 -58c41 0 79 28 91 68h52c-16 -73 -82 -124 -155 -124c-64 0 -105 35 -105 99c0 9 1 17 3 25z" />
    <glyph glyph-name="Ohungarumlaut" unicode="&#x150;" horiz-adv-x="698" 
d="M360 724h-76l99 136h107zM547 724h-76l99 136h108zM168 12c-94 48 -131 141 -131 227c0 220 132 438 375 438c181 0 249 -145 249 -257c0 -227 -122 -431 -378 -431c-45 0 -84 8 -115 23zM183 119c24 -31 60 -50 111 -50c177 0 256 190 256 350c0 88 -40 178 -151 178
c-170 0 -251 -202 -251 -356c0 -47 11 -90 35 -122z" />
    <glyph glyph-name="Oslash" unicode="&#xd8;" horiz-adv-x="698" 
d="M545 476l-369 -347c24 -37 62 -60 118 -60c173 0 254 177 257 337c0 27 -2 50 -6 70zM155 177l370 349c-23 41 -62 71 -126 71c-166 0 -252 -195 -252 -350c0 -24 3 -55 8 -70zM100 63l-91 -88l-37 41l97 92c-23 33 -32 84 -32 131c0 220 132 438 375 438
c89 0 151 -35 191 -84l95 87l35 -41l-100 -95c19 -43 28 -85 28 -124c0 -227 -125 -431 -373 -431c-84 0 -148 30 -188 74z" />
    <glyph glyph-name="OE" unicode="&#x152;" horiz-adv-x="899" 
d="M417 80l108 508c-33 7 -56 10 -87 10c-187 0 -290 -175 -290 -348c0 -94 40 -181 179 -181c27 0 57 4 90 11zM778 0h-345c-45 -8 -83 -11 -119 -11c-199 0 -277 110 -277 260c0 231 167 428 409 428c36 0 68 -3 111 -10h354l-17 -79h-271l-45 -208h258l-17 -78h-257
l-48 -223h282z" />
    <glyph glyph-name="Racute" unicode="&#x154;" horiz-adv-x="566" 
d="M366 724h-76l100 136h106zM241 591l-45 -219h66c73 0 177 14 177 130c0 65 -56 89 -139 89h-59zM118 0h-107l141 667h186c90 0 211 -25 211 -142c0 -135 -113 -181 -192 -192c51 -11 63 -43 74 -90l57 -243h-115l-42 207c-14 62 -27 88 -102 88h-49z" />
    <glyph glyph-name="Rcaron" unicode="&#x158;" horiz-adv-x="566" 
d="M388 724h-92l-73 136h77l51 -92l91 92h76zM241 591l-45 -219h66c73 0 177 14 177 130c0 65 -56 89 -139 89h-59zM118 0h-107l141 667h186c90 0 211 -25 211 -142c0 -135 -113 -181 -192 -192c51 -11 63 -43 74 -90l57 -243h-115l-42 207c-14 62 -27 88 -102 88h-49z" />
    <glyph glyph-name="Rcommaaccent" unicode="&#x156;" horiz-adv-x="566" 
d="M212 -227h-63l59 159h87zM241 591l-45 -219h66c73 0 177 14 177 130c0 65 -56 89 -139 89h-59zM118 0h-107l141 667h186c90 0 211 -25 211 -142c0 -135 -113 -181 -192 -192c51 -11 63 -43 74 -90l57 -243h-115l-42 207c-14 62 -27 88 -102 88h-49z" />
    <glyph glyph-name="Sacute" unicode="&#x15a;" horiz-adv-x="499" 
d="M359 724h-76l100 136h106zM-16 18l28 87c49 -23 98 -37 158 -37c67 0 146 30 146 113c0 137 -233 137 -233 298c0 139 122 198 255 198c55 0 119 -9 159 -26l-27 -82c-32 16 -93 30 -136 30c-67 0 -140 -25 -140 -102c0 -111 234 -122 234 -307
c0 -140 -124 -201 -264 -201c-52 0 -121 8 -180 29z" />
    <glyph glyph-name="Scircumflex" unicode="&#x15c;" horiz-adv-x="499" 
d="M-16 18l28 87c49 -23 98 -37 158 -37c67 0 146 30 146 113c0 137 -233 137 -233 298c0 139 122 198 255 198c55 0 119 -9 159 -26l-27 -82c-32 16 -93 30 -136 30c-67 0 -140 -25 -140 -102c0 -111 234 -122 234 -307c0 -140 -124 -201 -264 -201c-52 0 -121 8 -180 29z
M259 724h-76l130 136h92l72 -136h-76l-52 92z" />
    <glyph glyph-name="Scaron" unicode="&#x160;" horiz-adv-x="499" 
d="M-16 18l28 87c49 -23 98 -37 158 -37c67 0 146 30 146 113c0 137 -233 137 -233 298c0 139 122 198 255 198c55 0 119 -9 159 -26l-27 -82c-32 16 -93 30 -136 30c-67 0 -140 -25 -140 -102c0 -111 234 -122 234 -307c0 -140 -124 -201 -264 -201c-52 0 -121 8 -180 29z
M377 724h-92l-73 136h77l51 -92l91 92h76z" />
    <glyph glyph-name="Scedilla" unicode="&#x15e;" horiz-adv-x="499" 
d="M56 -167l17 39c31 -12 56 -16 79 -16c31 0 50 14 50 34s-17 28 -33 28c-15 0 -30 -1 -47 -8l-14 23l47 56h-1c-60 0 -117 8 -170 29l28 87c31 -19 88 -37 148 -37c85 0 161 43 161 127c0 115 -248 117 -248 278c0 140 133 204 280 204c51 0 104 -9 144 -26l-27 -82
c-32 17 -84 30 -127 30c-67 0 -159 -35 -159 -113c0 -102 250 -104 250 -279c0 -118 -91 -199 -230 -215l-37 -44c11 3 24 4 37 4c33 0 62 -24 62 -59c-5 -55 -51 -78 -115 -78c-29 0 -59 3 -95 18z" />
    <glyph glyph-name="Scommaaccent" unicode="&#x218;" horiz-adv-x="499" 
d="M151 -227h-63l59 159h87zM-16 18l28 87c49 -23 98 -37 158 -37c67 0 146 30 146 113c0 137 -233 137 -233 298c0 139 122 198 255 198c55 0 119 -9 159 -26l-27 -82c-32 16 -93 30 -136 30c-67 0 -140 -25 -140 -102c0 -111 234 -122 234 -307
c0 -140 -124 -201 -264 -201c-52 0 -121 8 -180 29z" />
    <glyph glyph-name="Tcaron" unicode="&#x164;" horiz-adv-x="506" 
d="M376 724h-92l-73 136h77l51 -92l91 92h76zM236 0h-108l124 579h-201l18 88h509l-19 -88h-200z" />
    <glyph glyph-name="Tcommaaccent" unicode="&#x162;" horiz-adv-x="506" 
d="M129 -227h-63l59 159h87zM236 0h-108l124 579h-201l18 88h509l-19 -88h-200z" />
    <glyph glyph-name="uni021A" unicode="&#x21a;" horiz-adv-x="506" 
d="M129 -227h-63l59 159h87zM236 0h-108l124 579h-201l18 88h509l-19 -88h-200z" />
    <glyph glyph-name="Tbar" unicode="&#x166;" horiz-adv-x="506" 
d="M236 0h-108l78 364h-140l15 69h140l31 146h-201l18 88h509l-19 -88h-200l-31 -146h146l-15 -69h-146z" />
    <glyph glyph-name="Thorn" unicode="&#xde;" horiz-adv-x="551" 
d="M119 0h-108l142 667h108l-28 -128h117c109 0 178 -78 178 -160c0 -178 -145 -239 -268 -239h-112zM217 462l-52 -245h48c112 0 204 25 204 153c0 50 -48 92 -113 92h-87z" />
    <glyph glyph-name="Ugrave" unicode="&#xd9;" horiz-adv-x="662" 
d="M249 667l-91 -426c-4 -20 -7 -41 -7 -61c0 -62 38 -108 131 -108c101 0 159 72 180 170l90 425h108l-90 -424c-39 -181 -146 -254 -307 -254c-112 0 -219 51 -219 180c0 23 1 46 6 71l92 427h107zM454 724h-75l-73 136h107z" />
    <glyph glyph-name="Uacute" unicode="&#xda;" horiz-adv-x="662" 
d="M249 667l-91 -426c-4 -20 -7 -41 -7 -61c0 -62 38 -108 131 -108c101 0 159 72 180 170l90 425h108l-90 -424c-39 -181 -146 -254 -307 -254c-112 0 -219 51 -219 180c0 23 1 46 6 71l92 427h107zM431 724h-76l100 136h106z" />
    <glyph glyph-name="Ucircumflex" unicode="&#xdb;" horiz-adv-x="662" 
d="M249 667l-91 -426c-4 -20 -7 -41 -7 -61c0 -62 38 -108 131 -108c101 0 159 72 180 170l90 425h108l-90 -424c-39 -181 -146 -254 -307 -254c-112 0 -219 51 -219 180c0 23 1 46 6 71l92 427h107zM341 724h-76l130 136h92l72 -136h-76l-52 92z" />
    <glyph glyph-name="Utilde" unicode="&#x168;" horiz-adv-x="662" 
d="M249 667l-91 -426c-4 -20 -7 -41 -7 -61c0 -62 38 -108 131 -108c101 0 159 72 180 170l90 425h108l-90 -424c-39 -181 -146 -254 -307 -254c-112 0 -219 51 -219 180c0 23 1 46 6 71l92 427h107zM308 735h-55c14 52 55 108 116 108c48 0 84 -40 116 -40
c24 0 41 23 48 43h54c-13 -48 -58 -107 -114 -107c-54 0 -74 39 -114 39c-23 0 -47 -23 -51 -43z" />
    <glyph glyph-name="Udieresis" unicode="&#xdc;" horiz-adv-x="662" 
d="M249 667l-91 -426c-4 -20 -7 -41 -7 -61c0 -62 38 -108 131 -108c101 0 159 72 180 170l90 425h108l-90 -424c-39 -181 -146 -254 -307 -254c-112 0 -219 51 -219 180c0 23 1 46 6 71l92 427h107zM368 743h-83l21 97h83zM537 743h-83l21 97h82z" />
    <glyph glyph-name="Umacron" unicode="&#x16a;" horiz-adv-x="662" 
d="M549 763h-266l12 59h267zM249 667l-91 -426c-4 -20 -7 -41 -7 -61c0 -62 38 -108 131 -108c101 0 159 72 180 170l90 425h108l-90 -424c-39 -181 -146 -254 -307 -254c-112 0 -219 51 -219 180c0 23 1 46 6 71l92 427h107z" />
    <glyph glyph-name="Ubreve" unicode="&#x16c;" horiz-adv-x="662" 
d="M249 667l-91 -426c-4 -20 -7 -41 -7 -61c0 -62 38 -108 131 -108c101 0 159 72 180 170l90 425h108l-90 -424c-39 -181 -146 -254 -307 -254c-112 0 -219 51 -219 180c0 23 1 46 6 71l92 427h107zM307 853h52c-1 -2 -1 -5 -1 -10c0 -37 27 -58 63 -58c41 0 79 28 91 68
h52c-16 -73 -82 -124 -155 -124c-64 0 -105 35 -105 99c0 9 1 17 3 25z" />
    <glyph glyph-name="Uring" unicode="&#x16e;" horiz-adv-x="662" 
d="M360 792c0 -32 24 -56 55 -56s58 24 58 56c0 31 -24 56 -55 56s-58 -25 -58 -56zM414 696c-53 0 -94 40 -94 96c0 53 46 96 99 96s94 -40 94 -96c0 -53 -46 -96 -99 -96zM249 667l-91 -426c-4 -20 -7 -41 -7 -61c0 -62 38 -108 131 -108c101 0 159 72 180 170l90 425h108
l-90 -424c-39 -181 -146 -254 -307 -254c-112 0 -219 51 -219 180c0 23 1 46 6 71l92 427h107z" />
    <glyph glyph-name="Uhungarumlaut" unicode="&#x170;" horiz-adv-x="662" 
d="M340 724h-76l99 136h107zM527 724h-76l99 136h108zM249 667l-91 -426c-4 -20 -7 -41 -7 -61c0 -62 38 -108 131 -108c101 0 159 72 180 170l90 425h108l-90 -424c-39 -181 -146 -254 -307 -254c-112 0 -219 51 -219 180c0 23 1 46 6 71l92 427h107z" />
    <glyph glyph-name="Uogonek" unicode="&#x172;" horiz-adv-x="662" 
d="M348 -124l9 -40c-28 -13 -52 -21 -87 -21c-60 0 -92 31 -92 71c0 43 30 76 77 103c-109 3 -211 55 -211 180c0 23 1 46 6 71l92 427h107l-91 -426c-4 -20 -7 -41 -7 -61c0 -62 38 -108 131 -108c101 0 159 72 180 170l90 425h108l-90 -424c-35 -161 -122 -236 -254 -251
c-56 -39 -71 -66 -71 -94c0 -27 21 -38 44 -38c20 0 32 4 59 16z" />
    <glyph glyph-name="Wcircumflex" unicode="&#x174;" horiz-adv-x="921" 
d="M234 0h-125l-42 667h107l25 -563l273 563h116l33 -563l266 563h100l-325 -667h-123l-33 564zM462 724h-76l130 136h92l72 -136h-76l-52 92z" />
    <glyph glyph-name="Yacute" unicode="&#xdd;" horiz-adv-x="578" 
d="M268 0h-107l56 266l-158 401h120l112 -318l249 318h115l-330 -401zM396 724h-76l100 136h106z" />
    <glyph glyph-name="Ycircumflex" unicode="&#x176;" horiz-adv-x="578" 
d="M268 0h-107l56 266l-158 401h120l112 -318l249 318h115l-330 -401zM291 724h-76l130 136h92l72 -136h-76l-52 92z" />
    <glyph glyph-name="Ydieresis" unicode="&#x178;" horiz-adv-x="578" 
d="M268 0h-107l56 266l-158 401h120l112 -318l249 318h115l-330 -401zM326 743h-83l21 97h83zM495 743h-83l21 97h82z" />
    <glyph glyph-name="Zacute" unicode="&#x179;" horiz-adv-x="520" 
d="M374 724h-76l100 136h106zM427 0h-465l18 86l443 499h-326l18 82h445l-19 -86l-438 -499h341z" />
    <glyph glyph-name="Zcaron" unicode="&#x17d;" horiz-adv-x="520" 
d="M427 0h-465l18 86l443 499h-326l18 82h445l-19 -86l-438 -499h341zM390 724h-92l-73 136h77l51 -92l91 92h76z" />
    <glyph glyph-name="Zdotaccent" unicode="&#x17b;" horiz-adv-x="520" 
d="M392 743h-103l20 97h103zM427 0h-465l18 86l443 499h-326l18 82h445l-19 -86l-438 -499h341z" />
    <glyph glyph-name="agrave" unicode="&#xe0;" horiz-adv-x="570" 
d="M427 584h-75l-73 136h107zM394 281l31 146c-16 6 -34 9 -54 9c-137 0 -241 -137 -241 -276c0 -61 29 -97 82 -97c78 0 161 120 182 218zM447 0h-94c1 27 7 75 16 127c-48 -89 -119 -138 -199 -138c-92 0 -145 63 -145 163c0 188 145 358 361 358c56 0 104 -8 152 -20
l-58 -270c-20 -93 -33 -176 -33 -220z" />
    <glyph glyph-name="aacute" unicode="&#xe1;" horiz-adv-x="570" 
d="M394 281l31 146c-16 6 -34 9 -54 9c-137 0 -241 -137 -241 -276c0 -61 29 -97 82 -97c78 0 161 120 182 218zM447 0h-94c1 27 7 75 16 127c-48 -89 -119 -138 -199 -138c-92 0 -145 63 -145 163c0 188 145 358 361 358c56 0 104 -8 152 -20l-58 -270
c-20 -93 -33 -176 -33 -220zM402 584h-76l100 136h106z" />
    <glyph glyph-name="acircumflex" unicode="&#xe2;" horiz-adv-x="570" 
d="M394 281l31 146c-16 6 -34 9 -54 9c-137 0 -241 -137 -241 -276c0 -61 29 -97 82 -97c78 0 161 120 182 218zM447 0h-94c1 27 7 75 16 127c-48 -89 -119 -138 -199 -138c-92 0 -145 63 -145 163c0 188 145 358 361 358c56 0 104 -8 152 -20l-58 -270
c-20 -93 -33 -176 -33 -220zM306 584h-76l130 136h92l72 -136h-76l-52 92z" />
    <glyph glyph-name="atilde" unicode="&#xe3;" horiz-adv-x="570" 
d="M394 281l31 146c-16 6 -34 9 -54 9c-137 0 -241 -137 -241 -276c0 -61 29 -97 82 -97c78 0 161 120 182 218zM447 0h-94c1 27 7 75 16 127c-48 -89 -119 -138 -199 -138c-92 0 -145 63 -145 163c0 188 145 358 361 358c56 0 104 -8 152 -20l-58 -270
c-20 -93 -33 -176 -33 -220zM281 595h-55c14 52 55 108 116 108c48 0 84 -40 116 -40c24 0 41 23 48 43h54c-13 -48 -58 -107 -114 -107c-53 0 -75 39 -114 39c-23 0 -47 -23 -51 -43z" />
    <glyph glyph-name="adieresis" unicode="&#xe4;" horiz-adv-x="570" 
d="M394 281l31 146c-16 6 -34 9 -54 9c-137 0 -241 -137 -241 -276c0 -61 29 -97 82 -97c78 0 161 120 182 218zM447 0h-94c1 27 7 75 16 127c-48 -89 -119 -138 -199 -138c-92 0 -145 63 -145 163c0 188 145 358 361 358c56 0 104 -8 152 -20l-58 -270
c-20 -93 -33 -176 -33 -220zM509 603h-83l21 97h82zM340 603h-83l21 97h83z" />
    <glyph glyph-name="amacron" unicode="&#x101;" horiz-adv-x="570" 
d="M394 281l31 146c-16 6 -34 9 -54 9c-137 0 -241 -137 -241 -276c0 -61 29 -97 82 -97c78 0 161 120 182 218zM447 0h-94c1 27 7 75 16 127c-48 -89 -119 -138 -199 -138c-92 0 -145 63 -145 163c0 188 145 358 361 358c56 0 104 -8 152 -20l-58 -270
c-20 -93 -33 -176 -33 -220zM520 623h-266l12 59h267z" />
    <glyph glyph-name="abreve" unicode="&#x103;" horiz-adv-x="570" 
d="M277 713h52c0 -3 -1 -7 -1 -10c0 -37 27 -58 63 -58c41 0 79 28 91 68h52c-16 -73 -82 -124 -155 -124c-63 0 -105 35 -105 99c0 8 2 17 3 25zM394 281l31 146c-16 6 -34 9 -54 9c-137 0 -241 -137 -241 -276c0 -61 29 -97 82 -97c78 0 161 120 182 218zM447 0h-94
c1 27 7 75 16 127c-48 -89 -119 -138 -199 -138c-92 0 -145 63 -145 163c0 188 145 358 361 358c56 0 104 -8 152 -20l-58 -270c-20 -93 -33 -176 -33 -220z" />
    <glyph glyph-name="aring" unicode="&#xe5;" horiz-adv-x="570" 
d="M394 281l31 146c-16 6 -34 9 -54 9c-137 0 -241 -137 -241 -276c0 -61 29 -97 82 -97c78 0 161 120 182 218zM447 0h-94c1 27 7 75 16 127c-48 -89 -119 -138 -199 -138c-92 0 -145 63 -145 163c0 188 145 358 361 358c56 0 104 -8 152 -20l-58 -270
c-20 -93 -33 -176 -33 -220zM391 556c-53 0 -94 41 -94 96c0 53 46 96 99 96s94 -41 94 -96c0 -53 -46 -96 -99 -96zM337 652c0 -32 24 -56 55 -56s58 24 58 56c0 31 -24 56 -55 56s-58 -25 -58 -56z" />
    <glyph glyph-name="aogonek" unicode="&#x105;" horiz-adv-x="570" 
d="M394 281l31 146c-16 6 -34 9 -54 9c-137 0 -241 -137 -241 -276c0 -61 29 -97 82 -97c78 0 161 120 182 218zM432 -124l9 -40c-28 -13 -52 -21 -87 -21c-60 0 -92 31 -92 71c0 49 39 85 98 114h-7c1 27 7 75 16 127c-48 -89 -119 -138 -199 -138c-92 0 -145 63 -145 163
c0 188 145 358 361 358c56 0 104 -8 152 -20l-58 -270c-20 -93 -33 -176 -33 -220h-35c-65 -43 -83 -71 -83 -102c0 -27 21 -38 44 -38c20 0 32 4 59 16z" />
    <glyph glyph-name="ae" unicode="&#xe6;" horiz-adv-x="855" 
d="M728 98v-72c-51 -27 -112 -37 -172 -37c-104 0 -162 50 -179 138c-21 -42 -95 -138 -212 -138c-93 0 -141 67 -141 158c0 207 177 364 370 364c52 0 100 -9 127 -17l-19 -78c41 44 99 94 184 94c68 0 144 -30 144 -113c0 -161 -223 -177 -351 -177c-7 -17 -9 -41 -9 -60
c0 -71 45 -103 113 -103c48 0 104 14 145 41zM518 338c-11 -19 -20 -37 -27 -55c101 0 245 12 245 107c0 41 -31 54 -68 54c-64 0 -115 -50 -150 -106zM392 292l32 138c-17 7 -34 7 -51 7c-134 0 -243 -143 -243 -279c0 -52 16 -95 77 -95c75 0 156 102 185 229z" />
    <glyph glyph-name="cacute" unicode="&#x107;" horiz-adv-x="468" 
d="M370 584h-76l100 136h106zM377 85l-11 -78c-36 -11 -76 -18 -120 -18c-109 0 -217 45 -217 186c0 184 125 335 318 335c45 0 85 -7 120 -20l-21 -78c-31 17 -65 24 -101 24c-131 0 -210 -125 -210 -239c0 -104 63 -134 139 -134c32 0 71 7 103 22z" />
    <glyph glyph-name="ccircumflex" unicode="&#x109;" horiz-adv-x="468" 
d="M377 85l-11 -78c-36 -11 -76 -18 -120 -18c-109 0 -217 45 -217 186c0 184 125 335 318 335c45 0 85 -7 120 -20l-21 -78c-31 17 -65 24 -101 24c-131 0 -210 -125 -210 -239c0 -104 63 -134 139 -134c32 0 71 7 103 22zM258 584h-76l130 136h92l72 -136h-76l-52 92z" />
    <glyph glyph-name="ccaron" unicode="&#x10d;" horiz-adv-x="468" 
d="M380 584h-92l-73 136h77l51 -92l91 92h76zM377 85l-11 -78c-36 -11 -76 -18 -120 -18c-109 0 -217 45 -217 186c0 184 125 335 318 335c45 0 85 -7 120 -20l-21 -78c-31 17 -65 24 -101 24c-131 0 -210 -125 -210 -239c0 -104 63 -134 139 -134c32 0 71 7 103 22z" />
    <glyph glyph-name="cdotaccent" unicode="&#x10b;" horiz-adv-x="468" 
d="M377 85l-11 -78c-36 -11 -76 -18 -120 -18c-109 0 -217 45 -217 186c0 184 125 335 318 335c45 0 85 -7 120 -20l-21 -78c-31 17 -65 24 -101 24c-131 0 -210 -125 -210 -239c0 -104 63 -134 139 -134c32 0 71 7 103 22zM389 603h-103l20 97h103z" />
    <glyph glyph-name="ccedilla" unicode="&#xe7;" horiz-adv-x="468" 
d="M101 -167l17 39c31 -12 56 -16 79 -16c31 0 50 14 50 34s-17 28 -33 28c-15 0 -30 -1 -47 -8l-14 23l48 59c-92 11 -172 61 -172 183c0 184 125 335 318 335c45 0 85 -7 120 -20l-21 -78c-31 17 -65 24 -101 24c-131 0 -210 -125 -210 -239c0 -104 63 -134 139 -134
c32 0 71 7 103 22l-11 -78c-36 -11 -76 -18 -120 -18l-34 -41c11 3 24 4 37 4c33 0 62 -24 62 -59c-5 -55 -51 -78 -115 -78c-29 0 -59 3 -95 18z" />
    <glyph glyph-name="dcaron" unicode="&#x10f;" horiz-adv-x="578" 
d="M685 561h-70l54 159h93zM448 0h-94c1 27 7 75 16 127c-51 -92 -120 -138 -200 -138c-92 0 -145 63 -145 163c0 188 143 358 346 358c19 0 52 -3 69 -8l46 219h101l-106 -498c-20 -93 -33 -179 -33 -223zM394 281l31 146c-17 8 -40 9 -59 9c-134 0 -236 -137 -236 -276
c0 -61 29 -97 82 -97c79 0 161 120 182 218z" />
    <glyph glyph-name="dcroat" unicode="&#x111;" horiz-adv-x="578" 
d="M394 281l31 146c-17 8 -40 9 -59 9c-134 0 -236 -137 -236 -276c0 -61 29 -97 82 -97c79 0 161 120 182 218zM448 0h-94c1 27 7 75 16 127c-51 -92 -120 -138 -200 -138c-92 0 -145 63 -145 163c0 188 143 358 346 358c19 0 52 -3 69 -8l18 88h-152l13 60h152l15 71h101
l-15 -71h77l-13 -60h-77l-78 -367c-20 -93 -33 -179 -33 -223z" />
    <glyph glyph-name="eth" unicode="&#xf0;" horiz-adv-x="577" 
d="M372 601l-123 -63l-33 40l108 56c-29 21 -72 36 -109 44l56 53c56 -13 109 -40 134 -60l113 59l34 -41l-103 -53c52 -57 90 -132 90 -221c0 -198 -85 -426 -316 -426c-108 0 -194 71 -194 188c0 162 108 321 283 321c63 0 108 -26 137 -79c-3 64 -30 137 -77 182zM157 98
c17 -21 43 -35 80 -35c115 0 184 148 184 249c0 68 -33 115 -106 115c-116 0 -181 -143 -181 -244c0 -33 7 -64 23 -85z" />
    <glyph glyph-name="egrave" unicode="&#xe8;" horiz-adv-x="509" 
d="M385 98l1 -72c-51 -27 -113 -37 -173 -37c-104 0 -189 50 -189 165c0 193 148 356 314 356c74 0 149 -30 149 -113c0 -161 -223 -177 -351 -177c-7 -17 -9 -41 -9 -60c0 -71 46 -103 114 -103c48 0 103 14 144 41zM175 338c-11 -19 -20 -37 -27 -55c101 0 245 12 245 107
c0 41 -31 54 -68 54c-64 0 -115 -50 -150 -106zM379 584h-75l-73 136h107z" />
    <glyph glyph-name="eacute" unicode="&#xe9;" horiz-adv-x="509" 
d="M385 98l1 -72c-51 -27 -113 -37 -173 -37c-104 0 -189 50 -189 165c0 193 148 356 314 356c74 0 149 -30 149 -113c0 -161 -223 -177 -351 -177c-7 -17 -9 -41 -9 -60c0 -71 46 -103 114 -103c48 0 103 14 144 41zM175 338c-11 -19 -20 -37 -27 -55c101 0 245 12 245 107
c0 41 -31 54 -68 54c-64 0 -115 -50 -150 -106zM379 584h-76l100 136h106z" />
    <glyph glyph-name="ecircumflex" unicode="&#xea;" horiz-adv-x="509" 
d="M385 98l1 -72c-51 -27 -113 -37 -173 -37c-104 0 -189 50 -189 165c0 193 148 356 314 356c74 0 149 -30 149 -113c0 -161 -223 -177 -351 -177c-7 -17 -9 -41 -9 -60c0 -71 46 -103 114 -103c48 0 103 14 144 41zM175 338c-11 -19 -20 -37 -27 -55c101 0 245 12 245 107
c0 41 -31 54 -68 54c-64 0 -115 -50 -150 -106zM271 584h-76l130 136h92l72 -136h-76l-52 92z" />
    <glyph glyph-name="ecaron" unicode="&#x11b;" horiz-adv-x="509" 
d="M385 98l1 -72c-51 -27 -113 -37 -173 -37c-104 0 -189 50 -189 165c0 193 148 356 314 356c74 0 149 -30 149 -113c0 -161 -223 -177 -351 -177c-7 -17 -9 -41 -9 -60c0 -71 46 -103 114 -103c48 0 103 14 144 41zM175 338c-11 -19 -20 -37 -27 -55c101 0 245 12 245 107
c0 41 -31 54 -68 54c-64 0 -115 -50 -150 -106zM390 584h-92l-73 136h77l51 -92l91 92h76z" />
    <glyph glyph-name="edieresis" unicode="&#xeb;" horiz-adv-x="509" 
d="M385 98l1 -72c-51 -27 -113 -37 -173 -37c-104 0 -189 50 -189 165c0 193 148 356 314 356c74 0 149 -30 149 -113c0 -161 -223 -177 -351 -177c-7 -17 -9 -41 -9 -60c0 -71 46 -103 114 -103c48 0 103 14 144 41zM175 338c-11 -19 -20 -37 -27 -55c101 0 245 12 245 107
c0 41 -31 54 -68 54c-64 0 -115 -50 -150 -106zM473 603h-83l21 97h82zM304 603h-83l21 97h83z" />
    <glyph glyph-name="emacron" unicode="&#x113;" horiz-adv-x="509" 
d="M385 98l1 -72c-51 -27 -113 -37 -173 -37c-104 0 -189 50 -189 165c0 193 148 356 314 356c74 0 149 -30 149 -113c0 -161 -223 -177 -351 -177c-7 -17 -9 -41 -9 -60c0 -71 46 -103 114 -103c48 0 103 14 144 41zM175 338c-11 -19 -20 -37 -27 -55c101 0 245 12 245 107
c0 41 -31 54 -68 54c-64 0 -115 -50 -150 -106zM484 623h-266l12 59h267z" />
    <glyph glyph-name="ebreve" unicode="&#x115;" horiz-adv-x="509" 
d="M385 98l1 -72c-51 -27 -113 -37 -173 -37c-104 0 -189 50 -189 165c0 193 148 356 314 356c74 0 149 -30 149 -113c0 -161 -223 -177 -351 -177c-7 -17 -9 -41 -9 -60c0 -71 46 -103 114 -103c48 0 103 14 144 41zM175 338c-11 -19 -20 -37 -27 -55c101 0 245 12 245 107
c0 41 -31 54 -68 54c-64 0 -115 -50 -150 -106zM241 713h52c0 -3 -1 -7 -1 -10c0 -37 27 -58 63 -58c41 0 79 28 91 68h52c-16 -73 -82 -124 -155 -124c-63 0 -105 35 -105 99c0 8 2 17 3 25z" />
    <glyph glyph-name="edotaccent" unicode="&#x117;" horiz-adv-x="509" 
d="M398 603h-103l20 97h103zM385 98l1 -72c-51 -27 -113 -37 -173 -37c-104 0 -189 50 -189 165c0 193 148 356 314 356c74 0 149 -30 149 -113c0 -161 -223 -177 -351 -177c-7 -17 -9 -41 -9 -60c0 -71 46 -103 114 -103c48 0 103 14 144 41zM175 338
c-11 -19 -20 -37 -27 -55c101 0 245 12 245 107c0 41 -31 54 -68 54c-64 0 -115 -50 -150 -106z" />
    <glyph glyph-name="eogonek" unicode="&#x119;" horiz-adv-x="509" 
d="M175 338c-11 -19 -20 -37 -27 -55c101 0 245 12 245 107c0 41 -31 54 -68 54c-64 0 -115 -50 -150 -106zM292 -124l9 -40c-28 -13 -52 -21 -87 -21c-60 0 -92 31 -92 71c0 43 30 77 77 104c-99 3 -175 56 -175 164c0 193 148 356 314 356c74 0 149 -30 149 -113
c0 -161 -223 -177 -351 -177c-7 -17 -9 -41 -9 -60c0 -71 46 -103 114 -103c48 0 103 14 144 41l1 -72c-39 -20 -82 -30 -127 -35c-55 -39 -70 -65 -70 -93c0 -27 21 -38 44 -38c20 0 32 4 59 16z" />
    <glyph glyph-name="gcircumflex" unicode="&#x11d;" horiz-adv-x="573" 
d="M397 281l31 146c-16 6 -34 9 -54 9c-137 0 -241 -137 -241 -270c0 -60 29 -95 82 -95c78 0 158 98 182 210zM-25 -200l22 80c44 -24 94 -33 139 -33c123 0 178 68 202 169l22 94c-49 -72 -107 -110 -187 -110c-92 0 -145 62 -145 158c0 185 145 352 361 352
c56 0 104 -8 152 -20l-94 -439c-40 -184 -109 -278 -314 -278c-59 0 -114 12 -158 27zM308 584h-76l130 136h92l72 -136h-76l-52 92z" />
    <glyph glyph-name="gbreve" unicode="&#x11f;" horiz-adv-x="573" 
d="M279 713h52c0 -3 -1 -7 -1 -10c0 -37 27 -58 63 -58c41 0 79 28 91 68h52c-16 -73 -82 -124 -155 -124c-63 0 -105 35 -105 99c0 8 2 17 3 25zM397 281l31 146c-16 6 -34 9 -54 9c-137 0 -241 -137 -241 -270c0 -60 29 -95 82 -95c78 0 158 98 182 210zM-25 -200l22 80
c44 -24 94 -33 139 -33c123 0 178 68 202 169l22 94c-49 -72 -107 -110 -187 -110c-92 0 -145 62 -145 158c0 185 145 352 361 352c56 0 104 -8 152 -20l-94 -439c-40 -184 -109 -278 -314 -278c-59 0 -114 12 -158 27z" />
    <glyph glyph-name="gdotaccent" unicode="&#x121;" horiz-adv-x="573" 
d="M397 281l31 146c-16 6 -34 9 -54 9c-137 0 -241 -137 -241 -270c0 -60 29 -95 82 -95c78 0 158 98 182 210zM-25 -200l22 80c44 -24 94 -33 139 -33c123 0 178 68 202 169l22 94c-49 -72 -107 -110 -187 -110c-92 0 -145 62 -145 158c0 185 145 352 361 352
c56 0 104 -8 152 -20l-94 -439c-40 -184 -109 -278 -314 -278c-59 0 -114 12 -158 27zM434 603h-103l20 97h103z" />
    <glyph glyph-name="gcommaaccent" unicode="&#x123;" horiz-adv-x="573" 
d="M416 584h-84l75 136h62zM397 281l31 146c-16 6 -34 9 -54 9c-137 0 -241 -137 -241 -270c0 -60 29 -95 82 -95c78 0 158 98 182 210zM-25 -200l22 80c44 -24 94 -33 139 -33c123 0 178 68 202 169l22 94c-49 -72 -107 -110 -187 -110c-92 0 -145 62 -145 158
c0 185 145 352 361 352c56 0 104 -8 152 -20l-94 -439c-40 -184 -109 -278 -314 -278c-59 0 -114 12 -158 27z" />
    <glyph glyph-name="hcircumflex" unicode="&#x125;" horiz-adv-x="556" 
d="M108 0h-101l153 721h100l-66 -303c47 59 100 92 173 92c77 0 135 -43 135 -122c0 -29 -3 -38 -11 -82l-65 -306h-101l63 298c4 21 7 42 7 61c0 44 -21 77 -76 77c-93 0 -133 -78 -152 -161zM286 769h-76l130 136h92l72 -136h-76l-52 92z" />
    <glyph glyph-name="hbar" unicode="&#x127;" horiz-adv-x="556" 
d="M108 0h-101l125 590h-80l13 60h80l15 71h100l-16 -71h151l-13 -60h-151l-37 -172c47 59 100 92 173 92c77 0 135 -43 135 -122c0 -29 -3 -38 -11 -82l-65 -306h-101l63 298c4 21 7 42 7 61c0 44 -21 77 -76 77c-93 0 -133 -78 -152 -161z" />
    <glyph glyph-name="dotlessi" unicode="&#x131;" horiz-adv-x="243" 
d="M108 0h-101l105 500h101z" />
    <glyph glyph-name="igrave" unicode="&#xec;" horiz-adv-x="243" 
d="M108 0h-101l105 500h101zM223 584h-75l-73 136h107z" />
    <glyph glyph-name="iacute" unicode="&#xed;" horiz-adv-x="243" 
d="M108 0h-101l105 500h101zM203 584h-76l100 136h106z" />
    <glyph glyph-name="icircumflex" unicode="&#xee;" horiz-adv-x="243" 
d="M108 0h-101l105 500h101zM104 584h-76l130 136h92l72 -136h-76l-52 92z" />
    <glyph glyph-name="itilde" unicode="&#x129;" horiz-adv-x="243" 
d="M108 0h-101l105 500h101zM75 595h-55c14 52 55 108 116 108c48 0 84 -40 116 -40c24 0 41 23 48 43h54c-13 -48 -58 -107 -114 -107c-53 0 -75 39 -114 39c-23 0 -47 -23 -51 -43z" />
    <glyph glyph-name="idieresis" unicode="&#xef;" horiz-adv-x="243" 
d="M108 0h-101l105 500h101zM305 603h-83l21 97h82zM136 603h-83l21 97h83z" />
    <glyph glyph-name="imacron" unicode="&#x12b;" horiz-adv-x="243" 
d="M108 0h-101l105 500h101zM316 623h-266l12 59h267z" />
    <glyph glyph-name="iogonek" unicode="&#x12f;" horiz-adv-x="243" 
d="M235 603h-103l20 97h103zM114 -127l9 -40c-27 -12 -47 -18 -80 -18c-60 0 -92 31 -92 71c0 49 39 85 98 114h-42l105 500h101l-105 -500h-7c-65 -43 -83 -71 -83 -102c0 -27 19 -38 42 -38c13 0 31 4 54 13z" />
    <glyph glyph-name="dotlessj" unicode="&#x237;" horiz-adv-x="249" 
d="M-136 -219l21 74c10 -4 21 -6 34 -6c49 0 70 46 78 88l119 563h101l-119 -572c-19 -86 -62 -155 -159 -155c-25 0 -51 1 -75 8z" />
    <glyph glyph-name="jcircumflex" unicode="&#x135;" horiz-adv-x="249" 
d="M-136 -219l21 74c10 -4 21 -6 34 -6c49 0 70 46 78 88l119 563h101l-119 -572c-19 -86 -62 -155 -159 -155c-25 0 -51 1 -75 8zM101 584h-76l130 136h92l72 -136h-76l-52 92z" />
    <glyph glyph-name="kcommaaccent" unicode="&#x137;" horiz-adv-x="494" 
d="M182 -227h-63l59 159h87zM108 0h-101l151 721h101l-90 -429l228 208h125l-259 -225l171 -275h-118l-153 266z" />
    <glyph glyph-name="lacute" unicode="&#x13a;" horiz-adv-x="252" 
d="M251 769h-76l100 136h106zM108 0h-101l153 721h101z" />
    <glyph glyph-name="lcaron" unicode="&#x13e;" horiz-adv-x="252" 
d="M353 561h-70l54 159h93zM108 0h-101l153 721h101z" />
    <glyph glyph-name="lcommaaccent" unicode="&#x13c;" horiz-adv-x="252" 
d="M8 -227h-63l59 159h87zM108 0h-101l153 721h101z" />
    <glyph glyph-name="lslash" unicode="&#x142;" horiz-adv-x="252" 
d="M108 0h-101l66 311l-68 -53l16 74l67 51l72 338h101l-58 -272l92 73l-17 -76l-90 -71z" />
    <glyph glyph-name="ldot" unicode="&#x140;" horiz-adv-x="371" 
d="M108 0h-101l153 721h101zM358 298h-103l20 97h103z" />
    <glyph glyph-name="nacute" unicode="&#x144;" horiz-adv-x="554" 
d="M355 584h-76l100 136h106zM108 0h-101l81 385c8 39 15 76 19 115h94l-15 -89c48 65 96 99 179 99c81 0 135 -45 135 -126c0 -19 -3 -38 -7 -59l-68 -325h-101l63 302c4 19 8 38 8 57c0 43 -21 77 -78 77c-89 0 -133 -77 -149 -154z" />
    <glyph glyph-name="ncaron" unicode="&#x148;" horiz-adv-x="554" 
d="M378 584h-92l-73 136h77l51 -92l91 92h76zM108 0h-101l81 385c8 39 15 76 19 115h94l-15 -89c48 65 96 99 179 99c81 0 135 -45 135 -126c0 -19 -3 -38 -7 -59l-68 -325h-101l63 302c4 19 8 38 8 57c0 43 -21 77 -78 77c-89 0 -133 -77 -149 -154z" />
    <glyph glyph-name="ntilde" unicode="&#xf1;" horiz-adv-x="554" 
d="M108 0h-101l81 385c8 39 15 76 19 115h94l-15 -89c48 65 96 99 179 99c81 0 135 -45 135 -126c0 -19 -3 -38 -7 -59l-68 -325h-101l63 302c4 19 8 38 8 57c0 43 -21 77 -78 77c-89 0 -133 -77 -149 -154zM233 595h-55c14 52 55 108 116 108c48 0 84 -40 116 -40
c24 0 41 23 48 43h54c-13 -48 -58 -107 -114 -107c-53 0 -75 39 -114 39c-23 0 -47 -23 -51 -43z" />
    <glyph glyph-name="ncommaaccent" unicode="&#x146;" horiz-adv-x="554" 
d="M184 -227h-63l59 159h87zM108 0h-101l81 385c8 39 15 76 19 115h94l-15 -89c48 65 96 99 179 99c81 0 135 -45 135 -126c0 -19 -3 -38 -7 -59l-68 -325h-101l63 302c4 19 8 38 8 57c0 43 -21 77 -78 77c-89 0 -133 -77 -149 -154z" />
    <glyph glyph-name="ograve" unicode="&#xf2;" horiz-adv-x="577" 
d="M154 98c16 -21 42 -35 85 -35c115 0 186 148 186 249c0 71 -24 124 -110 124c-118 0 -181 -147 -181 -251c0 -35 5 -64 20 -87zM86 33c-35 29 -57 75 -57 136c0 183 111 341 305 341c107 0 196 -62 196 -179c0 -180 -112 -342 -303 -342c-56 0 -105 15 -141 44zM375 584
h-75l-73 136h107z" />
    <glyph glyph-name="oacute" unicode="&#xf3;" horiz-adv-x="577" 
d="M154 98c16 -21 42 -35 85 -35c115 0 186 148 186 249c0 71 -24 124 -110 124c-118 0 -181 -147 -181 -251c0 -35 5 -64 20 -87zM86 33c-35 29 -57 75 -57 136c0 183 111 341 305 341c107 0 196 -62 196 -179c0 -180 -112 -342 -303 -342c-56 0 -105 15 -141 44zM370 584
h-76l100 136h106z" />
    <glyph glyph-name="ocircumflex" unicode="&#xf4;" horiz-adv-x="577" 
d="M154 98c16 -21 42 -35 85 -35c115 0 186 148 186 249c0 71 -24 124 -110 124c-118 0 -181 -147 -181 -251c0 -35 5 -64 20 -87zM86 33c-35 29 -57 75 -57 136c0 183 111 341 305 341c107 0 196 -62 196 -179c0 -180 -112 -342 -303 -342c-56 0 -105 15 -141 44zM275 584
h-76l130 136h92l72 -136h-76l-52 92z" />
    <glyph glyph-name="otilde" unicode="&#xf5;" horiz-adv-x="577" 
d="M154 98c16 -21 42 -35 85 -35c115 0 186 148 186 249c0 71 -24 124 -110 124c-118 0 -181 -147 -181 -251c0 -35 5 -64 20 -87zM86 33c-35 29 -57 75 -57 136c0 183 111 341 305 341c107 0 196 -62 196 -179c0 -180 -112 -342 -303 -342c-56 0 -105 15 -141 44zM248 595
h-55c14 52 55 108 116 108c48 0 84 -40 116 -40c24 0 41 23 48 43h54c-13 -48 -58 -107 -114 -107c-53 0 -75 39 -114 39c-23 0 -47 -23 -51 -43z" />
    <glyph glyph-name="odieresis" unicode="&#xf6;" horiz-adv-x="577" 
d="M154 98c16 -21 42 -35 85 -35c115 0 186 148 186 249c0 71 -24 124 -110 124c-118 0 -181 -147 -181 -251c0 -35 5 -64 20 -87zM86 33c-35 29 -57 75 -57 136c0 183 111 341 305 341c107 0 196 -62 196 -179c0 -180 -112 -342 -303 -342c-56 0 -105 15 -141 44zM469 603
h-83l21 97h82zM300 603h-83l21 97h83z" />
    <glyph glyph-name="omacron" unicode="&#x14d;" horiz-adv-x="577" 
d="M154 98c16 -21 42 -35 85 -35c115 0 186 148 186 249c0 71 -24 124 -110 124c-118 0 -181 -147 -181 -251c0 -35 5 -64 20 -87zM86 33c-35 29 -57 75 -57 136c0 183 111 341 305 341c107 0 196 -62 196 -179c0 -180 -112 -342 -303 -342c-56 0 -105 15 -141 44zM481 623
h-266l12 59h267z" />
    <glyph glyph-name="obreve" unicode="&#x14f;" horiz-adv-x="577" 
d="M154 98c16 -21 42 -35 85 -35c115 0 186 148 186 249c0 71 -24 124 -110 124c-118 0 -181 -147 -181 -251c0 -35 5 -64 20 -87zM86 33c-35 29 -57 75 -57 136c0 183 111 341 305 341c107 0 196 -62 196 -179c0 -180 -112 -342 -303 -342c-56 0 -105 15 -141 44zM237 713
h52c0 -3 -1 -7 -1 -10c0 -37 27 -58 63 -58c41 0 79 28 91 68h52c-16 -73 -82 -124 -155 -124c-63 0 -105 35 -105 99c0 8 2 17 3 25z" />
    <glyph glyph-name="ohungarumlaut" unicode="&#x151;" horiz-adv-x="577" 
d="M467 584h-76l99 136h108zM280 584h-76l99 136h107zM154 98c16 -21 42 -35 85 -35c115 0 186 148 186 249c0 71 -24 124 -110 124c-118 0 -181 -147 -181 -251c0 -35 5 -64 20 -87zM86 33c-35 29 -57 75 -57 136c0 183 111 341 305 341c107 0 196 -62 196 -179
c0 -180 -112 -342 -303 -342c-56 0 -105 15 -141 44z" />
    <glyph glyph-name="oslash" unicode="&#xf8;" horiz-adv-x="577" 
d="M421 356l-269 -250c16 -28 42 -43 87 -43c123 0 188 155 188 240c0 20 -1 37 -6 53zM137 143l268 252c-18 27 -49 41 -92 41c-111 0 -179 -135 -182 -239c0 -20 1 -38 6 -54zM81 43l-76 -70l-30 35l78 72c-15 27 -23 66 -23 93c0 216 144 337 300 337
c56 0 111 -19 147 -52l75 70l32 -35l-78 -73c15 -27 23 -57 23 -90c0 -176 -112 -341 -305 -341c-56 0 -107 17 -143 54z" />
    <glyph glyph-name="oe" unicode="&#x153;" horiz-adv-x="887" 
d="M154 98c16 -21 42 -35 85 -35c118 0 180 150 180 253c0 71 -31 120 -106 120c-117 0 -179 -147 -179 -251c0 -35 5 -64 20 -87zM548 338c-11 -19 -19 -37 -25 -55c101 0 244 12 244 107c0 41 -31 54 -68 54c-63 0 -118 -50 -151 -106zM760 98v-72
c-51 -27 -112 -37 -172 -37c-73 0 -148 31 -161 108c-40 -65 -109 -108 -201 -108c-112 0 -197 57 -197 180c0 183 111 341 305 341c95 0 151 -61 162 -122c33 57 117 122 216 122c74 0 149 -30 149 -113c0 -161 -223 -177 -351 -177c-5 -19 -8 -39 -8 -60
c0 -71 45 -103 113 -103c48 0 104 14 145 41z" />
    <glyph glyph-name="racute" unicode="&#x155;" horiz-adv-x="355" 
d="M287 584h-76l100 136h106zM108 0h-101l82 385c8 39 16 76 20 115h94l-18 -100c29 56 91 110 158 110c15 0 27 0 40 -4l-25 -96c-11 5 -24 7 -39 7c-94 0 -145 -101 -161 -182z" />
    <glyph glyph-name="rcaron" unicode="&#x159;" horiz-adv-x="355" 
d="M306 584h-92l-73 136h77l51 -92l91 92h76zM108 0h-101l82 385c8 39 16 76 20 115h94l-18 -100c29 56 91 110 158 110c15 0 27 0 40 -4l-25 -96c-11 5 -24 7 -39 7c-94 0 -145 -101 -161 -182z" />
    <glyph glyph-name="rcommaaccent" unicode="&#x157;" horiz-adv-x="355" 
d="M9 -227h-63l59 159h87zM108 0h-101l82 385c8 39 16 76 20 115h94l-18 -100c29 56 91 110 158 110c15 0 27 0 40 -4l-25 -96c-11 5 -24 7 -39 7c-94 0 -145 -101 -161 -182z" />
    <glyph glyph-name="sacute" unicode="&#x15b;" horiz-adv-x="414" 
d="M288 584h-76l100 136h106zM-13 13l24 81c37 -21 77 -32 121 -32c50 0 111 16 111 80c0 89 -183 90 -183 220c0 112 102 148 195 148c43 0 94 -8 135 -23l-24 -71c-35 17 -71 24 -110 24c-42 0 -98 -14 -98 -67c0 -89 186 -88 186 -222c0 -119 -112 -162 -213 -162
c-51 0 -97 7 -144 24z" />
    <glyph glyph-name="scircumflex" unicode="&#x15d;" horiz-adv-x="414" 
d="M-13 13l24 81c37 -21 77 -32 121 -32c50 0 111 16 111 80c0 89 -183 90 -183 220c0 112 102 148 195 148c43 0 94 -8 135 -23l-24 -71c-35 17 -71 24 -110 24c-42 0 -98 -14 -98 -67c0 -89 186 -88 186 -222c0 -119 -112 -162 -213 -162c-51 0 -97 7 -144 24zM186 584
h-76l130 136h92l72 -136h-76l-52 92z" />
    <glyph glyph-name="scaron" unicode="&#x161;" horiz-adv-x="414" 
d="M-13 13l24 81c37 -21 77 -32 121 -32c50 0 111 16 111 80c0 89 -183 90 -183 220c0 112 102 148 195 148c43 0 94 -8 135 -23l-24 -71c-35 17 -71 24 -110 24c-42 0 -98 -14 -98 -67c0 -89 186 -88 186 -222c0 -119 -112 -162 -213 -162c-51 0 -97 7 -144 24zM307 584
h-92l-73 136h77l51 -92l91 92h76z" />
    <glyph glyph-name="scedilla" unicode="&#x15f;" horiz-adv-x="414" 
d="M29 -167l17 39c31 -12 56 -16 79 -16c31 0 50 14 50 34s-17 28 -33 28c-15 0 -30 -1 -47 -8l-14 23l46 56c-48 1 -95 8 -140 24l24 81c37 -21 77 -32 121 -32c50 0 111 16 111 80c0 89 -183 90 -183 220c0 112 102 148 195 148c43 0 94 -8 135 -23l-24 -71
c-35 17 -71 24 -110 24c-42 0 -98 -14 -98 -67c0 -89 186 -88 186 -222c0 -101 -81 -148 -168 -159l-36 -44c11 3 24 4 37 4c33 0 62 -24 62 -59c-5 -55 -51 -78 -115 -78c-29 0 -59 3 -95 18z" />
    <glyph glyph-name="scommaaccent" unicode="&#x219;" horiz-adv-x="414" 
d="M118 -227h-63l59 159h87zM-13 13l24 81c37 -21 77 -32 121 -32c50 0 111 16 111 80c0 89 -183 90 -183 220c0 112 102 148 195 148c43 0 94 -8 135 -23l-24 -71c-35 17 -71 24 -110 24c-42 0 -98 -14 -98 -67c0 -89 186 -88 186 -222c0 -119 -112 -162 -213 -162
c-51 0 -97 7 -144 24z" />
    <glyph glyph-name="germandbls" unicode="&#xdf;" horiz-adv-x="568" 
d="M-151 -220l19 74c17 -3 32 -5 45 -5c67 0 88 100 98 152l107 510c28 135 117 220 258 220c84 0 181 -37 181 -136c0 -170 -179 -121 -179 -224c0 -70 136 -119 136 -211c0 -112 -87 -171 -193 -171c-43 0 -85 7 -124 23l21 73c27 -16 58 -26 90 -26c57 0 103 29 103 92
c0 73 -134 118 -134 211c0 141 181 93 181 225c0 56 -46 73 -94 73c-88 0 -128 -72 -144 -149l-108 -510c-21 -100 -64 -228 -185 -228c-27 0 -51 3 -78 7z" />
    <glyph glyph-name="tcaron" unicode="&#x165;" horiz-adv-x="322" 
d="M362 561h-70l54 159h93zM256 75l-10 -70c-25 -11 -54 -16 -91 -16c-59 0 -110 27 -110 99c0 21 4 48 9 73l57 266h-91l16 73h91l22 108l109 33l-30 -141h110l-15 -73h-110l-57 -265c-4 -19 -7 -39 -7 -54c0 -32 20 -46 48 -46c19 0 38 4 59 13z" />
    <glyph glyph-name="tcommaaccent" unicode="&#x163;" horiz-adv-x="322" 
d="M92 -227h-63l59 159h87zM256 75l-10 -70c-25 -11 -54 -16 -91 -16c-59 0 -110 27 -110 99c0 21 4 48 9 73l57 266h-91l16 73h91l22 108l109 33l-30 -141h110l-15 -73h-110l-57 -265c-4 -19 -7 -39 -7 -54c0 -32 20 -46 48 -46c19 0 38 4 59 13z" />
    <glyph glyph-name="uni021B" unicode="&#x21b;" horiz-adv-x="322" 
d="M92 -227h-63l59 159h87zM256 75l-10 -70c-25 -11 -54 -16 -91 -16c-59 0 -110 27 -110 99c0 21 4 48 9 73l57 266h-91l16 73h91l22 108l109 33l-30 -141h110l-15 -73h-110l-57 -265c-4 -19 -7 -39 -7 -54c0 -32 20 -46 48 -46c19 0 38 4 59 13z" />
    <glyph glyph-name="tbar" unicode="&#x167;" horiz-adv-x="322" 
d="M256 75l-10 -70c-25 -11 -54 -16 -91 -16c-59 0 -110 27 -110 99c0 21 4 48 9 73l25 117h-70l13 60h70l19 89h-91l16 73h91l22 108l109 33l-30 -141h110l-15 -73h-110l-19 -89h93l-12 -60h-94l-25 -116c-4 -19 -7 -39 -7 -54c0 -32 20 -46 48 -46c19 0 38 4 59 13z" />
    <glyph glyph-name="thorn" unicode="&#xfe;" horiz-adv-x="565" 
d="M62 -216h-102l200 937h100l-72 -332c43 77 106 121 186 121c92 0 142 -68 142 -164c0 -197 -128 -357 -324 -357c-43 0 -66 3 -86 7zM154 226l-32 -155c27 -7 49 -8 73 -8c129 0 216 126 216 274c0 61 -28 99 -75 99c-75 0 -158 -101 -182 -210z" />
    <glyph glyph-name="ugrave" unicode="&#xf9;" horiz-adv-x="553" 
d="M423 0h-94l14 90c-44 -63 -93 -101 -176 -101c-81 0 -136 47 -136 128c0 19 2 38 6 58l69 327h101l-63 -303c-4 -19 -8 -38 -8 -57c0 -44 21 -79 78 -79c88 0 132 80 148 156l59 283h102l-81 -386c-8 -39 -15 -77 -19 -116zM368 584h-75l-73 136h107z" />
    <glyph glyph-name="uacute" unicode="&#xfa;" horiz-adv-x="553" 
d="M423 0h-94l14 90c-44 -63 -93 -101 -176 -101c-81 0 -136 47 -136 128c0 19 2 38 6 58l69 327h101l-63 -303c-4 -19 -8 -38 -8 -57c0 -44 21 -79 78 -79c88 0 132 80 148 156l59 283h102l-81 -386c-8 -39 -15 -77 -19 -116zM347 584h-76l100 136h106z" />
    <glyph glyph-name="ucircumflex" unicode="&#xfb;" horiz-adv-x="553" 
d="M423 0h-94l14 90c-44 -63 -93 -101 -176 -101c-81 0 -136 47 -136 128c0 19 2 38 6 58l69 327h101l-63 -303c-4 -19 -8 -38 -8 -57c0 -44 21 -79 78 -79c88 0 132 80 148 156l59 283h102l-81 -386c-8 -39 -15 -77 -19 -116zM252 584h-76l130 136h92l72 -136h-76l-52 92z
" />
    <glyph glyph-name="utilde" unicode="&#x169;" horiz-adv-x="553" 
d="M423 0h-94l14 90c-44 -63 -93 -101 -176 -101c-81 0 -136 47 -136 128c0 19 2 38 6 58l69 327h101l-63 -303c-4 -19 -8 -38 -8 -57c0 -44 21 -79 78 -79c88 0 132 80 148 156l59 283h102l-81 -386c-8 -39 -15 -77 -19 -116zM226 595h-55c14 52 55 108 116 108
c48 0 84 -40 116 -40c24 0 41 23 48 43h54c-13 -48 -58 -107 -114 -107c-53 0 -75 39 -114 39c-23 0 -47 -23 -51 -43z" />
    <glyph glyph-name="udieresis" unicode="&#xfc;" horiz-adv-x="553" 
d="M423 0h-94l14 90c-44 -63 -93 -101 -176 -101c-81 0 -136 47 -136 128c0 19 2 38 6 58l69 327h101l-63 -303c-4 -19 -8 -38 -8 -57c0 -44 21 -79 78 -79c88 0 132 80 148 156l59 283h102l-81 -386c-8 -39 -15 -77 -19 -116zM453 603h-83l21 97h82zM284 603h-83l21 97h83z
" />
    <glyph glyph-name="umacron" unicode="&#x16b;" horiz-adv-x="553" 
d="M423 0h-94l14 90c-44 -63 -93 -101 -176 -101c-81 0 -136 47 -136 128c0 19 2 38 6 58l69 327h101l-63 -303c-4 -19 -8 -38 -8 -57c0 -44 21 -79 78 -79c88 0 132 80 148 156l59 283h102l-81 -386c-8 -39 -15 -77 -19 -116zM464 623h-266l12 59h267z" />
    <glyph glyph-name="ubreve" unicode="&#x16d;" horiz-adv-x="553" 
d="M423 0h-94l14 90c-44 -63 -93 -101 -176 -101c-81 0 -136 47 -136 128c0 19 2 38 6 58l69 327h101l-63 -303c-4 -19 -8 -38 -8 -57c0 -44 21 -79 78 -79c88 0 132 80 148 156l59 283h102l-81 -386c-8 -39 -15 -77 -19 -116zM220 713h52c0 -3 -1 -7 -1 -10
c0 -37 27 -58 63 -58c41 0 79 28 91 68h52c-16 -73 -82 -124 -155 -124c-63 0 -105 35 -105 99c0 8 2 17 3 25z" />
    <glyph glyph-name="uring" unicode="&#x16f;" horiz-adv-x="553" 
d="M331 556c-53 0 -94 41 -94 96c0 53 46 96 99 96s94 -41 94 -96c0 -53 -46 -96 -99 -96zM277 652c0 -32 24 -56 55 -56s58 24 58 56c0 31 -24 56 -55 56s-58 -25 -58 -56zM423 0h-94l14 90c-44 -63 -93 -101 -176 -101c-81 0 -136 47 -136 128c0 19 2 38 6 58l69 327h101
l-63 -303c-4 -19 -8 -38 -8 -57c0 -44 21 -79 78 -79c88 0 132 80 148 156l59 283h102l-81 -386c-8 -39 -15 -77 -19 -116z" />
    <glyph glyph-name="uhungarumlaut" unicode="&#x171;" horiz-adv-x="553" 
d="M451 584h-76l99 136h108zM264 584h-76l99 136h107zM423 0h-94l14 90c-44 -63 -93 -101 -176 -101c-81 0 -136 47 -136 128c0 19 2 38 6 58l69 327h101l-63 -303c-4 -19 -8 -38 -8 -57c0 -44 21 -79 78 -79c88 0 132 80 148 156l59 283h102l-81 -386
c-8 -39 -15 -77 -19 -116z" />
    <glyph glyph-name="uogonek" unicode="&#x173;" horiz-adv-x="553" 
d="M416 -124l9 -40c-28 -13 -52 -21 -87 -21c-60 0 -92 31 -92 71c0 49 39 85 98 114h-15l14 90c-44 -63 -93 -101 -176 -101c-81 0 -136 47 -136 128c0 19 2 38 6 58l69 327h101l-63 -303c-4 -19 -8 -38 -8 -57c0 -44 21 -79 78 -79c88 0 132 80 148 156l59 283h102
l-81 -386c-8 -39 -15 -77 -19 -116h-27c-65 -43 -83 -71 -83 -102c0 -27 21 -38 44 -38c20 0 32 4 59 16z" />
    <glyph glyph-name="wcircumflex" unicode="&#x175;" horiz-adv-x="796" 
d="M219 0h-122l-48 500h103l28 -415l196 415h118l30 -415l195 415h99l-250 -500h-122l-29 416zM370 584h-76l130 136h92l72 -136h-76l-52 92z" />
    <glyph glyph-name="yacute" unicode="&#xfd;" horiz-adv-x="475" 
d="M-72 -217l22 75c15 -5 31 -9 46 -9c48 0 81 38 94 72l33 66l-72 513h106l40 -413l201 413h105l-306 -573c-48 -91 -99 -154 -194 -154c-29 0 -47 3 -75 10zM312 584h-76l100 136h106z" />
    <glyph glyph-name="ycircumflex" unicode="&#x177;" horiz-adv-x="475" 
d="M-72 -217l22 75c15 -5 31 -9 46 -9c48 0 81 38 94 72l33 66l-72 513h106l40 -413l201 413h105l-306 -573c-48 -91 -99 -154 -194 -154c-29 0 -47 3 -75 10zM215 584h-76l130 136h92l72 -136h-76l-52 92z" />
    <glyph glyph-name="ydieresis" unicode="&#xff;" horiz-adv-x="475" 
d="M-72 -217l22 75c15 -5 31 -9 46 -9c48 0 81 38 94 72l33 66l-72 513h106l40 -413l201 413h105l-306 -573c-48 -91 -99 -154 -194 -154c-29 0 -47 3 -75 10zM416 603h-83l21 97h82zM247 603h-83l21 97h83z" />
    <glyph glyph-name="zacute" unicode="&#x17a;" horiz-adv-x="452" 
d="M311 584h-76l100 136h106zM355 0h-383l17 79l341 348h-257l15 73h372l-17 -81l-339 -346h267z" />
    <glyph glyph-name="zcaron" unicode="&#x17e;" horiz-adv-x="452" 
d="M355 0h-383l17 79l341 348h-257l15 73h372l-17 -81l-339 -346h267zM335 584h-92l-73 136h77l51 -92l91 92h76z" />
    <glyph glyph-name="zdotaccent" unicode="&#x17c;" horiz-adv-x="452" 
d="M341 603h-103l20 97h103zM355 0h-383l17 79l341 348h-257l15 73h372l-17 -81l-339 -346h267z" />
    <glyph glyph-name="grave.cap" unicode="&#xe300;" horiz-adv-x="243" 
d="M223 724h-75l-73 136h107z" />
    <glyph glyph-name="acute" unicode="&#xb4;" horiz-adv-x="243" 
d="M203 584h-76l100 136h106z" />
    <glyph glyph-name="acute.cap" unicode="&#xe301;" horiz-adv-x="243" 
d="M203 724h-76l100 136h106z" />
    <glyph glyph-name="circumflex" unicode="&#x2c6;" horiz-adv-x="243" 
d="M105 584h-76l130 136h92l72 -136h-76l-52 92z" />
    <glyph glyph-name="circumflex.cap" unicode="&#xe302;" horiz-adv-x="243" 
d="M105 724h-76l130 136h92l72 -136h-76l-52 92z" />
    <glyph glyph-name="caron" unicode="&#x2c7;" horiz-adv-x="243" 
d="M225 584h-92l-73 136h77l51 -92l91 92h76z" />
    <glyph glyph-name="caron.cap" unicode="&#xe303;" horiz-adv-x="243" 
d="M225 724h-92l-73 136h77l51 -92l91 92h76z" />
    <glyph glyph-name="caron.alt" unicode="&#xe30b;" horiz-adv-x="243" 
d="M350 561h-70l54 159h93z" />
    <glyph glyph-name="tilde" unicode="&#x2dc;" horiz-adv-x="243" 
d="M82 595h-55c14 52 55 108 116 108c48 0 84 -40 116 -40c24 0 41 23 48 43h54c-13 -48 -58 -107 -114 -107c-53 0 -75 39 -114 39c-23 0 -47 -23 -51 -43z" />
    <glyph glyph-name="tilde.cap" unicode="&#xe304;" horiz-adv-x="243" 
d="M82 735h-55c14 52 55 108 116 108c48 0 84 -40 116 -40c24 0 41 23 48 43h54c-13 -48 -58 -107 -114 -107c-54 0 -74 39 -114 39c-23 0 -47 -23 -51 -43z" />
    <glyph glyph-name="dieresis" unicode="&#xa8;" horiz-adv-x="243" 
d="M309 603h-83l21 97h82zM140 603h-83l21 97h83z" />
    <glyph glyph-name="dieresis.cap" unicode="&#xe305;" horiz-adv-x="243" 
d="M140 743h-83l21 97h83zM309 743h-83l21 97h82z" />
    <glyph glyph-name="macron" unicode="&#xaf;" horiz-adv-x="243" 
d="M312 623h-266l12 59h267z" />
    <glyph glyph-name="macron.cap" unicode="&#xe306;" horiz-adv-x="243" 
d="M312 763h-266l12 59h267z" />
    <glyph glyph-name="uni02C9" unicode="&#x2c9;" horiz-adv-x="243" 
d="M312 623h-266l12 59h267z" />
    <glyph glyph-name="breve" unicode="&#x2d8;" horiz-adv-x="243" 
d="M75 713h52c0 -3 -1 -7 -1 -10c0 -37 27 -58 63 -58c41 0 79 28 91 68h52c-16 -73 -82 -124 -155 -124c-63 0 -105 35 -105 99c0 8 2 17 3 25z" />
    <glyph glyph-name="breve.cap" unicode="&#xe307;" horiz-adv-x="243" 
d="M75 853h52c-1 -2 -1 -5 -1 -10c0 -37 27 -58 63 -58c41 0 79 28 91 68h52c-16 -73 -82 -124 -155 -124c-64 0 -105 35 -105 99c0 9 1 17 3 25z" />
    <glyph glyph-name="ring" unicode="&#x2da;" horiz-adv-x="243" 
d="M189 556c-53 0 -94 41 -94 96c0 53 46 96 99 96s94 -41 94 -96c0 -53 -46 -96 -99 -96zM135 652c0 -32 24 -56 55 -56s58 24 58 56c0 31 -24 56 -55 56s-58 -25 -58 -56z" />
    <glyph glyph-name="ring.cap" unicode="&#xe308;" horiz-adv-x="243" 
d="M135 792c0 -32 24 -56 55 -56s58 24 58 56c0 31 -24 56 -55 56s-58 -25 -58 -56zM189 696c-53 0 -94 40 -94 96c0 53 46 96 99 96s94 -40 94 -96c0 -53 -46 -96 -99 -96z" />
    <glyph glyph-name="hungarumlaut" unicode="&#x2dd;" horiz-adv-x="243" 
d="M306 584h-76l99 136h108zM119 584h-76l99 136h107z" />
    <glyph glyph-name="hungarumlaut.cap" unicode="&#xe309;" horiz-adv-x="243" 
d="M119 724h-76l99 136h107zM306 724h-76l99 136h108z" />
    <glyph glyph-name="dotaccent" unicode="&#x2d9;" horiz-adv-x="243" 
d="M235 603h-103l20 97h103z" />
    <glyph glyph-name="dotaccent.cap" unicode="&#xe30a;" horiz-adv-x="243" 
d="M235 743h-103l20 97h103z" />
    <glyph glyph-name="cedilla" unicode="&#xb8;" horiz-adv-x="243" 
d="M-37 -167l17 39c31 -12 56 -16 79 -16c31 0 50 14 50 34s-17 28 -33 28c-15 0 -30 -1 -47 -8l-14 23l57 67h46l-44 -52c11 3 24 4 37 4c33 0 62 -24 62 -59c-5 -55 -51 -78 -115 -78c-29 0 -59 3 -95 18z" />
    <glyph glyph-name="ogonek" unicode="&#x2db;" horiz-adv-x="243" 
d="M151 -124l9 -40c-28 -13 -52 -21 -87 -21c-60 0 -92 31 -92 71c0 49 39 85 98 114h52c-65 -43 -83 -71 -83 -102c0 -27 21 -38 44 -38c20 0 32 4 59 16z" />
    <glyph glyph-name="commaaccent" unicode="&#xe30c;" horiz-adv-x="243" 
d="M52 -227h-63l59 159h87z" />
    <glyph glyph-name="commaaccent.alt" unicode="&#xe30d;" horiz-adv-x="243" 
d="M423 584h-84l75 136h62z" />
    <glyph glyph-name="ellipsis" unicode="&#x2026;" horiz-adv-x="1000" 
d="M809 0h-106l22 103h106zM480 0h-106l23 103h105zM152 0h-106l22 103h106z" />
    <glyph glyph-name="uni00AD" unicode="&#xad;" horiz-adv-x="326" 
d="M273 269h-243l17 82h243z" />
    <glyph glyph-name="exclamdown" unicode="&#xa1;" horiz-adv-x="279" 
d="M209 395h-105l21 102h106zM94 -170h-115l120 488h83z" />
    <glyph glyph-name="questiondown" unicode="&#xbf;" horiz-adv-x="427" 
d="M319 -64l-14 -82c-33 -12 -84 -31 -160 -31c-82 0 -166 47 -166 133c0 176 203 185 231 334l6 32h90l-6 -31c-36 -175 -214 -196 -214 -311c0 -51 46 -75 95 -75c47 0 99 14 138 31zM330 398h-105l21 102h106z" />
    <glyph glyph-name="quoteleft" unicode="&#x2018;" horiz-adv-x="281" 
d="M186 491h-101l133 230h75z" />
    <glyph glyph-name="quoteright" unicode="&#x2019;" horiz-adv-x="281" 
d="M165 491h-75l107 230h101z" />
    <glyph glyph-name="quotedblleft" unicode="&#x201c;" horiz-adv-x="463" 
d="M368 491h-101l133 230h75zM186 491h-101l133 230h75z" />
    <glyph glyph-name="quotedblright" unicode="&#x201d;" horiz-adv-x="463" 
d="M347 491h-75l107 230h101zM165 491h-75l107 230h101z" />
    <glyph glyph-name="quotesinglbase" unicode="&#x201a;" horiz-adv-x="281" 
d="M28 -128h-75l107 231h101z" />
    <glyph glyph-name="quotedblbase" unicode="&#x201e;" horiz-adv-x="463" 
d="M210 -128h-75l107 231h101zM28 -128h-75l107 231h101z" />
    <glyph glyph-name="guilsinglleft" unicode="&#x2039;" horiz-adv-x="284" 
d="M191 55h-84l-96 201l168 199h87l-165 -199z" />
    <glyph glyph-name="guilsinglright" unicode="&#x203a;" horiz-adv-x="284" 
d="M70 55h-87l165 200l-90 200h84l96 -200z" />
    <glyph glyph-name="guillemotleft" unicode="&#xab;" horiz-adv-x="468" 
d="M375 55h-84l-96 201l168 199h87l-165 -199zM191 55h-84l-96 201l168 199h87l-165 -199z" />
    <glyph glyph-name="guillemotright" unicode="&#xbb;" horiz-adv-x="468" 
d="M254 55h-87l165 200l-90 200h84l96 -200zM70 55h-87l165 200l-90 200h84l96 -200z" />
    <glyph glyph-name="endash" unicode="&#x2013;" horiz-adv-x="500" 
d="M489 275h-493l15 70h493z" />
    <glyph glyph-name="emdash" unicode="&#x2014;" horiz-adv-x="1000" 
d="M989 275h-993l15 70h993z" />
    <glyph glyph-name="bullet" unicode="&#x2022;" 
d="M233 195c-43 20 -74 63 -74 115c0 68 54 125 122 125s124 -57 124 -125s-56 -125 -124 -125c-17 0 -33 3 -48 10z" />
    <glyph glyph-name="periodcentered" unicode="&#xb7;" horiz-adv-x="281" 
d="M176 258h-106l22 102h105z" />
    <glyph glyph-name="uni2219" unicode="&#x2219;" horiz-adv-x="281" 
d="M176 258h-106l22 102h105z" />
    <glyph glyph-name="dagger" unicode="&#x2020;" 
d="M227 -128h-101l116 547h-173l18 85h173l45 217h101l-45 -217h173l-18 -85h-173z" />
    <glyph glyph-name="daggerdbl" unicode="&#x2021;" 
d="M228 -128h-101l45 218h-173l18 85h173l53 244h-173l18 85h173l45 217h101l-45 -217h173l-18 -85h-173l-53 -244h173l-18 -85h-173z" />
    <glyph glyph-name="section" unicode="&#xa7;" 
d="M6 -88l23 75c52 -25 97 -40 156 -40c57 0 125 32 125 96c0 37 -33 55 -70 74l-97 49c-40 20 -68 56 -68 100c0 76 59 116 116 154c-29 19 -47 48 -47 83c0 123 113 174 225 174c55 0 96 -11 144 -27l-21 -74c-35 16 -76 30 -117 30c-56 0 -131 -19 -131 -88
c0 -37 37 -58 69 -74l85 -43c43 -21 76 -46 76 -97c0 -71 -57 -120 -105 -155c25 -20 42 -47 42 -83c0 -136 -116 -190 -236 -190c-56 0 -118 13 -169 36zM212 225l99 -49c31 23 73 62 73 106c0 31 -31 49 -59 64l-82 41c-33 -16 -77 -60 -77 -100c0 -29 22 -50 46 -62z" />
    <glyph glyph-name="paragraph" unicode="&#xb6;" 
d="M210 -108h-77l91 430c-84 0 -166 43 -166 136c0 149 128 217 261 217h252l-167 -783h-77l153 720h-117z" />
    <glyph glyph-name="brokenbar" unicode="&#xa6;" horiz-adv-x="215" 
d="M152 379h-87v396h87v-396zM152 -216h-87v397h87v-397z" />
    <glyph glyph-name="copyright" unicode="&#xa9;" horiz-adv-x="768" 
d="M250 16c-124 53 -210 175 -210 318c0 189 154 343 344 343s344 -154 344 -343c0 -190 -154 -345 -344 -345c-47 0 -92 9 -134 27zM186 133c51 -52 121 -85 198 -85c156 0 277 131 277 286s-122 284 -277 284c-156 0 -278 -129 -278 -284c0 -77 31 -149 80 -201zM509 217
l4 -58c-29 -12 -64 -18 -96 -18c-130 0 -215 72 -215 193c0 117 91 193 215 193c31 0 67 -5 96 -16l-4 -58c-25 11 -56 18 -84 18c-95 0 -150 -54 -150 -137s54 -136 150 -136c31 0 56 7 84 19z" />
    <glyph glyph-name="registered" unicode="&#xae;" horiz-adv-x="768" 
d="M250 16c-124 53 -210 175 -210 318c0 189 154 343 344 343s344 -154 344 -343c0 -190 -154 -345 -344 -345c-47 0 -92 9 -134 27zM187 133c51 -52 120 -85 197 -85c156 0 278 131 278 286s-122 284 -278 284c-155 0 -277 -129 -277 -284c0 -77 31 -149 80 -201zM318 153
h-70v376h141c69 0 133 -28 133 -100c0 -51 -43 -84 -94 -92c33 -7 50 -24 62 -52l56 -132h-74l-47 112c-15 36 -29 49 -74 49h-33v-161zM317 477v-112h42c44 0 91 12 91 60c0 44 -47 52 -92 52h-41z" />
    <glyph glyph-name="trademark" unicode="&#x2122;" horiz-adv-x="969" 
d="M525 266h-73v401h122l128 -319l123 319h122v-401h-76v350l-136 -350h-72l-138 350v-350zM265 266h-81v341h-133v60h348v-60h-134v-341z" />
    <glyph glyph-name="currency" unicode="&#xa4;" 
d="M143 159l-64 -65l-51 51l64 64c-27 39 -40 76 -40 124c0 45 13 86 40 124l-64 65l50 50l64 -65c38 27 79 40 124 40c48 0 85 -12 125 -39l64 63l50 -50l-64 -64c25 -39 40 -78 40 -125c0 -45 -13 -85 -40 -122l64 -66l-50 -50l-65 65c-37 -27 -78 -41 -123 -41
s-87 16 -124 41zM138 279c22 -49 70 -85 128 -85c77 0 139 62 139 139c0 76 -62 139 -139 139s-138 -62 -138 -139c0 -19 3 -37 10 -54z" />
    <glyph glyph-name="Euro" unicode="&#x20ac;" 
d="M103 239h-90l24 56h69c3 27 6 52 14 77h-77l24 55h71c48 141 174 250 328 250c43 0 89 -8 128 -25l-34 -79c-35 16 -63 21 -102 21c-95 0 -177 -82 -209 -167h250l-24 -55h-246c-7 -25 -12 -50 -16 -77h229l-24 -56h-209c0 -88 38 -167 139 -167c37 0 76 6 111 19l-3 -86
c-40 -13 -81 -16 -124 -16c-155 0 -229 101 -229 250z" />
    <glyph glyph-name="cent" unicode="&#xa2;" 
d="M281 0h-58l20 92c-85 13 -145 79 -145 171c0 157 94 292 250 311l19 93h58l-18 -91c35 -1 68 -8 101 -19l-21 -74c-31 16 -65 23 -100 23c-115 0 -189 -116 -189 -222c0 -67 41 -124 111 -124c38 0 76 7 115 22l-11 -75c-37 -11 -73 -16 -112 -17z" />
    <glyph glyph-name="sterling" unicode="&#xa3;" 
d="M424 0h-412l16 76h78l52 242h-75l16 74h74l11 55c31 147 114 230 273 230c37 0 88 -11 116 -20l-23 -78c-25 13 -55 21 -96 21c-115 0 -152 -82 -168 -159l-11 -49h163l-16 -74h-163l-51 -242h232z" />
    <glyph glyph-name="florin" unicode="&#x192;" 
d="M9 -220l5 73c15 -4 28 -4 43 -4c64 0 85 88 96 136l72 342h-108v73h123l23 105c19 92 64 172 168 172c25 0 48 -3 70 -10l-6 -70c-15 4 -31 8 -46 8c-60 0 -78 -62 -89 -107l-22 -98h108v-73h-123l-73 -349c-19 -92 -60 -205 -163 -205c-27 0 -53 2 -78 7z" />
    <glyph glyph-name="yen" unicode="&#xa5;" 
d="M255 0h-104l30 138h-145l13 65h145l16 73h-145l14 65h113l-99 326h108l82 -309l214 309h106l-244 -326h118l-14 -65h-149l-16 -73h149l-13 -65h-150z" />
    <glyph glyph-name="ordfeminine" unicode="&#xaa;" horiz-adv-x="380" 
d="M296 533l19 85c-10 4 -21 6 -34 6c-76 0 -142 -82 -142 -158c0 -31 14 -53 46 -53c41 0 98 57 111 120zM345 366h-73c0 17 3 44 10 75c-31 -48 -74 -82 -130 -82c-57 0 -92 39 -92 99c0 121 100 219 233 219c41 0 72 -5 109 -14l-37 -164c-13 -57 -20 -105 -20 -133z" />
    <glyph glyph-name="ordmasculine" unicode="&#xba;" horiz-adv-x="380" 
d="M142 479c0 -43 20 -65 60 -65c67 0 111 80 111 143c0 43 -20 64 -60 64c-67 0 -111 -81 -111 -142zM99 388c-24 20 -36 48 -36 85c0 113 81 204 199 204c77 0 131 -41 131 -114c0 -113 -82 -204 -200 -204c-39 0 -70 10 -94 29z" />
    <glyph glyph-name="onesuperior" unicode="&#xb9;" horiz-adv-x="430" 
d="M281 370h-78l72 324l-96 -61l-31 57l155 84h67z" />
    <glyph glyph-name="twosuperior" unicode="&#xb2;" horiz-adv-x="430" 
d="M357 370h-291l14 60l128 95c69 51 127 96 127 142c0 32 -31 54 -74 54c-44 0 -75 -12 -107 -25l8 60c32 15 77 24 124 24c70 0 131 -34 131 -98c0 -80 -64 -131 -148 -190l-89 -64h190z" />
    <glyph glyph-name="threesuperior" unicode="&#xb3;" horiz-adv-x="430" 
d="M63 379l16 59c29 -12 68 -17 101 -17c62 0 121 23 121 79c0 40 -53 52 -97 52h-48l13 54h44c52 0 121 15 121 68c0 35 -41 50 -84 50c-40 0 -68 -6 -100 -18l9 57c31 11 66 17 114 17c68 0 141 -26 141 -93c0 -63 -46 -96 -97 -109c39 -9 64 -40 64 -76
c0 -104 -111 -139 -201 -139c-37 0 -80 4 -117 16z" />
    <glyph glyph-name="fraction" unicode="&#x2044;" horiz-adv-x="171" 
d="M-88 -24h-69l423 715h69z" />
    <glyph glyph-name="uni2215" unicode="&#x2215;" horiz-adv-x="171" 
d="M-88 -24h-69l423 715h69z" />
    <glyph glyph-name="onequarter" unicode="&#xbc;" horiz-adv-x="950" 
d="M243 267h-78l72 324l-96 -61l-31 57l155 84h67zM699 339l-182 -196h137zM641 85h-204l15 66l245 253h86l-58 -260h59l-13 -59h-59l-18 -85h-72zM240 -24h-69l423 715h69z" />
    <glyph glyph-name="onehalf" unicode="&#xbd;" horiz-adv-x="950" 
d="M228 267h-78l72 324l-96 -61l-31 57l155 84h67zM755 0h-291l14 60l128 95c69 51 127 96 127 142c0 32 -31 54 -74 54c-44 0 -75 -12 -107 -25l8 60c32 15 77 24 124 24c70 0 131 -34 131 -98c0 -80 -64 -131 -148 -190l-89 -64h190zM226 -24h-69l423 715h69z" />
    <glyph glyph-name="threequarters" unicode="&#xbe;" horiz-adv-x="950" 
d="M784 339l-182 -196h137zM726 85h-204l15 66l245 253h86l-58 -260h59l-13 -59h-59l-18 -85h-72zM61 276l16 59c29 -12 68 -17 101 -17c62 0 121 23 121 79c0 40 -53 52 -97 52h-48l13 54h44c52 0 121 15 121 68c0 35 -41 50 -84 50c-40 0 -68 -6 -100 -18l9 57
c31 11 66 17 114 17c68 0 141 -26 141 -93c0 -63 -46 -96 -97 -109c39 -9 64 -40 64 -76c0 -104 -111 -139 -201 -139c-37 0 -80 4 -117 16zM325 -24h-68l423 715h69z" />
    <glyph glyph-name="perthousand" unicode="&#x2030;" horiz-adv-x="1318" 
d="M989 -1c-46 20 -66 65 -66 120c0 115 65 282 213 282c84 0 122 -52 122 -124c0 -121 -56 -288 -214 -288c-21 0 -40 3 -55 10zM606 -1c-46 20 -67 65 -67 120c0 115 65 282 214 282c84 0 122 -52 122 -124c0 -121 -56 -288 -214 -288c-21 0 -40 3 -55 10zM288 -24h-68
l423 715h69zM124 275c-46 20 -66 65 -66 120c0 115 65 282 213 282c84 0 122 -52 122 -124c0 -121 -56 -288 -214 -288c-21 0 -40 3 -55 10zM1009 61c8 -13 22 -22 46 -22c92 0 128 176 128 241c0 36 -12 72 -57 72c-92 0 -128 -176 -128 -241c0 -19 3 -35 11 -50zM625 61
c8 -15 24 -22 47 -22c92 0 128 176 128 241c0 36 -12 72 -57 72c-91 0 -129 -176 -129 -241c0 -18 4 -35 11 -50zM144 337c8 -13 22 -22 46 -22c92 0 128 176 128 241c0 36 -12 72 -57 72c-92 0 -128 -176 -128 -241c0 -19 3 -35 11 -50z" />
    <glyph glyph-name="minus" unicode="&#x2212;" 
d="M522 211h-511v78h511v-78z" />
    <glyph glyph-name="plusminus" unicode="&#xb1;" 
d="M240 270h-215v78h215v170h81v-170h215v-78h-215v-168h-81v168zM536 -19h-511v77h511v-77z" />
    <glyph glyph-name="multiply" unicode="&#xd7;" 
d="M94 8l-56 55l187 187l-187 186l56 57l186 -188l187 187l56 -56l-186 -186l186 -187l-56 -56l-186 187z" />
    <glyph glyph-name="divide" unicode="&#xf7;" 
d="M266 374c-33 0 -59 25 -59 60c0 33 26 60 59 60s60 -27 60 -60s-25 -60 -60 -60zM522 210h-511v79h511v-79zM266 4c-33 0 -59 26 -59 61c0 33 26 60 59 60s60 -27 60 -60s-25 -61 -60 -61z" />
    <glyph glyph-name="notequal" unicode="&#x2260;" 
d="M172 -36l-68 35l59 112h-138v77h178l63 122h-241v78h282l78 150l68 -35l-61 -115h144v-78h-184l-64 -122h248v-77h-288z" />
    <glyph glyph-name="approxequal" unicode="&#x2248;" 
d="M55 263h-56c8 72 43 154 131 154c91 0 190 -69 275 -69c45 0 66 33 74 73h54c-5 -73 -45 -153 -129 -153c-91 0 -195 70 -275 70c-43 0 -69 -36 -74 -75zM55 78h-56c8 72 43 154 131 154c91 0 190 -70 275 -70c45 0 66 34 74 74h54c-5 -73 -45 -153 -129 -153
c-91 0 -195 70 -275 70c-43 0 -69 -36 -74 -75z" />
    <glyph glyph-name="lessequal" unicode="&#x2264;" 
d="M536 84l-511 185v82l511 180v-83l-403 -138l403 -143v-83zM536 -33h-511v78h511v-78z" />
    <glyph glyph-name="greaterequal" unicode="&#x2265;" 
d="M536 269l-511 -185v83l402 143l-402 138v83l511 -180v-82zM536 -33h-511v78h511v-78z" />
    <glyph glyph-name="logicalnot" unicode="&#xac;" 
d="M455 310h-430v78h511v-277h-81v199z" />
    <glyph glyph-name="Delta" unicode="&#x2206;" horiz-adv-x="750" 
d="M685 0h-650l274 679h96zM358 592l-209 -516h420z" />
    <glyph glyph-name="uni0394" unicode="&#x394;" horiz-adv-x="750" 
d="M685 0h-650l274 679h96zM358 592l-209 -516h420z" />
    <glyph glyph-name="Omega" unicode="&#x2126;" horiz-adv-x="750" 
d="M324 0h-271v77h196v64c-121 24 -196 143 -196 262c0 172 146 286 308 286c160 0 307 -117 307 -286c0 -119 -74 -238 -197 -262v-64h196v-77h-270v186c113 3 180 105 180 210c0 120 -96 217 -216 217s-217 -98 -217 -218c0 -106 68 -206 180 -209v-186z" />
    <glyph glyph-name="uni03A9" unicode="&#x3a9;" horiz-adv-x="750" 
d="M324 0h-271v77h196v64c-121 24 -196 143 -196 262c0 172 146 286 308 286c160 0 307 -117 307 -286c0 -119 -74 -238 -197 -262v-64h196v-77h-270v186c113 3 180 105 180 210c0 120 -96 217 -216 217s-217 -98 -217 -218c0 -106 68 -206 180 -209v-186z" />
    <glyph glyph-name="mu" unicode="&#xb5;" 
d="M60 -216h-100l153 718h101l-63 -303c-4 -20 -8 -40 -8 -57c0 -44 21 -79 78 -79c88 0 132 80 148 156l59 283h102l-80 -386c-8 -39 -16 -77 -20 -116h-94l15 90c-40 -59 -93 -98 -158 -98c-40 0 -70 18 -81 35z" />
    <glyph glyph-name="uni03BC" unicode="&#x3bc;" 
d="M60 -216h-100l153 718h101l-63 -303c-4 -20 -8 -40 -8 -57c0 -44 21 -79 78 -79c88 0 132 80 148 156l59 283h102l-80 -386c-8 -39 -16 -77 -20 -116h-94l15 90c-40 -59 -93 -98 -158 -98c-40 0 -70 18 -81 35z" />
    <glyph glyph-name="pi" unicode="&#x3c0;" horiz-adv-x="650" 
d="M217 0h-82v405h-70v77h464v-77h-81v-290c0 -24 0 -53 32 -53c15 0 32 8 49 16v-67c-25 -13 -46 -21 -75 -21c-69 0 -87 43 -87 103v312h-150v-405z" />
    <glyph glyph-name="degree" unicode="&#xb0;" horiz-adv-x="400" 
d="M139 423c-25 25 -42 61 -42 102c0 84 68 152 153 152c81 0 146 -61 146 -143c0 -84 -68 -152 -153 -152c-40 0 -77 16 -104 41zM155 527c0 -49 41 -87 89 -87c51 0 94 42 94 93c0 52 -37 87 -89 87c-55 0 -94 -37 -94 -93z" />
    <glyph glyph-name="afii61289" unicode="&#x2113;" horiz-adv-x="500" 
d="M285 566l-46 -216c69 61 159 170 159 260c0 31 -17 53 -40 53c-31 0 -57 -24 -73 -97zM61 159h-2l-25 49l110 83l54 256c25 117 89 174 169 174c60 0 102 -45 102 -106c0 -120 -110 -239 -246 -343c-32 -135 -33 -156 -33 -169c0 -41 26 -54 51 -54c28 0 55 10 99 41h2
l22 -49c-51 -37 -95 -55 -146 -55c-69 0 -113 37 -113 102c0 15 2 33 23 128z" />
    <glyph glyph-name="estimated" unicode="&#x212e;" horiz-adv-x="600" 
d="M157 440v-145h291v145c-42 40 -91 60 -147 60s-104 -20 -144 -60zM157 259v-181c39 -39 88 -59 145 -59c84 0 142 36 193 120l35 -21c-61 -96 -123 -135 -228 -135c-157 0 -258 122 -258 276c0 155 101 276 258 276c154 0 259 -114 259 -276h-404z" />
    <glyph glyph-name="infinity" unicode="&#x221e;" horiz-adv-x="818" 
d="M150 183c18 -19 41 -28 69 -28c60 0 98 61 133 101c-33 41 -75 97 -132 97c-53 0 -96 -46 -96 -100c0 -27 9 -51 26 -70zM463 278c-9 -11 -18 -22 -25 -31c32 -46 71 -96 131 -96c56 0 95 45 95 100c0 52 -41 98 -94 98c-39 0 -77 -36 -107 -71zM429 152
c-11 14 -22 29 -33 44c-45 -60 -92 -111 -172 -111c-96 0 -167 71 -167 168c0 96 66 169 164 169c80 0 129 -56 172 -117c49 59 86 114 172 114c97 0 167 -70 167 -166c0 -95 -67 -171 -163 -171c-62 0 -104 29 -140 70z" />
    <glyph glyph-name="partialdiff" unicode="&#x2202;" 
d="M169 97c23 -31 54 -52 98 -52c116 0 139 171 144 256c-37 39 -82 70 -138 70c-93 0 -136 -80 -136 -164c0 -39 11 -79 32 -110zM136 606l-44 53c47 40 92 61 155 61c195 0 249 -200 249 -358c0 -147 -43 -375 -232 -375c-128 0 -206 109 -206 230c0 119 77 212 200 212
c61 0 111 -27 155 -68v21c0 128 -36 278 -157 278c-47 0 -89 -19 -120 -54z" />
    <glyph glyph-name="integral" unicode="&#x222b;" 
d="M101 -216l6 71c15 -6 31 -9 48 -9c68 0 70 72 70 100v666c0 82 19 173 138 173c23 0 51 -2 72 -11l-6 -71c-15 6 -31 9 -48 9c-68 0 -70 -71 -70 -99v-667c0 -83 -17 -173 -137 -173c-23 0 -52 2 -73 11z" />
    <glyph glyph-name="radical" unicode="&#x221a;" 
d="M339 -200h-74l-154 334l-49 -22l-30 59l121 55l140 -313l159 887h76z" />
    <glyph glyph-name="summation" unicode="&#x2211;" horiz-adv-x="750" 
d="M673 -200h-613v74l276 434l-259 421v71h579v-76h-477l255 -416l-273 -428h512v-80z" />
    <glyph glyph-name="product" unicode="&#x220f;" horiz-adv-x="750" 
d="M162 -200h-82v1000h561v-1000h-82v920h-397v-920z" />
    <glyph glyph-name="lozenge" unicode="&#x25ca;" 
d="M331 0h-77l-174 400l174 400h77l176 -400zM162 400l131 -316l131 316l-131 316z" />
    <glyph glyph-name="uniF8FF" unicode="&#xf8ff;" horiz-adv-x="512" 
d="M269 117h-59v64h59v-64zM263 241h-47v9c0 123 112 131 112 236c0 44 -31 77 -82 77c-33 0 -66 -8 -98 -21l-4 47c33 13 63 20 102 20c79 0 134 -44 134 -124c0 -114 -117 -129 -117 -233v-11zM512 0h-512v718h512v-718zM50 667v-617h412v617h-412z" />
    <glyph glyph-name="exclam.sc" unicode="&#xe000;" horiz-adv-x="281" 
d="M125 0h-104l20 99h104zM145 172h-76l63 362h105z" />
    <glyph glyph-name="dollar.sc" unicode="&#xe001;" horiz-adv-x="478" 
d="M178 -85h-59l16 75c-44 1 -92 7 -131 22l25 80c32 -17 78 -27 129 -27c76 0 122 29 122 86c0 35 -23 59 -84 91c-83 43 -119 76 -119 139c0 89 75 148 183 161l17 77h59l-16 -75c37 -1 78 -8 111 -21l-25 -77c-31 15 -74 23 -109 23c-76 0 -122 -33 -122 -76
c0 -33 20 -52 79 -83c85 -45 124 -81 124 -148c0 -92 -67 -159 -184 -171z" />
    <glyph glyph-name="percent.sc" unicode="&#xe002;" horiz-adv-x="792" 
d="M242 -19h-59l341 571h59zM534 -11c-75 0 -111 46 -111 110c0 111 66 220 170 220c75 0 110 -46 110 -110c0 -112 -63 -220 -169 -220zM503 52c9 -11 20 -16 35 -16c59 0 98 101 98 178c0 33 -17 58 -46 58c-58 0 -100 -101 -100 -178c0 -17 4 -31 13 -42zM174 215
c-75 0 -111 46 -111 110c0 111 66 220 170 220c75 0 110 -46 110 -110c0 -112 -63 -220 -169 -220zM143 278c9 -11 20 -16 35 -16c59 0 98 101 98 178c0 33 -17 58 -46 58c-58 0 -100 -101 -100 -178c0 -17 4 -31 13 -42z" />
    <glyph glyph-name="ampersand.sc" unicode="&#xe003;" horiz-adv-x="563" 
d="M354 243h-97c-79 0 -150 -27 -150 -104c0 -51 41 -80 110 -80c35 0 65 4 98 12zM441 243l-50 -229c-65 -15 -127 -25 -183 -25c-124 0 -200 51 -200 135c0 91 66 144 151 155c-49 11 -83 52 -83 97c0 105 103 169 232 169c47 0 101 -4 148 -19l-20 -73
c-43 17 -87 22 -131 22c-67 0 -133 -29 -133 -97c0 -47 43 -71 100 -71h94l12 58h89l-13 -58h82l-14 -64h-81z" />
    <glyph glyph-name="zero.sc" unicode="&#xe10a;" horiz-adv-x="478" 
d="M127 92c10 -20 28 -30 53 -30c95 0 156 182 156 315c0 56 -21 95 -68 95c-92 0 -156 -173 -156 -304c0 -30 5 -55 15 -76zM103 2c-58 26 -89 83 -89 158c0 179 92 385 263 385c102 0 157 -73 157 -170c0 -180 -89 -386 -263 -386c-26 0 -49 4 -68 13z" />
    <glyph glyph-name="one.sc" unicode="&#xe10b;" horiz-adv-x="478" 
d="M249 0h-97l92 428l-120 -81l-37 72l190 115h86z" />
    <glyph glyph-name="two.sc" unicode="&#xe10c;" horiz-adv-x="478" 
d="M343 0h-367l17 75l176 139c122 95 144 138 144 185c0 45 -34 69 -86 69c-48 0 -85 -10 -140 -35l10 80c55 21 97 32 158 32c92 0 157 -51 157 -132c0 -84 -41 -143 -164 -239l-132 -102h242z" />
    <glyph glyph-name="three.sc" unicode="&#xe10d;" horiz-adv-x="478" 
d="M-24 10l23 75c44 -16 85 -23 128 -23c84 0 149 32 149 102c0 47 -38 77 -119 77h-62l14 68h63c93 0 147 28 147 91c0 43 -35 72 -99 72c-48 0 -88 -8 -133 -25l9 75c37 12 80 23 143 23c107 0 178 -53 178 -133c0 -72 -64 -127 -133 -140c57 -11 92 -57 92 -104
c0 -120 -114 -179 -251 -179c-48 0 -100 5 -149 21z" />
    <glyph glyph-name="four.sc" unicode="&#xe10e;" horiz-adv-x="478" 
d="M309 443l-225 -256h168zM235 116h-252l16 80l305 338h114l-74 -346h77l-16 -72h-77l-25 -116h-94z" />
    <glyph glyph-name="five.sc" unicode="&#xe10f;" horiz-adv-x="478" 
d="M-3 8l20 78c39 -15 77 -22 114 -22c96 0 162 40 162 117c0 51 -33 84 -109 84c-49 0 -91 -9 -128 -20l64 289h317l-16 -75h-228l-32 -137c23 5 43 8 68 8c104 0 163 -56 163 -141c0 -129 -107 -200 -258 -200c-44 0 -92 6 -137 19z" />
    <glyph glyph-name="six.sc" unicode="&#xe110;" horiz-adv-x="478" 
d="M136 83c17 -17 38 -26 64 -26c68 0 114 54 114 131c0 51 -28 86 -80 86c-68 0 -122 -54 -122 -122c0 -28 8 -51 24 -69zM449 520l-24 -71c-33 16 -73 23 -110 23c-111 0 -173 -83 -192 -196c39 47 92 66 143 66c80 0 143 -54 143 -144c0 -124 -92 -209 -215 -209
c-108 0 -172 69 -172 177c0 170 81 379 298 379c46 0 89 -8 129 -25z" />
    <glyph glyph-name="seven.sc" unicode="&#xe111;" horiz-adv-x="478" 
d="M145 0h-123l309 455h-275l15 79h383l-16 -77z" />
    <glyph glyph-name="eight.sc" unicode="&#xe112;" horiz-adv-x="478" 
d="M181 341c13 -13 31 -24 52 -33c63 21 110 49 110 105c0 35 -33 64 -77 64c-68 0 -104 -42 -104 -87c0 -20 6 -36 19 -49zM278 211c-15 15 -36 27 -61 37c-83 -21 -124 -61 -124 -118c0 -43 34 -72 89 -72c72 0 119 42 119 103c0 19 -8 36 -23 50zM36 219
c28 27 64 46 107 59c-55 32 -77 64 -77 111c0 85 84 156 209 156c99 0 163 -54 163 -122c0 -79 -64 -123 -134 -147c56 -24 96 -65 96 -118c0 -103 -102 -169 -232 -169c-101 0 -174 49 -174 129c0 41 14 75 42 101z" />
    <glyph glyph-name="nine.sc" unicode="&#xe113;" horiz-adv-x="478" 
d="M151 282c15 -15 35 -23 61 -23c69 0 123 54 123 122c0 56 -35 95 -87 95c-69 0 -118 -57 -118 -133c0 -25 7 -46 21 -61zM-8 12l23 73c32 -15 76 -23 112 -23c113 0 174 85 195 196c-39 -47 -93 -67 -144 -67c-79 0 -140 51 -140 142c0 116 89 212 216 212
c108 0 170 -72 170 -179c0 -173 -83 -377 -301 -377c-45 0 -88 7 -131 23z" />
    <glyph glyph-name="question.sc" unicode="&#xe004;" horiz-adv-x="381" 
d="M152 0h-104l20 99h104zM175 172h-87c8 62 30 94 102 147c43 31 64 54 64 91s-29 61 -76 61c-37 0 -75 -8 -122 -24l7 75c40 15 79 23 132 23c96 0 156 -49 156 -120c0 -56 -27 -97 -91 -141c-59 -40 -77 -67 -85 -112z" />
    <glyph glyph-name="a.sc" unicode="&#xe005;" horiz-adv-x="552" 
d="M311 470l-152 -261h193zM44 0h-106l321 534h126l93 -534h-98l-21 138h-235z" />
    <glyph glyph-name="b.sc" unicode="&#xe006;" horiz-adv-x="490" 
d="M195 468l-35 -162h64c68 0 131 27 131 99c0 45 -43 63 -87 63h-73zM148 244l-39 -178h66c76 0 141 20 141 108c0 60 -66 70 -115 70h-53zM180 0h-180l114 534h189c77 0 147 -37 147 -113c0 -73 -51 -130 -127 -145c60 -15 92 -55 92 -108c0 -129 -112 -168 -235 -168z
" />
    <glyph glyph-name="c.sc" unicode="&#xe007;" horiz-adv-x="487" 
d="M402 89l-9 -78c-47 -19 -93 -22 -136 -22c-145 0 -236 93 -236 224c0 195 136 332 336 332c63 0 98 -10 138 -23l-27 -78c-29 17 -66 25 -111 25c-144 0 -232 -109 -232 -245c0 -91 50 -159 157 -159c39 0 79 8 120 24z" />
    <glyph glyph-name="d.sc" unicode="&#xe008;" horiz-adv-x="565" 
d="M196 462l-83 -390h48c165 0 246 94 246 245c0 112 -75 145 -156 145h-55zM154 0h-154l114 534h162c127 0 236 -60 236 -209c0 -219 -145 -325 -358 -325z" />
    <glyph glyph-name="e.sc" unicode="&#xe009;" horiz-adv-x="445" 
d="M331 0h-331l114 534h325l-16 -73h-228l-33 -153h216l-15 -70h-215l-36 -166h235z" />
    <glyph glyph-name="f.sc" unicode="&#xe00a;" horiz-adv-x="422" 
d="M98 0h-98l114 534h318l-16 -73h-219l-34 -157h210l-16 -71h-209z" />
    <glyph glyph-name="g.sc" unicode="&#xe00b;" horiz-adv-x="558" 
d="M500 283l-56 -261c-64 -23 -118 -33 -185 -33c-143 0 -238 92 -238 224c0 212 157 332 345 332c60 0 104 -8 159 -28l-24 -75c-41 21 -85 29 -132 29c-149 0 -244 -107 -244 -253c0 -88 50 -157 149 -157c35 0 62 2 99 15l29 138h-97l15 69h180z" />
    <glyph glyph-name="h.sc" unicode="&#xe00c;" horiz-adv-x="569" 
d="M98 0h-98l114 534h98l-47 -220h230l47 220h98l-114 -534h-98l51 234h-231z" />
    <glyph glyph-name="i.sc" unicode="&#xe00d;" horiz-adv-x="241" 
d="M98 0h-98l114 534h98z" />
    <glyph glyph-name="j.sc" unicode="&#xe00e;" horiz-adv-x="299" 
d="M-64 1l20 77c16 -7 30 -9 46 -9c56 0 83 36 96 96l78 369h98l-83 -387c-21 -99 -80 -158 -180 -158c-32 0 -51 4 -75 12z" />
    <glyph glyph-name="k.sc" unicode="&#xe00f;" horiz-adv-x="509" 
d="M98 0h-98l114 534h98l-51 -236l253 236h120l-292 -258l197 -276h-111l-174 261z" />
    <glyph glyph-name="l.sc" unicode="&#xe010;" horiz-adv-x="401" 
d="M323 0h-323l114 534h98l-97 -453h226z" />
    <glyph glyph-name="m.sc" unicode="&#xe011;" horiz-adv-x="751" 
d="M90 0h-90l114 534h144l66 -436l248 436h150l-114 -534h-91l99 465l-267 -465h-92l-68 465z" />
    <glyph glyph-name="n.sc" unicode="&#xe012;" horiz-adv-x="591" 
d="M89 0h-89l114 534h139l124 -453l97 453h88l-113 -534h-140l-123 449z" />
    <glyph glyph-name="o.sc" unicode="&#xe013;" horiz-adv-x="592" 
d="M153 102c19 -24 47 -39 84 -39c135 0 198 151 198 272c0 68 -31 136 -115 136c-128 0 -195 -158 -195 -275c0 -36 9 -69 28 -94zM136 7c-78 36 -115 108 -115 186c0 180 112 352 309 352c144 0 209 -107 209 -207c0 -184 -105 -349 -310 -349c-36 0 -67 6 -93 18z" />
    <glyph glyph-name="p.sc" unicode="&#xe014;" horiz-adv-x="476" 
d="M195 463l-41 -186h47c80 0 158 15 158 114c0 43 -33 72 -89 72h-75zM98 0h-98l114 534h193c95 0 148 -66 148 -135c0 -140 -114 -193 -220 -193h-93z" />
    <glyph glyph-name="q.sc" unicode="&#xe015;" horiz-adv-x="592" 
d="M153 102c19 -24 47 -39 84 -39c135 0 198 151 198 272c0 68 -31 136 -115 136c-128 0 -195 -158 -195 -275c0 -36 9 -69 28 -94zM475 -101h-115l-67 96c-20 -4 -41 -6 -64 -6c-143 0 -208 104 -208 204c0 180 112 352 309 352c144 0 209 -107 209 -207
c0 -131 -55 -253 -161 -311z" />
    <glyph glyph-name="r.sc" unicode="&#xe016;" horiz-adv-x="482" 
d="M196 466l-36 -168h56c60 0 139 17 139 102c0 43 -36 66 -100 66h-59zM97 0h-97l114 534h189c73 0 149 -38 149 -118c0 -104 -86 -143 -153 -154c36 -12 51 -38 60 -75l46 -187h-104l-33 164c-11 48 -27 67 -82 67h-39z" />
    <glyph glyph-name="s.sc" unicode="&#xe017;" horiz-adv-x="418" 
d="M-27 12l25 80c32 -17 78 -27 129 -27c76 0 122 29 122 86c0 35 -23 59 -84 91c-83 43 -119 76 -119 139c0 98 93 164 225 164c41 0 90 -7 129 -22l-25 -77c-31 15 -74 23 -109 23c-76 0 -122 -33 -122 -76c0 -33 20 -52 79 -83c85 -45 124 -81 124 -148
c0 -103 -82 -173 -222 -173c-49 0 -105 6 -152 23z" />
    <glyph glyph-name="t.sc" unicode="&#xe018;" horiz-adv-x="451" 
d="M201 0h-98l97 454h-165l17 80h428l-17 -80h-165z" />
    <glyph glyph-name="u.sc" unicode="&#xe019;" horiz-adv-x="560" 
d="M206 534l-72 -337c-4 -16 -6 -32 -6 -49c0 -47 31 -83 98 -83c75 0 121 44 140 133l71 336h98l-72 -337c-29 -139 -113 -208 -250 -208c-108 0 -183 57 -183 149c0 21 3 44 8 71l70 325h98z" />
    <glyph glyph-name="v.sc" unicode="&#xe01a;" horiz-adv-x="516" 
d="M240 0h-118l-80 534h104l54 -441l239 441h108z" />
    <glyph glyph-name="w.sc" unicode="&#xe01b;" horiz-adv-x="775" 
d="M196 0h-115l-31 534h96l19 -441l211 441h107l24 -441l206 441h94l-261 -534h-112l-24 442z" />
    <glyph glyph-name="x.sc" unicode="&#xe01c;" horiz-adv-x="528" 
d="M46 0h-117l264 282l-129 252h107l90 -203l167 203h116l-243 -259l140 -275h-108l-98 226z" />
    <glyph glyph-name="y.sc" unicode="&#xe01d;" horiz-adv-x="489" 
d="M214 0h-98l46 212l-130 321h106l88 -250l194 250h108l-269 -324z" />
    <glyph glyph-name="z.sc" unicode="&#xe01e;" horiz-adv-x="442" 
d="M343 0h-388l16 79l355 379h-264l17 76h371l-16 -80l-349 -379h275z" />
    <glyph glyph-name="agrave.sc" unicode="&#xe01f;" horiz-adv-x="552" 
d="M311 470l-152 -261h193zM44 0h-106l321 534h126l93 -534h-98l-21 138h-235zM372 608h-75l-73 136h107z" />
    <glyph glyph-name="aacute.sc" unicode="&#xe020;" horiz-adv-x="552" 
d="M311 470l-152 -261h193zM44 0h-106l321 534h126l93 -534h-98l-21 138h-235zM357 608h-76l100 136h106z" />
    <glyph glyph-name="acircumflex.sc" unicode="&#xe021;" horiz-adv-x="552" 
d="M311 470l-152 -261h193zM44 0h-106l321 534h126l93 -534h-98l-21 138h-235zM254 608h-76l130 136h92l72 -136h-76l-52 92z" />
    <glyph glyph-name="atilde.sc" unicode="&#xe022;" horiz-adv-x="552" 
d="M311 470l-152 -261h193zM44 0h-106l321 534h126l93 -534h-98l-21 138h-235zM227 619h-55c14 52 55 108 116 108c48 0 84 -40 116 -40c24 0 41 23 48 43h54c-13 -48 -58 -107 -114 -107c-53 0 -75 39 -114 39c-23 0 -47 -23 -51 -43z" />
    <glyph glyph-name="adieresis.sc" unicode="&#xe023;" horiz-adv-x="552" 
d="M311 470l-152 -261h193zM44 0h-106l321 534h126l93 -534h-98l-21 138h-235zM285 627h-83l21 97h83zM454 627h-83l21 97h82z" />
    <glyph glyph-name="aring.sc" unicode="&#xe024;" horiz-adv-x="552" 
d="M311 470l-152 -261h193zM44 0h-106l321 534h126l93 -534h-98l-21 138h-235zM282 676c0 -32 24 -56 55 -56s58 24 58 56c0 31 -24 56 -55 56s-58 -25 -58 -56zM336 580c-53 0 -94 41 -94 96c0 53 46 96 99 96s94 -41 94 -96c0 -53 -46 -96 -99 -96z" />
    <glyph glyph-name="amacron.sc" unicode="&#xe025;" horiz-adv-x="552" 
d="M311 470l-152 -261h193zM44 0h-106l321 534h126l93 -534h-98l-21 138h-235zM465 647h-266l12 59h267z" />
    <glyph glyph-name="abreve.sc" unicode="&#xe026;" horiz-adv-x="552" 
d="M311 470l-152 -261h193zM44 0h-106l321 534h126l93 -534h-98l-21 138h-235zM223 737h52c-1 -3 -1 -7 -1 -10c0 -37 27 -58 63 -58c41 0 79 28 91 68h52c-16 -73 -82 -124 -155 -124c-63 0 -105 35 -105 99c0 9 1 17 3 25z" />
    <glyph glyph-name="aogonek.sc" unicode="&#xe027;" horiz-adv-x="552" 
d="M311 470l-152 -261h193zM44 0h-106l321 534h126l93 -534h-33c-65 -43 -83 -71 -83 -102c0 -27 21 -38 44 -38c20 0 32 4 59 16l9 -40c-28 -13 -52 -21 -87 -21c-60 0 -92 31 -92 71c0 49 39 85 98 114h-13l-21 138h-235z" />
    <glyph glyph-name="ae.sc" unicode="&#xe028;" horiz-adv-x="731" 
d="M399 468l-211 -259h155zM34 0h-112l434 534h369l-16 -73h-220l-33 -153h208l-15 -70h-207l-36 -166h227l-16 -72h-319l31 138h-187z" />
    <glyph glyph-name="cacute.sc" unicode="&#xe029;" horiz-adv-x="487" 
d="M402 89l-9 -78c-47 -19 -93 -22 -136 -22c-145 0 -236 93 -236 224c0 195 136 332 336 332c63 0 98 -10 138 -23l-27 -78c-29 17 -66 25 -111 25c-144 0 -232 -109 -232 -245c0 -91 50 -159 157 -159c39 0 79 8 120 24zM382 608h-76l100 136h106z" />
    <glyph glyph-name="ccircumflex.sc" unicode="&#xe02a;" horiz-adv-x="487" 
d="M402 89l-9 -78c-47 -19 -93 -22 -136 -22c-145 0 -236 93 -236 224c0 195 136 332 336 332c63 0 98 -10 138 -23l-27 -78c-29 17 -66 25 -111 25c-144 0 -232 -109 -232 -245c0 -91 50 -159 157 -159c39 0 79 8 120 24zM280 608h-76l130 136h92l72 -136h-76l-52 92z" />
    <glyph glyph-name="ccaron.sc" unicode="&#xe02b;" horiz-adv-x="487" 
d="M402 89l-9 -78c-47 -19 -93 -22 -136 -22c-145 0 -236 93 -236 224c0 195 136 332 336 332c63 0 98 -10 138 -23l-27 -78c-29 17 -66 25 -111 25c-144 0 -232 -109 -232 -245c0 -91 50 -159 157 -159c39 0 79 8 120 24zM404 608h-92l-73 136h77l51 -92l91 92h76z" />
    <glyph glyph-name="cdotaccent.sc" unicode="&#xe02c;" horiz-adv-x="487" 
d="M402 89l-9 -78c-47 -19 -93 -22 -136 -22c-145 0 -236 93 -236 224c0 195 136 332 336 332c63 0 98 -10 138 -23l-27 -78c-29 17 -66 25 -111 25c-144 0 -232 -109 -232 -245c0 -91 50 -159 157 -159c39 0 79 8 120 24zM410 627h-103l20 97h103z" />
    <glyph glyph-name="ccedilla.sc" unicode="&#xe02d;" horiz-adv-x="487" 
d="M121 -167l17 39c31 -12 56 -16 79 -16c31 0 50 14 50 34s-17 28 -33 28c-15 0 -30 -1 -47 -8l-14 23l49 58c-125 15 -201 101 -201 222c0 195 136 332 336 332c63 0 98 -10 138 -23l-27 -78c-29 17 -66 25 -111 25c-144 0 -232 -109 -232 -245c0 -91 50 -159 157 -159
c39 0 79 8 120 24l-9 -78c-43 -16 -87 -21 -127 -22l-34 -41c11 3 24 4 37 4c33 0 62 -24 62 -59c-5 -55 -51 -78 -115 -78c-29 0 -59 3 -95 18z" />
    <glyph glyph-name="dcaron.sc" unicode="&#xe02e;" horiz-adv-x="565" 
d="M196 462l-83 -390h48c165 0 246 94 246 245c0 112 -75 145 -156 145h-55zM154 0h-154l114 534h162c127 0 236 -60 236 -209c0 -219 -145 -325 -358 -325zM348 608h-92l-73 136h77l51 -92l91 92h76z" />
    <glyph glyph-name="dcroat.sc" unicode="&#xe02f;" horiz-adv-x="565" 
d="M149 241l-36 -169h48c167 0 246 92 246 255c0 96 -65 135 -146 135h-65l-34 -160h120l-12 -61h-121zM154 0h-154l51 241h-61l12 61h62l50 232h177c128 0 221 -71 221 -199c0 -231 -145 -335 -358 -335z" />
    <glyph glyph-name="eth.sc" unicode="&#xe030;" horiz-adv-x="565" 
d="M149 241l-36 -169h48c167 0 246 92 246 255c0 96 -65 135 -146 135h-65l-34 -160h120l-12 -61h-121zM154 0h-154l51 241h-61l12 61h62l50 232h177c128 0 221 -71 221 -199c0 -231 -145 -335 -358 -335z" />
    <glyph glyph-name="egrave.sc" unicode="&#xe031;" horiz-adv-x="445" 
d="M331 0h-331l114 534h325l-16 -73h-228l-33 -153h216l-15 -70h-215l-36 -166h235zM336 608h-75l-73 136h107z" />
    <glyph glyph-name="eacute.sc" unicode="&#xe032;" horiz-adv-x="445" 
d="M331 0h-331l114 534h325l-16 -73h-228l-33 -153h216l-15 -70h-215l-36 -166h235zM315 608h-76l100 136h106z" />
    <glyph glyph-name="ecircumflex.sc" unicode="&#xe033;" horiz-adv-x="445" 
d="M331 0h-331l114 534h325l-16 -73h-228l-33 -153h216l-15 -70h-215l-36 -166h235zM216 608h-76l130 136h92l72 -136h-76l-52 92z" />
    <glyph glyph-name="ecaron.sc" unicode="&#xe034;" horiz-adv-x="445" 
d="M331 0h-331l114 534h325l-16 -73h-228l-33 -153h216l-15 -70h-215l-36 -166h235zM335 608h-92l-73 136h77l51 -92l91 92h76z" />
    <glyph glyph-name="edieresis.sc" unicode="&#xe035;" horiz-adv-x="445" 
d="M331 0h-331l114 534h325l-16 -73h-228l-33 -153h216l-15 -70h-215l-36 -166h235zM248 627h-83l21 97h83zM417 627h-83l21 97h82z" />
    <glyph glyph-name="edotaccent.sc" unicode="&#xe036;" horiz-adv-x="445" 
d="M331 0h-331l114 534h325l-16 -73h-228l-33 -153h216l-15 -70h-215l-36 -166h235zM343 627h-103l20 97h103z" />
    <glyph glyph-name="emacron.sc" unicode="&#xe037;" horiz-adv-x="445" 
d="M331 0h-331l114 534h325l-16 -73h-228l-33 -153h216l-15 -70h-215l-36 -166h235zM429 647h-266l12 59h267z" />
    <glyph glyph-name="ebreve.sc" unicode="&#xe038;" horiz-adv-x="445" 
d="M331 0h-331l114 534h325l-16 -73h-228l-33 -153h216l-15 -70h-215l-36 -166h235zM186 737h52c-1 -3 -1 -7 -1 -10c0 -37 27 -58 63 -58c41 0 79 28 91 68h52c-16 -73 -82 -124 -155 -124c-63 0 -105 35 -105 99c0 9 1 17 3 25z" />
    <glyph glyph-name="eogonek.sc" unicode="&#xe039;" horiz-adv-x="445" 
d="M240 0h-240l114 534h325l-16 -73h-228l-33 -153h216l-15 -70h-215l-36 -166h235l-16 -72h-39c-65 -43 -83 -71 -83 -102c0 -27 21 -38 44 -38c20 0 32 4 59 16l9 -40c-28 -13 -52 -21 -87 -21c-60 0 -92 31 -92 71c0 49 39 85 98 114z" />
    <glyph glyph-name="gcircumflex.sc" unicode="&#xe03a;" horiz-adv-x="558" 
d="M500 283l-56 -261c-64 -23 -118 -33 -185 -33c-143 0 -238 92 -238 224c0 212 157 332 345 332c60 0 104 -8 159 -28l-24 -75c-41 21 -85 29 -132 29c-149 0 -244 -107 -244 -253c0 -88 50 -157 149 -157c35 0 62 2 99 15l29 138h-97l15 69h180zM292 608h-76l130 136h92
l72 -136h-76l-52 92z" />
    <glyph glyph-name="gdotaccent.sc" unicode="&#xe03b;" horiz-adv-x="558" 
d="M500 283l-56 -261c-64 -23 -118 -33 -185 -33c-143 0 -238 92 -238 224c0 212 157 332 345 332c60 0 104 -8 159 -28l-24 -75c-41 21 -85 29 -132 29c-149 0 -244 -107 -244 -253c0 -88 50 -157 149 -157c35 0 62 2 99 15l29 138h-97l15 69h180zM422 627h-103l20 97h103z
" />
    <glyph glyph-name="gbreve.sc" unicode="&#xe03c;" horiz-adv-x="558" 
d="M500 283l-56 -261c-64 -23 -118 -33 -185 -33c-143 0 -238 92 -238 224c0 212 157 332 345 332c60 0 104 -8 159 -28l-24 -75c-41 21 -85 29 -132 29c-149 0 -244 -107 -244 -253c0 -88 50 -157 149 -157c35 0 62 2 99 15l29 138h-97l15 69h180zM264 737h52
c-1 -3 -1 -7 -1 -10c0 -37 27 -58 63 -58c41 0 79 28 91 68h52c-16 -73 -82 -124 -155 -124c-63 0 -105 35 -105 99c0 9 1 17 3 25z" />
    <glyph glyph-name="gcommaaccent.sc" unicode="&#xe03d;" horiz-adv-x="558" 
d="M500 283l-56 -261c-64 -23 -118 -33 -185 -33c-143 0 -238 92 -238 224c0 212 157 332 345 332c60 0 104 -8 159 -28l-24 -75c-41 21 -85 29 -132 29c-149 0 -244 -107 -244 -253c0 -88 50 -157 149 -157c35 0 62 2 99 15l29 138h-97l15 69h180zM219 -227h-63l59 159h87z
" />
    <glyph glyph-name="hcircumflex.sc" unicode="&#xe03e;" horiz-adv-x="569" 
d="M98 0h-98l114 534h98l-47 -220h230l47 220h98l-114 -534h-98l51 234h-231zM259 608h-76l130 136h92l72 -136h-76l-52 92z" />
    <glyph glyph-name="hbar.sc" unicode="&#xe03f;" horiz-adv-x="569" 
d="M178 375l-20 -94h230l20 94h-230zM98 0h-98l114 534h98l-22 -102h230l22 102h98l-114 -534h-98l44 206h-230z" />
    <glyph glyph-name="igrave.sc" unicode="&#xe040;" horiz-adv-x="241" 
d="M218 608h-75l-73 136h107zM98 0h-98l114 534h98z" />
    <glyph glyph-name="iacute.sc" unicode="&#xe041;" horiz-adv-x="241" 
d="M204 608h-76l100 136h106zM98 0h-98l114 534h98z" />
    <glyph glyph-name="icircumflex.sc" unicode="&#xe042;" horiz-adv-x="241" 
d="M100 608h-76l130 136h92l72 -136h-76l-52 92zM98 0h-98l114 534h98z" />
    <glyph glyph-name="itilde.sc" unicode="&#xe043;" horiz-adv-x="241" 
d="M76 619h-55c14 52 55 108 116 108c48 0 84 -40 116 -40c24 0 41 23 48 43h54c-13 -48 -58 -107 -114 -107c-53 0 -75 39 -114 39c-23 0 -47 -23 -51 -43zM98 0h-98l114 534h98z" />
    <glyph glyph-name="idieresis.sc" unicode="&#xe044;" horiz-adv-x="241" 
d="M132 627h-83l21 97h83zM301 627h-83l21 97h82zM98 0h-98l114 534h98z" />
    <glyph glyph-name="imacron.sc" unicode="&#xe045;" horiz-adv-x="241" 
d="M312 647h-266l12 59h267zM98 0h-98l114 534h98z" />
    <glyph glyph-name="idotaccent.sc" unicode="&#xe046;" horiz-adv-x="241" 
d="M233 627h-103l20 97h103zM98 0h-98l114 534h98z" />
    <glyph glyph-name="iogonek.sc" unicode="&#xe047;" horiz-adv-x="241" 
d="M107 -127l9 -40c-27 -12 -47 -18 -80 -18c-60 0 -92 31 -92 71c0 49 39 85 98 114h-42l114 534h98l-114 -534h-4c-65 -43 -83 -71 -83 -102c0 -27 19 -38 42 -38c13 0 31 4 54 13z" />
    <glyph glyph-name="jcircumflex.sc" unicode="&#xe048;" horiz-adv-x="299" 
d="M156 608h-76l130 136h92l72 -136h-76l-52 92zM-64 1l20 77c16 -7 30 -9 46 -9c56 0 83 36 96 96l78 369h98l-83 -387c-21 -99 -80 -158 -180 -158c-32 0 -51 4 -75 12z" />
    <glyph glyph-name="kcommaaccent.sc" unicode="&#xe049;" horiz-adv-x="509" 
d="M98 0h-98l114 534h98l-51 -236l253 236h120l-292 -258l197 -276h-111l-174 261zM170 -227h-63l59 159h87z" />
    <glyph glyph-name="lacute.sc" unicode="&#xe04a;" horiz-adv-x="401" 
d="M323 0h-323l114 534h98l-97 -453h226zM216 608h-76l100 136h106z" />
    <glyph glyph-name="lcaron.sc" unicode="&#xe04b;" horiz-adv-x="401" 
d="M323 0h-323l114 534h98l-97 -453h226zM333 440h-70l54 159h93z" />
    <glyph glyph-name="lcommaaccent.sc" unicode="&#xe04c;" horiz-adv-x="401" 
d="M323 0h-323l114 534h98l-97 -453h226zM123 -227h-63l59 159h87z" />
    <glyph glyph-name="ldot.sc" unicode="&#xe04d;" horiz-adv-x="401" 
d="M323 0h-323l114 534h98l-97 -453h226zM355 260h-103l20 97h103z" />
    <glyph glyph-name="lslash.sc" unicode="&#xe04e;" horiz-adv-x="401" 
d="M323 0h-323l48 226l-74 -51l15 66l73 51l52 242h98l-40 -187l136 91l-15 -68l-136 -91l-42 -198h226z" />
    <glyph glyph-name="nacute.sc" unicode="&#xe04f;" horiz-adv-x="591" 
d="M89 0h-89l114 534h139l124 -453l97 453h88l-113 -534h-140l-123 449zM377 608h-76l100 136h106z" />
    <glyph glyph-name="ncaron.sc" unicode="&#xe050;" horiz-adv-x="591" 
d="M89 0h-89l114 534h139l124 -453l97 453h88l-113 -534h-140l-123 449zM400 608h-92l-73 136h77l51 -92l91 92h76z" />
    <glyph glyph-name="ntilde.sc" unicode="&#xe051;" horiz-adv-x="591" 
d="M89 0h-89l114 534h139l124 -453l97 453h88l-113 -534h-140l-123 449zM251 619h-55c14 52 55 108 116 108c48 0 84 -40 116 -40c24 0 41 23 48 43h54c-13 -48 -58 -107 -114 -107c-53 0 -75 39 -114 39c-23 0 -47 -23 -51 -43z" />
    <glyph glyph-name="ncommaaccent.sc" unicode="&#xe052;" horiz-adv-x="591" 
d="M89 0h-89l114 534h139l124 -453l97 453h88l-113 -534h-140l-123 449zM204 -227h-63l59 159h87z" />
    <glyph glyph-name="ograve.sc" unicode="&#xe054;" horiz-adv-x="592" 
d="M153 102c19 -24 47 -39 84 -39c135 0 198 151 198 272c0 68 -31 136 -115 136c-128 0 -195 -158 -195 -275c0 -36 9 -69 28 -94zM136 7c-78 36 -115 108 -115 186c0 180 112 352 309 352c144 0 209 -107 209 -207c0 -184 -105 -349 -310 -349c-36 0 -67 6 -93 18z
M393 608h-75l-73 136h107z" />
    <glyph glyph-name="oacute.sc" unicode="&#xe055;" horiz-adv-x="592" 
d="M153 102c19 -24 47 -39 84 -39c135 0 198 151 198 272c0 68 -31 136 -115 136c-128 0 -195 -158 -195 -275c0 -36 9 -69 28 -94zM136 7c-78 36 -115 108 -115 186c0 180 112 352 309 352c144 0 209 -107 209 -207c0 -184 -105 -349 -310 -349c-36 0 -67 6 -93 18z
M371 608h-76l100 136h106z" />
    <glyph glyph-name="ocircumflex.sc" unicode="&#xe056;" horiz-adv-x="592" 
d="M153 102c19 -24 47 -39 84 -39c135 0 198 151 198 272c0 68 -31 136 -115 136c-128 0 -195 -158 -195 -275c0 -36 9 -69 28 -94zM136 7c-78 36 -115 108 -115 186c0 180 112 352 309 352c144 0 209 -107 209 -207c0 -184 -105 -349 -310 -349c-36 0 -67 6 -93 18z
M272 608h-76l130 136h92l72 -136h-76l-52 92z" />
    <glyph glyph-name="otilde.sc" unicode="&#xe057;" horiz-adv-x="592" 
d="M153 102c19 -24 47 -39 84 -39c135 0 198 151 198 272c0 68 -31 136 -115 136c-128 0 -195 -158 -195 -275c0 -36 9 -69 28 -94zM136 7c-78 36 -115 108 -115 186c0 180 112 352 309 352c144 0 209 -107 209 -207c0 -184 -105 -349 -310 -349c-36 0 -67 6 -93 18z
M245 619h-55c14 52 55 108 116 108c48 0 84 -40 116 -40c24 0 41 23 48 43h54c-13 -48 -58 -107 -114 -107c-53 0 -75 39 -114 39c-23 0 -47 -23 -51 -43z" />
    <glyph glyph-name="odieresis.sc" unicode="&#xe058;" horiz-adv-x="592" 
d="M153 102c19 -24 47 -39 84 -39c135 0 198 151 198 272c0 68 -31 136 -115 136c-128 0 -195 -158 -195 -275c0 -36 9 -69 28 -94zM136 7c-78 36 -115 108 -115 186c0 180 112 352 309 352c144 0 209 -107 209 -207c0 -184 -105 -349 -310 -349c-36 0 -67 6 -93 18z
M304 627h-83l21 97h83zM473 627h-83l21 97h82z" />
    <glyph glyph-name="omacron.sc" unicode="&#xe059;" horiz-adv-x="592" 
d="M153 102c19 -24 47 -39 84 -39c135 0 198 151 198 272c0 68 -31 136 -115 136c-128 0 -195 -158 -195 -275c0 -36 9 -69 28 -94zM136 7c-78 36 -115 108 -115 186c0 180 112 352 309 352c144 0 209 -107 209 -207c0 -184 -105 -349 -310 -349c-36 0 -67 6 -93 18z
M484 647h-266l12 59h267z" />
    <glyph glyph-name="obreve.sc" unicode="&#xe05a;" horiz-adv-x="592" 
d="M153 102c19 -24 47 -39 84 -39c135 0 198 151 198 272c0 68 -31 136 -115 136c-128 0 -195 -158 -195 -275c0 -36 9 -69 28 -94zM136 7c-78 36 -115 108 -115 186c0 180 112 352 309 352c144 0 209 -107 209 -207c0 -184 -105 -349 -310 -349c-36 0 -67 6 -93 18z
M242 737h52c-1 -3 -1 -7 -1 -10c0 -37 27 -58 63 -58c41 0 79 28 91 68h52c-16 -73 -82 -124 -155 -124c-63 0 -105 35 -105 99c0 9 1 17 3 25z" />
    <glyph glyph-name="ohungarumlaut.sc" unicode="&#xe05b;" horiz-adv-x="592" 
d="M153 102c19 -24 47 -39 84 -39c135 0 198 151 198 272c0 68 -31 136 -115 136c-128 0 -195 -158 -195 -275c0 -36 9 -69 28 -94zM136 7c-78 36 -115 108 -115 186c0 180 112 352 309 352c144 0 209 -107 209 -207c0 -184 -105 -349 -310 -349c-36 0 -67 6 -93 18z
M284 608h-76l99 136h107zM471 608h-76l99 136h108z" />
    <glyph glyph-name="oslash.sc" unicode="&#xe05c;" horiz-adv-x="592" 
d="M432 367l-286 -256c19 -29 48 -48 91 -48c135 0 198 151 198 272c0 11 -1 22 -3 32zM129 155l288 259c-17 33 -48 57 -97 57c-128 0 -195 -158 -195 -275c0 -15 1 -28 4 -41zM77 47l-73 -66l-32 37l76 68c-18 33 -27 68 -27 107c0 180 112 352 309 352
c72 0 123 -27 158 -66l74 67l32 -37l-78 -71c15 -32 23 -65 23 -100c0 -184 -105 -349 -310 -349c-68 0 -117 23 -152 58z" />
    <glyph glyph-name="oe.sc" unicode="&#xe05d;" horiz-adv-x="746" 
d="M340 72l83 390c-27 7 -56 9 -83 9c-147 0 -215 -141 -215 -261c0 -83 42 -147 139 -147c23 0 52 2 76 9zM632 0h-289c-25 -7 -62 -11 -93 -11c-137 0 -229 72 -229 212c0 179 114 344 331 344c35 0 69 -4 105 -11h283l-16 -73h-212l-33 -153h200l-15 -70h-199l-36 -166
h219z" />
    <glyph glyph-name="racute.sc" unicode="&#xe05e;" horiz-adv-x="482" 
d="M196 466l-36 -168h56c60 0 139 17 139 102c0 43 -36 66 -100 66h-59zM97 0h-97l114 534h189c73 0 149 -38 149 -118c0 -104 -86 -143 -153 -154c36 -12 51 -38 60 -75l46 -187h-104l-33 164c-11 48 -27 67 -82 67h-39zM310 608h-76l100 136h106z" />
    <glyph glyph-name="rcaron.sc" unicode="&#xe060;" horiz-adv-x="482" 
d="M196 466l-36 -168h56c60 0 139 17 139 102c0 43 -36 66 -100 66h-59zM97 0h-97l114 534h189c73 0 149 -38 149 -118c0 -104 -86 -143 -153 -154c36 -12 51 -38 60 -75l46 -187h-104l-33 164c-11 48 -27 67 -82 67h-39zM333 608h-92l-73 136h77l51 -92l91 92h76z" />
    <glyph glyph-name="rcommaaccent.sc" unicode="&#xe05f;" horiz-adv-x="482" 
d="M196 466l-36 -168h56c60 0 139 17 139 102c0 43 -36 66 -100 66h-59zM97 0h-97l114 534h189c73 0 149 -38 149 -118c0 -104 -86 -143 -153 -154c36 -12 51 -38 60 -75l46 -187h-104l-33 164c-11 48 -27 67 -82 67h-39zM161 -227h-63l59 159h87z" />
    <glyph glyph-name="sacute.sc" unicode="&#xe061;" horiz-adv-x="418" 
d="M-27 12l25 80c32 -17 78 -27 129 -27c76 0 122 29 122 86c0 35 -23 59 -84 91c-83 43 -119 76 -119 139c0 98 93 164 225 164c41 0 90 -7 129 -22l-25 -77c-31 15 -74 23 -109 23c-76 0 -122 -33 -122 -76c0 -33 20 -52 79 -83c85 -45 124 -81 124 -148
c0 -103 -82 -173 -222 -173c-49 0 -105 6 -152 23zM290 608h-76l100 136h106z" />
    <glyph glyph-name="scircumflex.sc" unicode="&#xe062;" horiz-adv-x="418" 
d="M-27 12l25 80c32 -17 78 -27 129 -27c76 0 122 29 122 86c0 35 -23 59 -84 91c-83 43 -119 76 -119 139c0 98 93 164 225 164c41 0 90 -7 129 -22l-25 -77c-31 15 -74 23 -109 23c-76 0 -122 -33 -122 -76c0 -33 20 -52 79 -83c85 -45 124 -81 124 -148
c0 -103 -82 -173 -222 -173c-49 0 -105 6 -152 23zM189 608h-76l130 136h92l72 -136h-76l-52 92z" />
    <glyph glyph-name="scaron.sc" unicode="&#xe063;" horiz-adv-x="418" 
d="M-27 12l25 80c32 -17 78 -27 129 -27c76 0 122 29 122 86c0 35 -23 59 -84 91c-83 43 -119 76 -119 139c0 98 93 164 225 164c41 0 90 -7 129 -22l-25 -77c-31 15 -74 23 -109 23c-76 0 -122 -33 -122 -76c0 -33 20 -52 79 -83c85 -45 124 -81 124 -148
c0 -103 -82 -173 -222 -173c-49 0 -105 6 -152 23zM310 608h-92l-73 136h77l51 -92l91 92h76z" />
    <glyph glyph-name="scedilla.sc" unicode="&#xe064;" horiz-adv-x="418" 
d="M11 -167l17 39c31 -12 56 -16 79 -16c31 0 50 14 50 34s-17 28 -33 28c-15 0 -30 -1 -47 -8l-14 23l47 56c-45 1 -96 8 -137 23l25 80c32 -17 78 -27 129 -27c76 0 122 29 122 86c0 35 -23 59 -84 91c-83 43 -119 76 -119 139c0 98 93 164 225 164c41 0 90 -7 129 -22
l-25 -77c-31 15 -74 23 -109 23c-76 0 -122 -33 -122 -76c0 -33 20 -52 79 -83c85 -45 124 -81 124 -148c0 -95 -69 -161 -190 -172l-35 -42c11 3 24 4 37 4c33 0 62 -24 62 -59c-5 -55 -51 -78 -115 -78c-29 0 -59 3 -95 18z" />
    <glyph glyph-name="scommaaccent.sc" unicode="&#xe065;" horiz-adv-x="418" 
d="M-27 12l25 80c32 -17 78 -27 129 -27c76 0 122 29 122 86c0 35 -23 59 -84 91c-83 43 -119 76 -119 139c0 98 93 164 225 164c41 0 90 -7 129 -22l-25 -77c-31 15 -74 23 -109 23c-76 0 -122 -33 -122 -76c0 -33 20 -52 79 -83c85 -45 124 -81 124 -148
c0 -103 -82 -173 -222 -173c-49 0 -105 6 -152 23zM104 -227h-63l59 159h87z" />
    <glyph glyph-name="germandbls.sc" unicode="&#xe066;" horiz-adv-x="828" 
d="M383 12l25 80c32 -17 78 -27 129 -27c76 0 122 29 122 86c0 35 -23 59 -84 91c-83 43 -119 76 -119 139c0 98 93 164 225 164c41 0 90 -7 129 -22l-25 -77c-31 15 -74 23 -109 23c-76 0 -122 -33 -122 -76c0 -33 20 -52 79 -83c85 -45 124 -81 124 -148
c0 -103 -82 -173 -222 -173c-49 0 -105 6 -152 23zM-27 12l25 80c32 -17 78 -27 129 -27c76 0 122 29 122 86c0 35 -23 59 -84 91c-83 43 -119 76 -119 139c0 98 93 164 225 164c41 0 90 -7 129 -22l-25 -77c-31 15 -74 23 -109 23c-76 0 -122 -33 -122 -76
c0 -33 20 -52 79 -83c85 -45 124 -81 124 -148c0 -103 -82 -173 -222 -173c-49 0 -105 6 -152 23z" />
    <glyph glyph-name="tcaron.sc" unicode="&#xe067;" horiz-adv-x="451" 
d="M201 0h-98l97 454h-165l17 80h428l-17 -80h-165zM325 608h-92l-73 136h77l51 -92l91 92h76z" />
    <glyph glyph-name="tcommaaccent.sc" unicode="&#xe068;" horiz-adv-x="451" 
d="M201 0h-98l97 454h-165l17 80h428l-17 -80h-165zM101 -227h-63l59 159h87z" />
    <glyph glyph-name="tbar.sc" unicode="&#xe069;" horiz-adv-x="451" 
d="M201 0h-98l60 279h-114l13 60h113l25 115h-165l17 80h428l-17 -80h-165l-25 -115h115l-13 -60h-114z" />
    <glyph glyph-name="thorn.sc" unicode="&#xe06a;" horiz-adv-x="477" 
d="M173 365l-40 -189h46c88 0 159 18 159 117c0 43 -35 72 -90 72h-75zM97 0h-97l114 534h96l-21 -100h99c94 0 146 -65 146 -133c0 -141 -113 -194 -219 -194h-95z" />
    <glyph glyph-name="ugrave.sc" unicode="&#xe06b;" horiz-adv-x="560" 
d="M206 534l-72 -337c-4 -16 -6 -32 -6 -49c0 -47 31 -83 98 -83c75 0 121 44 140 133l71 336h98l-72 -337c-29 -139 -113 -208 -250 -208c-108 0 -183 57 -183 149c0 21 3 44 8 71l70 325h98zM380 608h-75l-73 136h107z" />
    <glyph glyph-name="uacute.sc" unicode="&#xe06c;" horiz-adv-x="560" 
d="M206 534l-72 -337c-4 -16 -6 -32 -6 -49c0 -47 31 -83 98 -83c75 0 121 44 140 133l71 336h98l-72 -337c-29 -139 -113 -208 -250 -208c-108 0 -183 57 -183 149c0 21 3 44 8 71l70 325h98zM358 608h-76l100 136h106z" />
    <glyph glyph-name="ucircumflex.sc" unicode="&#xe06d;" horiz-adv-x="560" 
d="M206 534l-72 -337c-4 -16 -6 -32 -6 -49c0 -47 31 -83 98 -83c75 0 121 44 140 133l71 336h98l-72 -337c-29 -139 -113 -208 -250 -208c-108 0 -183 57 -183 149c0 21 3 44 8 71l70 325h98zM260 608h-76l130 136h92l72 -136h-76l-52 92z" />
    <glyph glyph-name="utilde.sc" unicode="&#xe06e;" horiz-adv-x="560" 
d="M206 534l-72 -337c-4 -16 -6 -32 -6 -49c0 -47 31 -83 98 -83c75 0 121 44 140 133l71 336h98l-72 -337c-29 -139 -113 -208 -250 -208c-108 0 -183 57 -183 149c0 21 3 44 8 71l70 325h98zM232 619h-55c14 52 55 108 116 108c48 0 84 -40 116 -40c24 0 41 23 48 43h54
c-13 -48 -58 -107 -114 -107c-53 0 -75 39 -114 39c-23 0 -47 -23 -51 -43z" />
    <glyph glyph-name="udieresis.sc" unicode="&#xe06f;" horiz-adv-x="560" 
d="M206 534l-72 -337c-4 -16 -6 -32 -6 -49c0 -47 31 -83 98 -83c75 0 121 44 140 133l71 336h98l-72 -337c-29 -139 -113 -208 -250 -208c-108 0 -183 57 -183 149c0 21 3 44 8 71l70 325h98zM292 627h-83l21 97h83zM461 627h-83l21 97h82z" />
    <glyph glyph-name="umacron.sc" unicode="&#xe070;" horiz-adv-x="560" 
d="M206 534l-72 -337c-4 -16 -6 -32 -6 -49c0 -47 31 -83 98 -83c75 0 121 44 140 133l71 336h98l-72 -337c-29 -139 -113 -208 -250 -208c-108 0 -183 57 -183 149c0 21 3 44 8 71l70 325h98zM472 647h-266l12 59h267z" />
    <glyph glyph-name="ubreve.sc" unicode="&#xe071;" horiz-adv-x="560" 
d="M206 534l-72 -337c-4 -16 -6 -32 -6 -49c0 -47 31 -83 98 -83c75 0 121 44 140 133l71 336h98l-72 -337c-29 -139 -113 -208 -250 -208c-108 0 -183 57 -183 149c0 21 3 44 8 71l70 325h98zM229 737h52c-1 -3 -1 -7 -1 -10c0 -37 27 -58 63 -58c41 0 79 28 91 68h52
c-16 -73 -82 -124 -155 -124c-63 0 -105 35 -105 99c0 9 1 17 3 25z" />
    <glyph glyph-name="uring.sc" unicode="&#xe072;" horiz-adv-x="560" 
d="M206 534l-72 -337c-4 -16 -6 -32 -6 -49c0 -47 31 -83 98 -83c75 0 121 44 140 133l71 336h98l-72 -337c-29 -139 -113 -208 -250 -208c-108 0 -183 57 -183 149c0 21 3 44 8 71l70 325h98zM285 676c0 -32 24 -56 55 -56s58 24 58 56c0 31 -24 56 -55 56s-58 -25 -58 -56
zM339 580c-53 0 -94 41 -94 96c0 53 46 96 99 96s94 -41 94 -96c0 -53 -46 -96 -99 -96z" />
    <glyph glyph-name="uhungarumlaut.sc" unicode="&#xe073;" horiz-adv-x="560" 
d="M206 534l-72 -337c-4 -16 -6 -32 -6 -49c0 -47 31 -83 98 -83c75 0 121 44 140 133l71 336h98l-72 -337c-29 -139 -113 -208 -250 -208c-108 0 -183 57 -183 149c0 21 3 44 8 71l70 325h98zM270 608h-76l99 136h107zM457 608h-76l99 136h108z" />
    <glyph glyph-name="uogonek.sc" unicode="&#xe074;" horiz-adv-x="560" 
d="M304 -124l9 -40c-28 -13 -52 -21 -87 -21c-60 0 -92 31 -92 71c0 43 30 76 77 103c-108 1 -181 57 -181 149c0 21 3 44 8 71l70 325h98l-72 -337c-4 -16 -6 -32 -6 -49c0 -47 31 -83 98 -83c75 0 121 44 140 133l71 336h98l-72 -337c-24 -115 -86 -183 -187 -202
c-59 -40 -75 -68 -75 -97c0 -27 21 -38 44 -38c20 0 32 4 59 16z" />
    <glyph glyph-name="wcircumflex.sc" unicode="&#xe075;" horiz-adv-x="775" 
d="M196 0h-115l-31 534h96l19 -441l211 441h107l24 -441l206 441h94l-261 -534h-112l-24 442zM364 608h-76l130 136h92l72 -136h-76l-52 92z" />
    <glyph glyph-name="yacute.sc" unicode="&#xe076;" horiz-adv-x="489" 
d="M214 0h-98l46 212l-130 321h106l88 -250l194 250h108l-269 -324zM314 608h-76l100 136h106z" />
    <glyph glyph-name="ycircumflex.sc" unicode="&#xe077;" horiz-adv-x="489" 
d="M214 0h-98l46 212l-130 321h106l88 -250l194 250h108l-269 -324zM216 608h-76l130 136h92l72 -136h-76l-52 92z" />
    <glyph glyph-name="ydieresis.sc" unicode="&#xe078;" horiz-adv-x="489" 
d="M214 0h-98l46 212l-130 321h106l88 -250l194 250h108l-269 -324zM248 627h-83l21 97h83zM417 627h-83l21 97h82z" />
    <glyph glyph-name="zacute.sc" unicode="&#xe079;" horiz-adv-x="442" 
d="M343 0h-388l16 79l355 379h-264l17 76h371l-16 -80l-349 -379h275zM300 608h-76l100 136h106z" />
    <glyph glyph-name="zcaron.sc" unicode="&#xe07a;" horiz-adv-x="442" 
d="M343 0h-388l16 79l355 379h-264l17 76h371l-16 -80l-349 -379h275zM321 608h-92l-73 136h77l51 -92l91 92h76z" />
    <glyph glyph-name="zdotaccent.sc" unicode="&#xe07b;" horiz-adv-x="442" 
d="M343 0h-388l16 79l355 379h-264l17 76h371l-16 -80l-349 -379h275zM330 627h-103l20 97h103z" />
    <glyph glyph-name="fi.sc" unicode="&#xe07c;" horiz-adv-x="655" 
d="M98 0h-98l114 534h318l-16 -73h-219l-34 -157h210l-16 -71h-209zM512 0h-98l114 534h98z" />
    <glyph glyph-name="fl.sc" unicode="&#xe07d;" horiz-adv-x="815" 
d="M98 0h-98l114 534h318l-16 -73h-219l-34 -157h210l-16 -71h-209zM737 0h-323l114 534h98l-97 -453h226z" />
    <glyph glyph-name="ij.sc" unicode="&#xe07e;" horiz-adv-x="532" 
d="M98 0h-98l114 534h98zM169 1l20 77c16 -7 30 -9 46 -9c56 0 83 36 96 96l78 369h98l-83 -387c-21 -99 -80 -158 -180 -158c-32 0 -51 4 -75 12z" />
    <glyph glyph-name="grave.sc" unicode="&#xe320;" horiz-adv-x="243" 
d="M223 608h-75l-73 136h107z" />
    <glyph glyph-name="acute.sc" unicode="&#xe321;" horiz-adv-x="243" 
d="M203 608h-76l100 136h106z" />
    <glyph glyph-name="circumflex.sc" unicode="&#xe322;" horiz-adv-x="243" 
d="M105 608h-76l130 136h92l72 -136h-76l-52 92z" />
    <glyph glyph-name="caron.sc" unicode="&#xe323;" horiz-adv-x="243" 
d="M225 608h-92l-73 136h77l51 -92l91 92h76z" />
    <glyph glyph-name="tilde.sc" unicode="&#xe324;" horiz-adv-x="243" 
d="M82 619h-55c14 52 55 108 116 108c48 0 84 -40 116 -40c24 0 41 23 48 43h54c-13 -48 -58 -107 -114 -107c-53 0 -75 39 -114 39c-23 0 -47 -23 -51 -43z" />
    <glyph glyph-name="dieresis.sc" unicode="&#xe325;" horiz-adv-x="243" 
d="M140 627h-83l21 97h83zM309 627h-83l21 97h82z" />
    <glyph glyph-name="macron.sc" unicode="&#xe326;" horiz-adv-x="243" 
d="M312 647h-266l12 59h267z" />
    <glyph glyph-name="breve.sc" unicode="&#xe327;" horiz-adv-x="243" 
d="M75 737h52c-1 -3 -1 -7 -1 -10c0 -37 27 -58 63 -58c41 0 79 28 91 68h52c-16 -73 -82 -124 -155 -124c-63 0 -105 35 -105 99c0 9 1 17 3 25z" />
    <glyph glyph-name="ring.sc" unicode="&#xe328;" horiz-adv-x="243" 
d="M135 676c0 -32 24 -56 55 -56s58 24 58 56c0 31 -24 56 -55 56s-58 -25 -58 -56zM189 580c-53 0 -94 41 -94 96c0 53 46 96 99 96s94 -41 94 -96c0 -53 -46 -96 -99 -96z" />
    <glyph glyph-name="hungarumlaut.sc" unicode="&#xe329;" horiz-adv-x="243" 
d="M119 608h-76l99 136h107zM306 608h-76l99 136h108z" />
    <glyph glyph-name="dotaccent.sc" unicode="&#xe32a;" horiz-adv-x="243" 
d="M235 627h-103l20 97h103z" />
    <glyph glyph-name="exclamdown.sc" unicode="&#xe07f;" horiz-adv-x="281" 
d="M212 435h-104l20 99h104zM121 0h-105l92 362h76z" />
    <glyph glyph-name="questiondown.sc" unicode="&#xe080;" horiz-adv-x="381" 
d="M272 435h-104l20 99h104zM284 87l-7 -75c-40 -15 -79 -23 -132 -23c-96 0 -156 49 -156 120c0 56 27 97 91 141c57 41 78 67 85 112h87c-8 -62 -30 -94 -102 -147c-43 -31 -64 -54 -64 -91s29 -61 76 -61c37 0 75 8 122 24z" />
    <glyph glyph-name="Euro.sc" unicode="&#xe081;" horiz-adv-x="478" 
d="M77 186h-74l21 48h55c3 19 4 43 11 64h-65l21 48h56c45 124 143 199 270 199c36 0 73 -6 108 -21l-31 -65c-27 11 -52 15 -81 15c-75 0 -142 -56 -166 -128h200l-20 -48h-195c-5 -20 -10 -45 -11 -64h183l-19 -48h-165c0 -69 38 -127 117 -127c28 0 56 5 84 16l-4 -73
c-33 -9 -65 -13 -98 -13c-123 0 -194 77 -197 197z" />
    <glyph glyph-name="cent.sc" unicode="&#xe082;" horiz-adv-x="478" 
d="M230 0h-55l15 74c-72 13 -118 67 -118 147c0 126 77 222 202 238l15 75h55l-14 -72c28 -2 55 -7 82 -15l-19 -66c-25 12 -54 18 -81 18c-92 0 -148 -84 -148 -166c0 -63 35 -98 90 -98c31 0 61 6 91 18l-10 -68c-32 -9 -58 -13 -90 -13z" />
    <glyph glyph-name="sterling.sc" unicode="&#xe083;" horiz-adv-x="478" 
d="M345 0h-345l15 68h62l40 180h-59l12 66h60l10 42c27 115 96 189 223 189c31 0 64 -6 98 -17l-20 -72c-25 11 -46 16 -78 16c-80 0 -118 -54 -131 -118l-9 -40h130l-14 -66h-128l-39 -180h187z" />
    <glyph glyph-name="florin.sc" unicode="&#xe084;" horiz-adv-x="478" 
d="M-7 -174l5 70c15 -5 26 -6 37 -6c32 0 53 20 68 80l65 284h-86v67h100l20 82c18 76 56 142 141 142c20 0 40 -2 63 -10l-5 -66c-15 5 -27 7 -38 7c-45 0 -63 -43 -71 -81l-18 -74h86v-67h-101l-67 -293c-23 -100 -66 -142 -135 -142c-21 0 -43 2 -64 7z" />
    <glyph glyph-name="yen.sc" unicode="&#xe085;" horiz-adv-x="478" 
d="M213 0h-94l23 110h-117l9 47h118l16 70h-119l9 47h98l-89 260h94l69 -239l166 239h101l-202 -260h98l-9 -47h-122l-16 -70h123l-9 -47h-123z" />
    <glyph glyph-name="perthousand.sc" unicode="&#xe087;" horiz-adv-x="1096" 
d="M242 -19h-59l341 571h59zM838 -11c-75 0 -111 46 -111 110c0 111 66 220 170 220c75 0 110 -46 110 -110c0 -112 -63 -220 -169 -220zM807 52c9 -11 20 -16 35 -16c59 0 98 101 98 178c0 33 -17 58 -46 58c-58 0 -100 -101 -100 -178c0 -17 4 -31 13 -42zM534 -11
c-75 0 -111 46 -111 110c0 111 66 220 170 220c75 0 110 -46 110 -110c0 -112 -63 -220 -169 -220zM503 52c9 -11 20 -16 35 -16c59 0 98 101 98 178c0 33 -17 58 -46 58c-58 0 -100 -101 -100 -178c0 -17 4 -31 13 -42zM174 215c-75 0 -111 46 -111 110
c0 111 66 220 170 220c75 0 110 -46 110 -110c0 -112 -63 -220 -169 -220zM143 278c9 -11 20 -16 35 -16c59 0 98 101 98 178c0 33 -17 58 -46 58c-58 0 -100 -101 -100 -178c0 -17 4 -31 13 -42z" />
    <glyph glyph-name="ordfeminine.sc" unicode="&#xe086;" horiz-adv-x="326" 
d="M198 495l-60 -106h78zM89 299h-65l146 239h71l49 -239h-60l-9 50h-102z" />
    <glyph glyph-name="napostrophe.sc" horiz-adv-x="591" 
d="M89 0h-89l114 534h139l124 -453l97 453h88l-113 -534h-140l-123 449zM97 544h-58l83 177h77z" />
    <glyph glyph-name="zero.onum" unicode="&#xe100;" 
d="M224 -11c-133 0 -211 82 -211 213c0 191 112 350 298 350c133 0 211 -82 211 -213c0 -191 -112 -350 -298 -350zM148 105c17 -26 46 -39 85 -39c113 0 180 126 180 265c0 87 -31 144 -110 144c-115 0 -181 -127 -181 -265c0 -43 9 -78 26 -105z" />
    <glyph glyph-name="one.onum" unicode="&#xe101;" 
d="M295 0h-108l98 460h-154l17 82h262z" />
    <glyph glyph-name="two.onum" unicode="&#xe102;" 
d="M400 0h-403l16 76l158 103c165 106 195 156 195 216c0 47 -37 77 -93 77c-51 0 -89 -10 -156 -34l7 81c63 24 112 33 175 33c116 0 175 -62 175 -146c0 -90 -54 -157 -214 -261l-109 -71h265z" />
    <glyph glyph-name="three.onum" unicode="&#xe103;" 
d="M-26 -158l-4 79c23 -3 43 -4 63 -4c163 0 275 56 275 176c0 68 -51 98 -142 98h-59l15 76h57c83 0 179 29 179 124c0 52 -39 84 -98 84c-49 0 -88 -7 -155 -34l6 79c65 24 114 32 175 32c112 0 179 -57 179 -146c0 -100 -69 -158 -177 -174c89 -11 129 -60 129 -133
c0 -172 -164 -260 -384 -260c-19 0 -38 1 -59 3z" />
    <glyph glyph-name="four.onum" unicode="&#xe104;" 
d="M274 0h-299l18 82l344 460h106l-355 -468h202l63 292h95l-62 -292h101l-16 -74h-101l-34 -160h-96z" />
    <glyph glyph-name="five.onum" unicode="&#xe105;" 
d="M8 -158l-4 79c23 -3 43 -4 63 -4c163 0 274 58 274 183c0 63 -47 108 -130 108c-43 0 -84 -5 -141 -16l75 350h366l-17 -78h-270l-41 -193c28 5 52 7 75 7c123 0 192 -68 192 -172c0 -179 -160 -267 -383 -267c-19 0 -38 1 -59 3z" />
    <glyph glyph-name="six.onum" unicode="&#xe106;" 
d="M153 95c21 -23 49 -34 84 -34c99 0 169 82 169 187c0 64 -40 110 -108 110c-96 0 -177 -75 -177 -172c0 -38 11 -68 32 -91zM534 699l-9 -79c-23 3 -41 4 -62 4c-165 0 -280 -133 -320 -276c59 60 124 84 188 84c108 0 176 -74 176 -178c0 -149 -120 -265 -276 -265
c-123 0 -207 76 -207 212c0 264 187 501 440 501c17 0 47 0 70 -3z" />
    <glyph glyph-name="seven.onum" unicode="&#xe107;" 
d="M89 -160h-114v6c126 201 301 442 436 614h-336l18 82h441l-17 -82c-147 -197 -310 -430 -428 -620z" />
    <glyph glyph-name="eight.onum" unicode="&#xe108;" 
d="M121 122c20 -37 63 -59 116 -59c101 0 164 55 164 139c0 47 -34 95 -117 123c-124 -27 -173 -87 -173 -159c0 -16 3 -31 10 -44zM220 436c16 -20 42 -36 77 -49c108 27 152 79 152 142c0 57 -47 94 -108 94c-84 0 -145 -52 -145 -122c0 -23 8 -45 24 -65zM55 285
c33 33 80 59 141 76c-57 29 -100 80 -100 144c0 111 112 189 252 189c120 0 202 -60 202 -160c0 -87 -64 -153 -169 -184c84 -36 122 -90 122 -155c0 -125 -111 -206 -275 -206c-135 0 -223 63 -223 171c0 51 17 92 50 125z" />
    <glyph glyph-name="nine.onum" unicode="&#xe109;" 
d="M0 -158l10 79c23 -3 41 -4 61 -4c172 0 286 127 320 275c-56 -60 -122 -82 -186 -82c-108 0 -178 74 -178 178c0 148 121 264 276 264c124 0 208 -76 208 -213c0 -270 -180 -500 -440 -500c-19 0 -48 0 -71 3zM157 214c20 -20 47 -30 82 -30c95 0 174 70 174 170
c0 76 -47 126 -115 126c-98 0 -170 -82 -170 -187c0 -32 10 -58 29 -79z" />
    <glyph glyph-name="zero.denominator" unicode="&#xe14f;" horiz-adv-x="430" 
d="M110 68c10 -14 25 -21 44 -21c78 0 122 152 122 235c0 44 -19 74 -58 74c-78 0 -122 -151 -122 -234c0 -22 5 -40 14 -54zM146 -7c-84 0 -126 52 -126 131c0 123 66 286 206 286c84 0 126 -51 126 -130c0 -124 -64 -287 -206 -287z" />
    <glyph glyph-name="one.denominator" unicode="&#xe146;" horiz-adv-x="430" 
d="M205 0h-78l72 324l-96 -61l-31 57l155 84h67z" />
    <glyph glyph-name="two.denominator" unicode="&#xe147;" horiz-adv-x="430" 
d="M281 0h-291l14 60l128 95c69 51 127 96 127 142c0 32 -31 54 -74 54c-44 0 -75 -12 -107 -25l8 60c32 15 77 24 124 24c70 0 131 -34 131 -98c0 -80 -64 -131 -148 -190l-89 -64h190z" />
    <glyph glyph-name="three.denominator" unicode="&#xe148;" horiz-adv-x="430" 
d="M-13 9l16 59c29 -12 68 -17 101 -17c62 0 121 23 121 79c0 40 -53 52 -97 52h-48l13 54h44c52 0 121 15 121 68c0 35 -41 50 -84 50c-40 0 -68 -6 -100 -18l9 57c31 11 66 17 114 17c68 0 141 -26 141 -93c0 -63 -46 -96 -97 -109c39 -9 64 -40 64 -76
c0 -104 -111 -139 -201 -139c-37 0 -80 4 -117 16z" />
    <glyph glyph-name="four.denominator" unicode="&#xe149;" horiz-adv-x="430" 
d="M258 339l-182 -196h137zM200 85h-204l15 66l245 253h86l-58 -260h59l-13 -59h-59l-18 -85h-72z" />
    <glyph glyph-name="five.denominator" unicode="&#xe14a;" horiz-adv-x="430" 
d="M7 9l14 60c29 -13 58 -19 89 -19c68 0 128 30 128 91c0 45 -43 61 -90 61c-35 0 -71 -8 -96 -15l52 217h251l-13 -57h-179l-25 -103c19 3 32 5 55 5c67 0 127 -31 127 -100c0 -108 -101 -156 -206 -156c-35 0 -74 5 -107 16z" />
    <glyph glyph-name="six.denominator" unicode="&#xe14b;" horiz-adv-x="430" 
d="M116 68c11 -13 28 -20 51 -20c56 0 92 45 92 97c0 35 -21 63 -66 63c-56 0 -94 -44 -94 -91c0 -19 6 -36 17 -49zM362 392l-20 -53c-21 9 -50 15 -81 15c-91 0 -132 -67 -148 -137c31 31 69 43 110 43c64 0 111 -44 111 -107c0 -103 -87 -160 -175 -160s-134 59 -134 134
c0 129 66 283 237 283c35 0 71 -6 100 -18z" />
    <glyph glyph-name="seven.denominator" unicode="&#xe14c;" horiz-adv-x="430" 
d="M117 0h-95l250 343h-220l14 61h302l-15 -62z" />
    <glyph glyph-name="eight.denominator" unicode="&#xe14d;" horiz-adv-x="430" 
d="M231 165c-13 10 -29 18 -46 24c-51 -13 -99 -36 -99 -88c0 -35 34 -55 70 -55c56 0 96 34 96 82c0 15 -7 28 -21 37zM155 255c12 -10 25 -18 39 -23c47 13 88 38 88 79c0 31 -29 48 -61 48c-51 0 -84 -26 -84 -66c0 -15 6 -27 18 -38zM39 169c22 19 48 33 79 42
c-31 15 -56 40 -56 76c0 84 78 123 169 123c55 0 130 -26 130 -89s-47 -93 -101 -112c39 -15 69 -40 69 -81c0 -102 -97 -135 -184 -135c-60 0 -138 24 -138 97c0 34 11 60 32 79z" />
    <glyph glyph-name="nine.denominator" unicode="&#xe14e;" horiz-adv-x="430" 
d="M128 214c11 -12 28 -18 50 -18c56 0 95 43 95 90c0 39 -22 69 -69 69c-56 0 -92 -45 -92 -96c0 -18 5 -33 16 -45zM8 11l20 53c21 -11 52 -16 83 -16c92 0 132 70 148 139c-31 -31 -70 -44 -111 -44c-63 0 -111 46 -111 107c0 102 84 160 175 160c88 0 135 -58 135 -134
c0 -130 -66 -283 -237 -283c-35 0 -74 5 -102 18z" />
    <glyph glyph-name="a.inferior" unicode="&#x2090;" horiz-adv-x="378" 
d="M184 2l19 85c-10 4 -21 6 -34 6c-76 0 -142 -82 -142 -158c0 -31 14 -53 46 -53c41 0 98 57 111 120zM233 -165h-73c0 17 3 44 10 75c-31 -48 -74 -82 -130 -82c-57 0 -92 39 -92 99c0 121 100 219 233 219c41 0 72 -5 109 -14l-37 -164c-13 -57 -20 -105 -20 -133z" />
    <glyph glyph-name="a.inferior" unicode="&#xe150;" horiz-adv-x="378" 
d="M184 2l19 85c-10 4 -21 6 -34 6c-76 0 -142 -82 -142 -158c0 -31 14 -53 46 -53c41 0 98 57 111 120zM233 -165h-73c0 17 3 44 10 75c-31 -48 -74 -82 -130 -82c-57 0 -92 39 -92 99c0 121 100 219 233 219c41 0 72 -5 109 -14l-37 -164c-13 -57 -20 -105 -20 -133z" />
    <glyph glyph-name="e.inferior" unicode="&#x2091;" horiz-adv-x="341" 
d="M55 39c-6 -11 -11 -21 -15 -31c61 0 148 8 148 60c0 21 -14 31 -43 31c-39 0 -70 -28 -90 -60zM193 -99l-2 -52c-33 -14 -72 -21 -115 -21c-67 0 -128 29 -128 102c0 121 98 215 210 215c49 0 98 -20 98 -73c0 -96 -142 -107 -226 -107c-4 -9 -5 -21 -5 -30
c0 -41 32 -58 73 -58c33 0 71 9 95 24z" />
    <glyph glyph-name="e.inferior" unicode="&#xe154;" horiz-adv-x="341" 
d="M55 39c-6 -11 -11 -21 -15 -31c61 0 148 8 148 60c0 21 -14 31 -43 31c-39 0 -70 -28 -90 -60zM193 -99l-2 -52c-33 -14 -72 -21 -115 -21c-67 0 -128 29 -128 102c0 121 98 215 210 215c49 0 98 -20 98 -73c0 -96 -142 -107 -226 -107c-4 -9 -5 -21 -5 -30
c0 -41 32 -58 73 -58c33 0 71 9 95 24z" />
    <glyph glyph-name="o.inferior" unicode="&#x2092;" horiz-adv-x="380" 
d="M30 -52c0 -43 20 -65 60 -65c67 0 111 80 111 143c0 43 -20 64 -60 64c-67 0 -111 -81 -111 -142zM-13 -143c-24 20 -36 48 -36 85c0 113 81 204 199 204c77 0 131 -41 131 -114c0 -113 -82 -204 -200 -204c-39 0 -70 10 -94 29z" />
    <glyph glyph-name="o.inferior" unicode="&#xe15e;" horiz-adv-x="380" 
d="M30 -52c0 -43 20 -65 60 -65c67 0 111 80 111 143c0 43 -20 64 -60 64c-67 0 -111 -81 -111 -142zM-13 -143c-24 20 -36 48 -36 85c0 113 81 204 199 204c77 0 131 -41 131 -114c0 -113 -82 -204 -200 -204c-39 0 -70 10 -94 29z" />
    <glyph glyph-name="x.inferior" unicode="&#x2093;" horiz-adv-x="331" 
d="M-15 -165h-84l146 162l-68 143h81l43 -115l85 115h84l-131 -148l73 -157h-83l-44 124z" />
    <glyph glyph-name="x.inferior" unicode="&#xe167;" horiz-adv-x="331" 
d="M-15 -165h-84l146 162l-68 143h81l43 -115l85 115h84l-131 -148l73 -157h-83l-44 124z" />
    <glyph glyph-name="schwa.inferior" unicode="&#x2094;" horiz-adv-x="341" 
d="M146 -66c7 11 12 21 16 31c-61 0 -148 -8 -148 -60c0 -21 14 -31 43 -31c38 0 71 29 89 60zM9 72l2 52c33 15 72 21 115 21c67 0 128 -29 128 -102c0 -121 -98 -215 -210 -215c-49 0 -98 20 -98 73c0 96 142 107 226 107c4 9 5 21 5 30c0 41 -32 58 -73 58
c-33 0 -71 -9 -95 -24z" />
    <glyph glyph-name="equal.inferior" unicode="&#xe196;" horiz-adv-x="430" 
d="M317 -101h-329v57h329v-57zM317 23h-329v57h329v-57z" />
    <glyph glyph-name="minus.inferior" unicode="&#x208b;" horiz-adv-x="430" 
d="M310 -39h-330v57h330v-57z" />
    <glyph glyph-name="minus.inferior" unicode="&#xe198;" horiz-adv-x="430" 
d="M310 -39h-330v57h330v-57z" />
    <glyph glyph-name="plus.inferior" unicode="&#x208a;" horiz-adv-x="430" 
d="M116 -39h-134v57h134v125h61v-125h134v-57h-134v-124h-61v124z" />
    <glyph glyph-name="plus.inferior" unicode="&#xe194;" horiz-adv-x="430" 
d="M116 -39h-134v57h134v125h61v-125h134v-57h-134v-124h-61v124z" />
    <glyph glyph-name="parenleft.inferior" unicode="&#xe192;" horiz-adv-x="205" 
d="M77 -240h-59c-25 60 -44 122 -44 185c0 131 72 232 152 325h59c-73 -94 -146 -199 -146 -325c0 -67 17 -125 38 -185z" />
    <glyph glyph-name="parenright.inferior" unicode="&#xe193;" horiz-adv-x="205" 
d="M-53 -240h-60c72 97 147 198 147 325c0 67 -18 125 -38 185h59c25 -59 44 -122 44 -185c0 -131 -72 -232 -152 -325z" />
    <glyph glyph-name="zero.inferior" unicode="&#x2080;" horiz-adv-x="430" 
d="M77 -97c10 -14 25 -21 44 -21c78 0 122 152 122 235c0 44 -19 74 -58 74c-78 0 -122 -151 -122 -234c0 -22 5 -40 14 -54zM113 -172c-84 0 -126 52 -126 131c0 123 66 286 206 286c84 0 126 -51 126 -130c0 -124 -64 -287 -206 -287z" />
    <glyph glyph-name="one.inferior" unicode="&#x2081;" horiz-adv-x="430" 
d="M172 -165h-78l72 324l-96 -61l-31 57l155 84h67z" />
    <glyph glyph-name="two.inferior" unicode="&#x2082;" horiz-adv-x="430" 
d="M248 -165h-291l14 60l128 95c69 51 127 96 127 142c0 32 -31 54 -74 54c-44 0 -75 -12 -107 -25l8 60c32 15 77 24 124 24c70 0 131 -34 131 -98c0 -80 -64 -131 -148 -190l-89 -64h190z" />
    <glyph glyph-name="three.inferior" unicode="&#x2083;" horiz-adv-x="430" 
d="M-46 -156l16 59c29 -12 68 -17 101 -17c62 0 121 23 121 79c0 40 -53 52 -97 52h-48l13 54h44c52 0 121 15 121 68c0 35 -41 50 -84 50c-40 0 -68 -6 -100 -18l9 57c31 11 66 17 114 17c68 0 141 -26 141 -93c0 -63 -46 -96 -97 -109c39 -9 64 -40 64 -76
c0 -104 -111 -139 -201 -139c-37 0 -80 4 -117 16z" />
    <glyph glyph-name="four.inferior" unicode="&#x2084;" horiz-adv-x="430" 
d="M225 174l-182 -196h137zM167 -80h-204l15 66l245 253h86l-58 -260h59l-13 -59h-59l-18 -85h-72z" />
    <glyph glyph-name="five.inferior" unicode="&#x2085;" horiz-adv-x="430" 
d="M-26 -156l14 60c29 -13 58 -19 89 -19c68 0 128 30 128 91c0 45 -43 61 -90 61c-35 0 -71 -8 -96 -15l52 217h251l-13 -57h-179l-25 -103c19 3 32 5 55 5c67 0 127 -31 127 -100c0 -108 -101 -156 -206 -156c-35 0 -74 5 -107 16z" />
    <glyph glyph-name="six.inferior" unicode="&#x2086;" horiz-adv-x="430" 
d="M83 -97c11 -13 28 -20 51 -20c56 0 92 45 92 97c0 35 -21 63 -66 63c-56 0 -94 -44 -94 -91c0 -19 6 -36 17 -49zM329 227l-20 -53c-21 9 -50 15 -81 15c-91 0 -132 -67 -148 -137c31 31 69 43 110 43c64 0 111 -44 111 -107c0 -103 -87 -160 -175 -160s-134 59 -134 134
c0 129 66 283 237 283c35 0 71 -6 100 -18z" />
    <glyph glyph-name="seven.inferior" unicode="&#x2087;" horiz-adv-x="430" 
d="M84 -165h-95l250 343h-220l14 61h302l-15 -62z" />
    <glyph glyph-name="eight.inferior" unicode="&#x2088;" horiz-adv-x="430" 
d="M198 0c-13 10 -29 18 -46 24c-51 -13 -99 -36 -99 -88c0 -35 34 -55 70 -55c56 0 96 34 96 82c0 15 -7 28 -21 37zM122 90c12 -10 25 -18 39 -23c47 13 88 38 88 79c0 31 -29 48 -61 48c-51 0 -84 -26 -84 -66c0 -15 6 -27 18 -38zM6 4c22 19 48 33 79 42
c-31 15 -56 40 -56 76c0 84 78 123 169 123c55 0 130 -26 130 -89s-47 -93 -101 -112c39 -15 69 -40 69 -81c0 -102 -97 -135 -184 -135c-60 0 -138 24 -138 97c0 34 11 60 32 79z" />
    <glyph glyph-name="nine.inferior" unicode="&#x2089;" horiz-adv-x="430" 
d="M95 49c11 -12 28 -18 50 -18c56 0 95 43 95 90c0 39 -22 69 -69 69c-56 0 -92 -45 -92 -96c0 -18 5 -33 16 -45zM-25 -154l20 53c21 -11 52 -16 83 -16c92 0 132 70 148 139c-31 -31 -70 -44 -111 -44c-63 0 -111 46 -111 107c0 102 84 160 175 160
c88 0 135 -58 135 -134c0 -130 -66 -283 -237 -283c-35 0 -74 5 -102 18z" />
    <glyph glyph-name="zero.numerator" unicode="&#xe145;" horiz-adv-x="430" 
d="M164 335c10 -14 25 -21 44 -21c78 0 122 152 122 235c0 44 -19 74 -58 74c-78 0 -122 -151 -122 -234c0 -22 5 -40 14 -54zM200 260c-84 0 -126 52 -126 131c0 123 66 286 206 286c84 0 126 -51 126 -130c0 -124 -64 -287 -206 -287z" />
    <glyph glyph-name="one.numerator" unicode="&#xe13c;" horiz-adv-x="430" 
d="M259 267h-78l72 324l-96 -61l-31 57l155 84h67z" />
    <glyph glyph-name="two.numerator" unicode="&#xe13d;" horiz-adv-x="430" 
d="M335 267h-291l14 60l128 95c69 51 127 96 127 142c0 32 -31 54 -74 54c-44 0 -75 -12 -107 -25l8 60c32 15 77 24 124 24c70 0 131 -34 131 -98c0 -80 -64 -131 -148 -190l-89 -64h190z" />
    <glyph glyph-name="three.numerator" unicode="&#xe13e;" horiz-adv-x="430" 
d="M41 276l16 59c29 -12 68 -17 101 -17c62 0 121 23 121 79c0 40 -53 52 -97 52h-48l13 54h44c52 0 121 15 121 68c0 35 -41 50 -84 50c-40 0 -68 -6 -100 -18l9 57c31 11 66 17 114 17c68 0 141 -26 141 -93c0 -63 -46 -96 -97 -109c39 -9 64 -40 64 -76
c0 -104 -111 -139 -201 -139c-37 0 -80 4 -117 16z" />
    <glyph glyph-name="four.numerator" unicode="&#xe13f;" horiz-adv-x="430" 
d="M312 606l-182 -196h137zM254 352h-204l15 66l245 253h86l-58 -260h59l-13 -59h-59l-18 -85h-72z" />
    <glyph glyph-name="five.numerator" unicode="&#xe140;" horiz-adv-x="430" 
d="M61 276l14 60c29 -13 58 -19 89 -19c68 0 128 30 128 91c0 45 -43 61 -90 61c-35 0 -71 -8 -96 -15l52 217h251l-13 -57h-179l-25 -103c19 3 32 5 55 5c67 0 127 -31 127 -100c0 -108 -101 -156 -206 -156c-35 0 -74 5 -107 16z" />
    <glyph glyph-name="six.numerator" unicode="&#xe141;" horiz-adv-x="430" 
d="M170 335c11 -13 28 -20 51 -20c56 0 92 45 92 97c0 35 -21 63 -66 63c-56 0 -94 -44 -94 -91c0 -19 6 -36 17 -49zM416 659l-20 -53c-21 9 -50 15 -81 15c-91 0 -132 -67 -148 -137c31 31 69 43 110 43c64 0 111 -44 111 -107c0 -103 -87 -160 -175 -160
s-134 59 -134 134c0 129 66 283 237 283c35 0 71 -6 100 -18z" />
    <glyph glyph-name="seven.numerator" unicode="&#xe142;" horiz-adv-x="430" 
d="M171 267h-95l250 343h-220l14 61h302l-15 -62z" />
    <glyph glyph-name="eight.numerator" unicode="&#xe143;" horiz-adv-x="430" 
d="M285 432c-13 10 -29 18 -46 24c-51 -13 -99 -36 -99 -88c0 -35 34 -55 70 -55c56 0 96 34 96 82c0 15 -7 28 -21 37zM209 522c12 -10 25 -18 39 -23c47 13 88 38 88 79c0 31 -29 48 -61 48c-51 0 -84 -26 -84 -66c0 -15 6 -27 18 -38zM93 436c22 19 48 33 79 42
c-31 15 -56 40 -56 76c0 84 78 123 169 123c55 0 130 -26 130 -89s-47 -93 -101 -112c39 -15 69 -40 69 -81c0 -102 -97 -135 -184 -135c-60 0 -138 24 -138 97c0 34 11 60 32 79z" />
    <glyph glyph-name="nine.numerator" unicode="&#xe144;" horiz-adv-x="430" 
d="M182 481c11 -12 28 -18 50 -18c56 0 95 43 95 90c0 39 -22 69 -69 69c-56 0 -92 -45 -92 -96c0 -18 5 -33 16 -45zM62 278l20 53c21 -11 52 -16 83 -16c92 0 132 70 148 139c-31 -31 -70 -44 -111 -44c-63 0 -111 46 -111 107c0 102 84 160 175 160
c88 0 135 -58 135 -134c0 -130 -66 -283 -237 -283c-35 0 -74 5 -102 18z" />
    <glyph glyph-name="zero.onumprop" unicode="&#xe132;" horiz-adv-x="638" 
d="M88 50c-40 40 -61 95 -61 162c0 186 131 340 320 340c155 0 239 -90 239 -223c0 -189 -131 -340 -320 -340c-77 0 -137 22 -178 61zM171 107c24 -27 58 -41 102 -41c117 0 204 121 204 260c0 88 -50 149 -137 149c-117 0 -204 -124 -204 -260c0 -44 12 -80 35 -108z" />
    <glyph glyph-name="one.onumprop" unicode="&#xe133;" horiz-adv-x="393" 
d="M217 0h-108l98 460h-154l17 82h262z" />
    <glyph glyph-name="two.onumprop" unicode="&#xe134;" horiz-adv-x="481" 
d="M363 0h-403l16 76l158 103c165 106 195 156 195 216c0 47 -37 77 -93 77c-51 0 -89 -10 -156 -34l7 81c63 24 112 33 175 33c116 0 175 -62 175 -146c0 -90 -54 -157 -214 -261l-109 -71h265z" />
    <glyph glyph-name="three.onumprop" unicode="&#xe135;" horiz-adv-x="464" 
d="M-69 -158l-4 79c23 -3 43 -4 63 -4c163 0 275 56 275 176c0 68 -51 98 -142 98h-59l15 76h57c83 0 179 29 179 124c0 52 -39 84 -98 84c-49 0 -88 -7 -155 -34l6 79c65 24 114 32 175 32c112 0 179 -57 179 -146c0 -100 -69 -158 -177 -174c89 -11 129 -60 129 -133
c0 -172 -164 -260 -384 -260c-19 0 -38 1 -59 3z" />
    <glyph glyph-name="four.onumprop" unicode="&#xe136;" horiz-adv-x="552" 
d="M266 0h-299l18 82l344 460h106l-355 -468h202l63 292h95l-62 -292h101l-16 -74h-101l-34 -160h-96z" />
    <glyph glyph-name="five.onumprop" unicode="&#xe137;" horiz-adv-x="517" 
d="M-18 -158l-4 79c23 -3 43 -4 63 -4c163 0 274 58 274 183c0 63 -47 108 -130 108c-43 0 -84 -5 -141 -16l75 350h366l-17 -78h-270l-41 -193c28 5 52 7 75 7c123 0 192 -68 192 -172c0 -179 -160 -267 -383 -267c-19 0 -38 1 -59 3z" />
    <glyph glyph-name="six.onumprop" unicode="&#xe138;" horiz-adv-x="573" 
d="M158 95c21 -23 49 -34 84 -34c99 0 169 82 169 187c0 64 -40 110 -108 110c-96 0 -177 -75 -177 -172c0 -38 11 -68 32 -91zM539 699l-9 -79c-23 3 -41 4 -62 4c-165 0 -280 -133 -320 -276c59 60 124 84 188 84c108 0 176 -74 176 -178c0 -149 -120 -265 -276 -265
c-123 0 -207 76 -207 212c0 264 187 501 440 501c17 0 47 0 70 -3z" />
    <glyph glyph-name="seven.onumprop" unicode="&#xe139;" horiz-adv-x="520" 
d="M71 -160h-114v6c126 201 301 442 436 614h-336l18 82h441l-17 -82c-147 -197 -310 -430 -428 -620z" />
    <glyph glyph-name="eight.onumprop" unicode="&#xe13a;" horiz-adv-x="579" 
d="M125 122c20 -37 63 -59 116 -59c101 0 164 55 164 139c0 47 -34 95 -117 123c-124 -27 -173 -87 -173 -159c0 -16 3 -31 10 -44zM224 436c16 -20 42 -36 77 -49c108 27 152 79 152 142c0 57 -47 94 -108 94c-84 0 -145 -52 -145 -122c0 -23 8 -45 24 -65zM59 285
c33 33 80 59 141 76c-57 29 -100 80 -100 144c0 111 112 189 252 189c120 0 202 -60 202 -160c0 -87 -64 -153 -169 -184c84 -36 122 -90 122 -155c0 -125 -111 -206 -275 -206c-135 0 -223 63 -223 171c0 51 17 92 50 125z" />
    <glyph glyph-name="nine.onumprop" unicode="&#xe13b;" horiz-adv-x="574" 
d="M6 -158l10 79c23 -3 41 -4 61 -4c172 0 286 127 320 275c-56 -60 -122 -82 -186 -82c-108 0 -178 74 -178 178c0 148 121 264 276 264c124 0 208 -76 208 -213c0 -270 -180 -500 -440 -500c-19 0 -48 0 -71 3zM163 214c20 -20 47 -30 82 -30c95 0 174 70 174 170
c0 76 -47 126 -115 126c-98 0 -170 -82 -170 -187c0 -32 10 -58 29 -79z" />
    <glyph glyph-name="zero.prop" unicode="&#xe11e;" 
d="M129 6c-68 36 -97 110 -97 199c0 187 95 472 321 472c125 0 180 -89 180 -205c0 -196 -82 -483 -321 -483c-33 0 -60 6 -83 17zM151 105c15 -24 37 -40 76 -40c147 0 205 297 205 410c0 63 -18 126 -93 126c-145 0 -206 -295 -206 -408c0 -32 5 -64 18 -88z" />
    <glyph glyph-name="one.prop" unicode="&#xe11f;" horiz-adv-x="414" 
d="M231 0h-105l118 557l-140 -99l-41 74l217 135h90z" />
    <glyph glyph-name="two.prop" unicode="&#xe120;" 
d="M423 0h-441l19 81l243 197c120 96 162 154 162 226c0 52 -40 92 -107 92c-72 0 -121 -22 -174 -47l10 86c49 27 114 42 183 42c124 0 200 -63 200 -158c0 -105 -71 -186 -226 -309l-162 -130h311z" />
    <glyph glyph-name="three.prop" unicode="&#xe121;" 
d="M-30 16l25 84c48 -24 105 -32 160 -32c87 0 191 34 191 149c0 73 -71 96 -151 96h-78l16 75h77c86 0 190 32 190 127c0 64 -67 85 -131 85c-57 0 -107 -13 -159 -34l11 82c35 11 96 29 175 29c104 0 212 -40 212 -149c0 -99 -80 -163 -170 -179c75 -19 115 -61 115 -130
c0 -163 -157 -230 -301 -230c-59 0 -127 6 -182 27z" />
    <glyph glyph-name="four.prop" unicode="&#xe122;" 
d="M312 147h-316l20 90l386 430h115l-92 -440h94l-17 -80h-95l-31 -147h-96zM406 581l-308 -355h232z" />
    <glyph glyph-name="five.prop" unicode="&#xe123;" 
d="M11 15l17 85c44 -20 102 -32 149 -32c109 0 200 53 200 161c0 90 -70 113 -139 113c-67 0 -116 -14 -157 -26l81 351h378l-18 -79h-281l-46 -190c27 7 59 12 99 12c96 0 192 -50 192 -168c0 -179 -146 -253 -308 -253c-53 0 -120 7 -167 26z" />
    <glyph glyph-name="six.prop" unicode="&#xe124;" 
d="M164 105c19 -24 46 -40 87 -40c103 0 153 85 153 179c0 59 -37 106 -109 106c-91 0 -156 -70 -156 -160c0 -31 8 -61 25 -85zM555 647l-26 -77c-35 19 -88 31 -131 31c-147 0 -209 -131 -236 -254c39 49 103 76 168 76c111 0 176 -75 176 -169
c0 -163 -111 -265 -260 -265c-151 0 -206 101 -206 210c0 214 98 478 362 478c52 0 112 -11 153 -30z" />
    <glyph glyph-name="seven.prop" unicode="&#xe125;" horiz-adv-x="494" 
d="M134 0h-120l398 582h-358l18 85h461l-18 -84z" />
    <glyph glyph-name="eight.prop" unicode="&#xe126;" 
d="M322 297c-13 8 -27 15 -41 21c-83 -24 -165 -63 -165 -156c0 -75 54 -100 119 -100c77 0 157 46 157 135c0 43 -31 78 -70 100zM227 427c16 -16 40 -31 72 -45c69 21 143 69 143 144c0 51 -45 80 -106 80c-67 0 -133 -37 -133 -110c0 -29 8 -52 24 -69zM133 325
c24 11 49 20 74 27c-57 24 -106 59 -106 135c0 136 134 190 244 190c84 0 203 -31 203 -143c0 -102 -83 -156 -171 -188c62 -27 120 -71 120 -147c0 -148 -140 -210 -275 -210c-91 0 -212 33 -212 158c0 88 54 146 123 178z" />
    <glyph glyph-name="nine.prop" unicode="&#xe127;" 
d="M188 345c19 -19 46 -29 82 -29c91 0 156 70 156 160c0 60 -30 125 -112 125c-103 0 -153 -86 -153 -179c0 -31 9 -57 27 -77zM10 19l26 77c35 -19 88 -31 131 -31c147 0 209 129 236 254c-39 -49 -103 -76 -168 -76c-111 0 -176 75 -176 169c0 163 111 265 260 265
c151 0 206 -101 206 -210c0 -214 -98 -478 -362 -478c-52 0 -112 11 -153 30z" />
    <glyph glyph-name="zero.scprop" unicode="&#xe128;" horiz-adv-x="478" 
d="M127 92c10 -20 28 -30 53 -30c95 0 156 182 156 315c0 56 -21 95 -68 95c-92 0 -156 -173 -156 -304c0 -30 5 -55 15 -76zM103 2c-58 26 -89 83 -89 158c0 179 92 385 263 385c102 0 157 -73 157 -170c0 -180 -89 -386 -263 -386c-26 0 -49 4 -68 13z" />
    <glyph glyph-name="one.scprop" unicode="&#xe129;" horiz-adv-x="363" 
d="M192 0h-97l92 428l-120 -81l-37 72l190 115h86z" />
    <glyph glyph-name="two.scprop" unicode="&#xe12a;" horiz-adv-x="478" 
d="M343 0h-367l17 75l176 139c122 95 144 138 144 185c0 45 -34 69 -86 69c-48 0 -85 -10 -140 -35l10 80c55 21 97 32 158 32c92 0 157 -51 157 -132c0 -84 -41 -143 -164 -239l-132 -102h242z" />
    <glyph glyph-name="three.scprop" unicode="&#xe12b;" horiz-adv-x="478" 
d="M-24 10l23 75c44 -16 85 -23 128 -23c84 0 149 32 149 102c0 47 -38 77 -119 77h-62l14 68h63c93 0 147 28 147 91c0 43 -35 72 -99 72c-48 0 -88 -8 -133 -25l9 75c37 12 80 23 143 23c107 0 178 -53 178 -133c0 -72 -64 -127 -133 -140c57 -11 92 -57 92 -104
c0 -120 -114 -179 -251 -179c-48 0 -100 5 -149 21z" />
    <glyph glyph-name="four.scprop" unicode="&#xe12c;" horiz-adv-x="478" 
d="M309 443l-225 -256h168zM235 116h-252l16 80l305 338h114l-74 -346h77l-16 -72h-77l-25 -116h-94z" />
    <glyph glyph-name="five.scprop" unicode="&#xe12d;" horiz-adv-x="478" 
d="M-3 8l20 78c39 -15 77 -22 114 -22c96 0 162 40 162 117c0 51 -33 84 -109 84c-49 0 -91 -9 -128 -20l64 289h317l-16 -75h-228l-32 -137c23 5 43 8 68 8c104 0 163 -56 163 -141c0 -129 -107 -200 -258 -200c-44 0 -92 6 -137 19z" />
    <glyph glyph-name="six.scprop" unicode="&#xe12e;" horiz-adv-x="478" 
d="M136 83c17 -17 38 -26 64 -26c68 0 114 54 114 131c0 51 -28 86 -80 86c-68 0 -122 -54 -122 -122c0 -28 8 -51 24 -69zM449 520l-24 -71c-33 16 -73 23 -110 23c-111 0 -173 -83 -192 -196c39 47 92 66 143 66c80 0 143 -54 143 -144c0 -124 -92 -209 -215 -209
c-108 0 -172 69 -172 177c0 170 81 379 298 379c46 0 89 -8 129 -25z" />
    <glyph glyph-name="seven.scprop" unicode="&#xe12f;" horiz-adv-x="426" 
d="M117 0h-123l309 455h-275l15 79h383l-16 -77z" />
    <glyph glyph-name="eight.scprop" unicode="&#xe130;" horiz-adv-x="478" 
d="M181 341c13 -13 31 -24 52 -33c63 21 110 49 110 105c0 35 -33 64 -77 64c-68 0 -104 -42 -104 -87c0 -20 6 -36 19 -49zM278 211c-15 15 -36 27 -61 37c-83 -21 -124 -61 -124 -118c0 -43 34 -72 89 -72c72 0 119 42 119 103c0 19 -8 36 -23 50zM36 219
c28 27 64 46 107 59c-55 32 -77 64 -77 111c0 85 84 156 209 156c99 0 163 -54 163 -122c0 -79 -64 -123 -134 -147c56 -24 96 -65 96 -118c0 -103 -102 -169 -232 -169c-101 0 -174 49 -174 129c0 41 14 75 42 101z" />
    <glyph glyph-name="nine.scprop" unicode="&#xe131;" horiz-adv-x="478" 
d="M151 282c15 -15 35 -23 61 -23c69 0 123 54 123 122c0 56 -35 95 -87 95c-69 0 -118 -57 -118 -133c0 -25 7 -46 21 -61zM-8 12l23 73c32 -15 76 -23 112 -23c113 0 174 85 195 196c-39 -47 -93 -67 -144 -67c-79 0 -140 51 -140 142c0 116 89 212 216 212
c108 0 170 -72 170 -179c0 -173 -83 -377 -301 -377c-45 0 -88 7 -131 23z" />
    <glyph glyph-name="a.superior" unicode="&#xe19f;" horiz-adv-x="378" 
d="M275 434l19 85c-10 4 -21 6 -34 6c-76 0 -142 -82 -142 -158c0 -31 14 -53 46 -53c41 0 98 57 111 120zM324 267h-73c0 17 3 44 10 75c-31 -48 -74 -82 -130 -82c-57 0 -92 39 -92 99c0 121 100 219 233 219c41 0 72 -5 109 -14l-37 -164c-13 -57 -20 -105 -20 -133z" />
    <glyph glyph-name="b.superior" unicode="&#xe1a0;" horiz-adv-x="377" 
d="M134 404l-19 -86c16 -4 31 -4 46 -4c77 0 127 74 127 157c0 31 -16 53 -47 53c-44 0 -91 -55 -107 -120zM202 704l-47 -201c31 43 66 75 121 75c60 0 91 -40 91 -100c0 -119 -83 -218 -208 -218c-43 0 -90 7 -129 16l96 428h76z" />
    <glyph glyph-name="d.superior" unicode="&#xe1a2;" horiz-adv-x="383" 
d="M275 434l19 86c-11 4 -25 5 -36 5c-77 0 -140 -82 -140 -158c0 -31 14 -53 47 -53c41 0 97 57 110 120zM324 267h-73c1 17 3 44 10 75c-32 -48 -74 -82 -130 -82c-57 0 -92 39 -92 99c0 121 99 219 222 219c15 0 32 -2 45 -6l29 132h77l-68 -304
c-13 -56 -20 -105 -20 -133z" />
    <glyph glyph-name="e.superior" unicode="&#xe1a3;" horiz-adv-x="341" 
d="M146 471c-6 -11 -11 -21 -15 -31c61 0 148 8 148 60c0 21 -14 31 -43 31c-39 0 -70 -28 -90 -60zM284 333l-2 -52c-33 -14 -72 -21 -115 -21c-67 0 -128 29 -128 102c0 121 98 215 210 215c49 0 98 -20 98 -73c0 -96 -142 -107 -226 -107c-4 -9 -5 -21 -5 -30
c0 -41 32 -58 73 -58c33 0 71 9 95 24z" />
    <glyph glyph-name="h.superior" unicode="&#xe1a6;" horiz-adv-x="367" 
d="M357 504c0 -15 -2 -26 -6 -46l-43 -191h-77l42 183c3 11 4 23 4 34c0 23 -14 41 -46 41c-52 0 -77 -44 -88 -87l-39 -171h-76l98 437h76l-42 -183c33 37 66 57 113 57c48 0 84 -25 84 -74z" />
    <glyph glyph-name="i.superior" unicode="&#xf464;" horiz-adv-x="169" 
d="M104 267h-76l68 305h77zM184 629h-77l15 65h77z" />
    <glyph glyph-name="l.superior" unicode="&#xe1a9;" horiz-adv-x="175" 
d="M104 267h-76l98 437h77z" />
    <glyph glyph-name="m.superior" unicode="&#xe1aa;" horiz-adv-x="553" 
d="M104 267h-76l52 239c4 20 9 39 13 66h71l-10 -56c33 41 71 62 116 62c39 0 71 -22 74 -66c28 37 66 66 115 66c48 0 82 -24 82 -75c0 -13 -1 -25 -4 -37l-44 -199h-77l43 196c3 9 4 17 4 25c0 25 -14 37 -43 37c-47 0 -76 -48 -84 -85l-38 -173h-76l43 196c2 9 3 17 3 25
c0 25 -14 37 -43 37c-47 0 -74 -48 -82 -85z" />
    <glyph glyph-name="minus.superior" unicode="&#x207b;" horiz-adv-x="430" 
d="M419 496h-330v57h330v-57z" />
    <glyph glyph-name="minus.superior" unicode="&#xe1e5;" horiz-adv-x="430" 
d="M419 496h-330v57h330v-57z" />
    <glyph glyph-name="n.superior" unicode="&#xe1da;" horiz-adv-x="367" 
d="M104 267h-76l53 237c5 23 9 41 13 68h71l-10 -56c31 39 65 62 116 62s86 -25 86 -76c0 -12 -2 -30 -5 -42l-44 -193h-77l41 179c3 11 5 27 5 38c0 23 -11 41 -46 41c-52 0 -77 -44 -88 -85z" />
    <glyph glyph-name="o.superior" unicode="&#xe1ab;" horiz-adv-x="380" 
d="M121 380c0 -43 20 -65 60 -65c67 0 111 80 111 143c0 43 -20 64 -60 64c-67 0 -111 -81 -111 -142zM78 289c-24 20 -36 48 -36 85c0 113 81 204 199 204c77 0 131 -41 131 -114c0 -113 -82 -204 -200 -204c-39 0 -70 10 -94 29z" />
    <glyph glyph-name="r.superior" unicode="&#xe1ae;" horiz-adv-x="245" 
d="M104 267h-76l53 237c5 23 10 41 13 68h71l-12 -65c23 36 59 71 106 71c7 0 14 1 23 -2l-19 -70c-7 1 -15 2 -24 2c-61 0 -93 -55 -104 -103z" />
    <glyph glyph-name="s.superior" unicode="&#xe1af;" horiz-adv-x="285" 
d="M17 274l17 54c23 -13 50 -20 81 -20c27 0 73 11 73 44c0 20 -20 33 -51 48c-41 19 -76 36 -76 81c0 72 81 97 143 97c28 0 61 -5 89 -13l-17 -51c-23 11 -48 16 -75 16c-25 0 -68 -9 -68 -40c0 -17 16 -28 48 -43c45 -21 83 -39 83 -85c0 -77 -82 -102 -149 -102
c-33 0 -66 5 -98 14z" />
    <glyph glyph-name="t.superior" unicode="&#xe1b0;" horiz-adv-x="235" 
d="M209 323l-8 -54c-16 -4 -39 -9 -66 -9c-39 0 -71 17 -71 62c0 15 2 31 6 47l34 149h-59l13 54h57l14 63l82 23l-19 -86h71l-13 -54h-71l-33 -147c-3 -11 -4 -22 -4 -31c0 -19 13 -23 32 -23c15 0 24 3 35 6z" />
    <glyph glyph-name="zero.superior" unicode="&#x2070;" horiz-adv-x="430" 
d="M186 438c10 -14 25 -21 44 -21c78 0 122 152 122 235c0 44 -19 74 -58 74c-78 0 -122 -151 -122 -234c0 -22 5 -40 14 -54zM222 363c-84 0 -126 52 -126 131c0 123 66 286 206 286c84 0 126 -51 126 -130c0 -124 -64 -287 -206 -287z" />
    <glyph glyph-name="four.superior" unicode="&#x2074;" horiz-adv-x="430" 
d="M334 709l-182 -196h137zM276 455h-204l15 66l245 253h86l-58 -260h59l-13 -59h-59l-18 -85h-72z" />
    <glyph glyph-name="five.superior" unicode="&#x2075;" horiz-adv-x="430" 
d="M83 379l14 60c29 -13 58 -19 89 -19c68 0 128 30 128 91c0 45 -43 61 -90 61c-35 0 -71 -8 -96 -15l52 217h251l-13 -57h-179l-25 -103c19 3 32 5 55 5c67 0 127 -31 127 -100c0 -108 -101 -156 -206 -156c-35 0 -74 5 -107 16z" />
    <glyph glyph-name="six.superior" unicode="&#x2076;" horiz-adv-x="430" 
d="M192 438c11 -13 28 -20 51 -20c56 0 92 45 92 97c0 35 -21 63 -66 63c-56 0 -94 -44 -94 -91c0 -19 6 -36 17 -49zM438 762l-20 -53c-21 9 -50 15 -81 15c-91 0 -132 -67 -148 -137c31 31 69 43 110 43c64 0 111 -44 111 -107c0 -103 -87 -160 -175 -160
s-134 59 -134 134c0 129 66 283 237 283c35 0 71 -6 100 -18z" />
    <glyph glyph-name="seven.superior" unicode="&#x2077;" horiz-adv-x="430" 
d="M193 370h-95l250 343h-220l14 61h302l-15 -62z" />
    <glyph glyph-name="eight.superior" unicode="&#x2078;" horiz-adv-x="430" 
d="M307 535c-13 10 -29 18 -46 24c-51 -13 -99 -36 -99 -88c0 -35 34 -55 70 -55c56 0 96 34 96 82c0 15 -7 28 -21 37zM231 625c12 -10 25 -18 39 -23c47 13 88 38 88 79c0 31 -29 48 -61 48c-51 0 -84 -26 -84 -66c0 -15 6 -27 18 -38zM115 539c22 19 48 33 79 42
c-31 15 -56 40 -56 76c0 84 78 123 169 123c55 0 130 -26 130 -89s-47 -93 -101 -112c39 -15 69 -40 69 -81c0 -102 -97 -135 -184 -135c-60 0 -138 24 -138 97c0 34 11 60 32 79z" />
    <glyph glyph-name="nine.superior" unicode="&#x2079;" horiz-adv-x="430" 
d="M204 584c11 -12 28 -18 50 -18c56 0 95 43 95 90c0 39 -22 69 -69 69c-56 0 -92 -45 -92 -96c0 -18 5 -33 16 -45zM84 381l20 53c21 -11 52 -16 83 -16c92 0 132 70 148 139c-31 -31 -70 -44 -111 -44c-63 0 -111 46 -111 107c0 102 84 160 175 160
c88 0 135 -58 135 -134c0 -130 -66 -283 -237 -283c-35 0 -74 5 -102 18z" />
    <glyph glyph-name="equal.superior" unicode="&#xe1e3;" horiz-adv-x="430" 
d="M426 434h-329v57h329v-57zM426 558h-329v57h329v-57z" />
    <glyph glyph-name="parenleft.superior" unicode="&#xe1df;" horiz-adv-x="205" 
d="M186 295h-59c-25 60 -44 122 -44 185c0 131 72 232 152 325h59c-73 -94 -146 -199 -146 -325c0 -67 17 -125 38 -185z" />
    <glyph glyph-name="parenright.superior" unicode="&#xe1e0;" horiz-adv-x="205" 
d="M56 295h-60c72 97 147 198 147 325c0 67 -18 125 -38 185h59c25 -59 44 -122 44 -185c0 -131 -72 -232 -152 -325z" />
    <glyph glyph-name="period.superior" unicode="&#xe1dc;" horiz-adv-x="198" 
d="M118 267h-70l15 73h70z" />
    <glyph glyph-name="plus.superior" unicode="&#x207a;" horiz-adv-x="430" 
d="M225 496h-134v57h134v125h61v-125h134v-57h-134v-124h-61v124z" />
    <glyph glyph-name="plus.superior" unicode="&#xe1e1;" horiz-adv-x="430" 
d="M225 496h-134v57h134v125h61v-125h134v-57h-134v-124h-61v124z" />
    <glyph glyph-name="ntilde.superior" unicode="&#xf463;" horiz-adv-x="367" 
d="M161 640h-42c15 51 41 93 88 93c37 0 67 -35 91 -35c19 0 29 16 37 37h42c-19 -56 -43 -91 -87 -91c-41 0 -60 33 -89 33c-17 0 -30 -12 -40 -37zM104 267h-76l53 237c5 23 9 41 13 68h71l-10 -56c31 39 65 62 116 62s86 -25 86 -76c0 -12 -2 -30 -5 -42l-44 -193h-77
l41 179c3 11 5 27 5 38c0 23 -11 41 -46 41c-52 0 -77 -44 -88 -85z" />
    <glyph glyph-name="apostrophe" unicode="&#x2bc;" horiz-adv-x="281" 
d="M127 544h-58l83 177h77z" />
    <glyph glyph-name="revcommaaccent" horiz-adv-x="243" 
d="M195 584h-87l83 159h63z" />
    <glyph glyph-name="uni2071" unicode="&#x2071;" horiz-adv-x="169" 
d="M127 370h-76l68 305h77zM207 732h-77l15 65h77z" />
    <glyph glyph-name="uni207F" unicode="&#x207f;" horiz-adv-x="367" 
d="M127 370h-76l53 237c5 23 9 41 13 68h71l-10 -56c31 39 65 62 116 62s86 -25 86 -76c0 -12 -2 -30 -5 -42l-44 -193h-77l41 179c3 11 5 27 5 38c0 23 -11 41 -46 41c-52 0 -77 -44 -88 -85z" />
    <glyph glyph-name="dotlessj.sc" unicode="&#xe090;" horiz-adv-x="299" 
d="M-64 1l20 77c16 -7 30 -9 46 -9c56 0 83 36 96 96l78 369h98l-83 -387c-21 -99 -80 -158 -180 -158c-32 0 -51 4 -75 12z" />
    <glyph glyph-name="ordmasculine.sc" horiz-adv-x="326" 
d="M79 322c-19 19 -29 43 -29 73c0 77 60 149 152 149c73 0 110 -46 110 -103c0 -80 -59 -146 -152 -146c-35 0 -62 9 -81 27zM131 355c9 -11 20 -16 35 -16c48 0 79 49 79 103c0 32 -18 57 -49 57c-46 0 -78 -52 -78 -104c0 -16 4 -29 13 -40z" />
    </font>
</defs>
</svg>
